<?xml version="1.0" encoding="UTF-8" standalone="no"?>
<svg
   id="Layer_1"
   data-name="Layer 1"
   viewBox="0 0 1000 630.00002"
   version="1.1"
   width="1000"
   height="630"
   xmlns="http://www.w3.org/2000/svg"
   xmlns:svg="http://www.w3.org/2000/svg">
  <defs
     id="defs7355">
    <style
       id="style7350">
      .cls-1, .cls-2 {
        stroke-width: 3px;
      }

      .cls-1, .cls-2, .cls-3, .cls-4 {
        fill: none;
      }

      .cls-1, .cls-2, .cls-5, .cls-4 {
        stroke-miterlimit: 10;
      }

      .cls-1, .cls-4 {
        stroke: #fff;
      }

      .cls-2, .cls-5 {
        stroke: #231f20;
      }

      .cls-6 {
        clip-path: url(#clippath);
      }

      .cls-3, .cls-7, .cls-8, .cls-9 {
        stroke-width: 0px;
      }

      .cls-5, .cls-8 {
        fill: #ffd506;
      }

      .cls-10 {
        font-family: MyriadPro-Regular, 'Myriad Pro';
        font-size: 59.77px;
      }

      .cls-4 {
        stroke-width: 2px;
      }

      .cls-9 {
        opacity: .2;
      }
    </style>
    <clipPath
       id="clippath">
      <rect
         class="cls-3"
         x="4.73"
         y="179.12"
         width="1000"
         height="630"
         id="rect7352" />
    </clipPath>
  </defs>
  <g
     class="cls-6"
     clip-path="url(#clippath)"
     id="g7513"
     transform="translate(-4,-179.27741)">
    <rect
       class="cls-5"
       x="0.5"
       y="172.47"
       width="1009.93"
       height="645.39001"
       id="rect7357" />
    <rect
       class="cls-2"
       x="193.75"
       y="129.24001"
       width="813.34003"
       height="952.09998"
       rx="21.42"
       ry="21.42"
       transform="rotate(-28.04,600.47741,605.32144)"
       id="rect7359" />
    <line
       class="cls-2"
       x1="86.599998"
       y1="339.60999"
       x2="534.20001"
       y2="1179.9301"
       id="line7361" />
    <line
       class="cls-2"
       x1="383.37"
       y1="181.53"
       x2="830.96997"
       y2="1021.86"
       id="line7363" />
    <line
       class="cls-2"
       x1="557.91998"
       y1="88.559998"
       x2="1005.52"
       y2="928.89001"
       id="line7365" />
    <line
       class="cls-2"
       x1="231.53999"
       y1="611.70001"
       x2="528.29999"
       y2="453.63"
       id="line7367" />
    <line
       class="cls-2"
       x1="702.84998"
       y1="360.66"
       x2="880.47998"
       y2="266.04001"
       id="line7369" />
    <line
       class="cls-2"
       x1="576.63"
       y1="544.34998"
       x2="751.17999"
       y2="451.38"
       id="line7371" />
    <line
       class="cls-2"
       x1="323.06"
       y1="783.53003"
       x2="619.82001"
       y2="625.45001"
       id="line7373" />
    <line
       class="cls-2"
       x1="815.34003"
       y1="571.84003"
       x2="992.96002"
       y2="477.23001"
       id="line7375" />
    <line
       class="cls-2"
       x1="687.83002"
       y1="753.12"
       x2="862.38"
       y2="660.15002"
       id="line7377" />
    <line
       class="cls-2"
       x1="443.10999"
       y1="1008.91"
       x2="739.88"
       y2="850.84003"
       id="line7379" />
    <line
       class="cls-2"
       x1="932.41998"
       y1="791.65997"
       x2="1110.05"
       y2="697.04999"
       id="line7381" />
    <rect
       class="cls-7"
       x="275.79999"
       y="539.83002"
       width="299.09"
       height="156.61"
       transform="rotate(-28.04,425.38748,618.16559)"
       id="rect7383" />
    <rect
       class="cls-4"
       x="131.72"
       y="269.14999"
       width="299.09"
       height="156.61"
       transform="rotate(-28.04,281.29241,347.48442)"
       id="rect7385" />
    <rect
       class="cls-7"
       x="431.48999"
       y="144.62"
       width="164.22"
       height="144.96001"
       transform="rotate(-28.04,513.63899,217.11077)"
       id="rect7387" />
    <circle
       class="cls-9"
       cx="219.97"
       cy="514.47998"
       r="16.92"
       id="circle7389" />
    <rect
       class="cls-9"
       x="231.58"
       y="426.60999"
       width="252.14999"
       height="29.059999"
       transform="rotate(-28.04,357.69058,441.16403)"
       id="rect7391" />
    <rect
       class="cls-9"
       x="209.95"
       y="479.79999"
       width="299"
       height="29.059999"
       transform="rotate(-28.04,359.49269,494.34883)"
       id="rect7393" />
    <circle
       class="cls-9"
       cx="507.39999"
       cy="344.13"
       r="16.92"
       id="circle7395" />
    <rect
       class="cls-9"
       x="526.91998"
       y="292.44"
       width="117.37"
       height="20.049999"
       transform="rotate(-28.04,585.64483,302.4822)"
       id="rect7397" />
    <line
       class="cls-2"
       x1="497.60001"
       y1="395.98999"
       x2="672.15002"
       y2="303.01999"
       id="line7399" />
    <rect
       class="cls-4"
       x="603.13"
       y="51.779999"
       width="164.22"
       height="123.52"
       transform="rotate(-28.04,685.28432,113.52969)"
       id="rect7401" />
    <rect
       class="cls-9"
       x="646.65002"
       y="185.22"
       width="164.22"
       height="20.049999"
       transform="rotate(-28.04,728.80682,195.23503)"
       id="rect7403" />
    <rect
       class="cls-9"
       x="662.06"
       y="214.16"
       width="164.22"
       height="20.049999"
       transform="rotate(-28.04,744.23251,224.1885)"
       id="rect7405" />
    <rect
       class="cls-9"
       x="696.08002"
       y="284.82001"
       width="109.88"
       height="20.049999"
       transform="rotate(-28.04,751.07028,294.86171)"
       id="rect7407" />
    <circle
       class="cls-9"
       cx="752.34003"
       cy="378.17999"
       r="16.92"
       id="circle7409" />
    <rect
       class="cls-9"
       x="771.85999"
       y="326.5"
       width="117.37"
       height="20.049999"
       transform="rotate(-28.04,830.60728,336.52644)"
       id="rect7411" />
    <rect
       class="cls-7"
       x="777.03003"
       y="374.09"
       width="164.22"
       height="131.89999"
       transform="rotate(-28.04,859.21404,440.05575)"
       id="rect7413" />
    <rect
       class="cls-9"
       x="677.47998"
       y="243.11"
       width="164.22"
       height="20.049999"
       transform="rotate(-28.04,759.63818,253.13696)"
       id="rect7415" />
    <rect
       class="cls-4"
       x="540.78998"
       y="359.14001"
       width="164.22"
       height="123.52"
       transform="rotate(-28.04,622.95568,420.90594)"
       id="rect7417" />
    <rect
       class="cls-9"
       x="598.46997"
       y="519.15002"
       width="164.22"
       height="20.049999"
       transform="rotate(-28.04,680.62174,529.20242)"
       id="rect7419" />
    <rect
       class="cls-9"
       x="613.88"
       y="548.09003"
       width="164.22"
       height="20.049999"
       transform="rotate(-28.04,696.05244,558.13587)"
       id="rect7421" />
    <rect
       class="cls-9"
       x="680.58002"
       y="684.03998"
       width="78.400002"
       height="20.049999"
       transform="rotate(-28.04,719.83791,694.09332)"
       id="rect7423" />
    <rect
       class="cls-9"
       x="629.29999"
       y="577.03003"
       width="164.22"
       height="20.049999"
       transform="rotate(-28.04,711.45811,587.08433)"
       id="rect7425" />
    <rect
       class="cls-9"
       x="644.71002"
       y="605.97998"
       width="164.22"
       height="20.049999"
       transform="rotate(-28.04,726.8838,616.0378)"
       id="rect7427" />
    <rect
       class="cls-9"
       x="660.13"
       y="634.91998"
       width="164.22"
       height="20.049999"
       transform="rotate(-28.04,742.29447,644.96625)"
       id="rect7429" />
    <rect
       class="cls-4"
       x="860.53998"
       y="535.04999"
       width="164.22"
       height="123.52"
       transform="rotate(-28.04,942.72314,596.83991)"
       id="rect7431" />
    <rect
       class="cls-4"
       x="392.26001"
       y="758.46002"
       width="299.09"
       height="156.61"
       transform="rotate(-28.04,541.84647,836.80557)"
       id="rect7433" />
    <circle
       class="cls-9"
       cx="370.98001"
       cy="798.09003"
       r="16.92"
       id="circle7435" />
    <rect
       class="cls-9"
       x="382.59"
       y="710.21997"
       width="252.14999"
       height="29.059999"
       transform="rotate(-28.04,508.72218,724.78791)"
       id="rect7437" />
    <rect
       class="cls-1"
       x="60.02"
       y="397.26001"
       width="52.939999"
       height="52.939999"
       transform="rotate(-28.04,86.513114,423.76108)"
       id="rect7439" />
    <rect
       class="cls-1"
       x="97.75"
       y="468.10001"
       width="52.939999"
       height="52.939999"
       transform="rotate(-28.04,124.24096,494.59573)"
       id="rect7441" />
    <rect
       class="cls-1"
       x="135.48"
       y="538.92999"
       width="52.939999"
       height="52.939999"
       transform="rotate(-28.04,161.96881,565.43038)"
       id="rect7443" />
    <rect
       class="cls-1"
       x="173.22"
       y="609.77002"
       width="52.939999"
       height="52.939999"
       transform="rotate(-28.04,199.71168,636.29005)"
       id="rect7445" />
    <rect
       class="cls-1"
       x="210.95"
       y="680.60999"
       width="52.939999"
       height="52.939999"
       transform="rotate(-28.04,237.43952,707.1247)"
       id="rect7447" />
    <rect
       class="cls-1"
       x="248.67999"
       y="751.45001"
       width="52.939999"
       height="52.939999"
       transform="rotate(-28.04,275.18739,777.96435)"
       id="rect7449" />
    <text
       class="cls-10"
       transform="rotate(-28.04,816.72359,96.593265)"
       id="text7453"><tspan
         x="0"
         y="0"
         id="tspan7451">...</tspan></text>
    <polygon
       class="cls-5"
       points="448.77,607.25 400.05,605.58 422.97,648.61 "
       id="polygon7455" />
    <polygon
       class="cls-8"
       points="536.31,205.01 487.58,203.35 510.5,246.37 "
       id="polygon7457" />
    <polygon
       class="cls-8"
       points="880.03,429.45 831.31,427.78 854.22,470.81 "
       id="polygon7459" />
    <path
       class="cls-7"
       d="m 67.21,421.21 c 1.07,-0.57 2.02,-1.12 3,-1.58 0.81,-0.38 0.98,-0.84 0.52,-1.63 -0.57,-0.97 -1.07,-1.99 -1.65,-3.07 0.52,-0.33 0.9,-0.54 1.25,-0.79 0.86,-0.61 1.34,-0.34 1.83,0.56 1.63,3.01 1.66,2.99 4.64,1.41 3.55,-1.89 7.09,-3.79 10.64,-5.66 1.84,-0.97 3.93,-1.67 3.82,-4.44 0.7,0.18 1.16,0.31 1.57,0.42 0.05,0.2 0.13,0.31 0.09,0.38 -1,2.01 -0.33,3.72 0.71,5.54 2.21,3.88 4.23,7.86 6.33,11.8 0.3,0.56 0.6,1.12 0.98,1.83 l 4.12,-2.19 1.32,2.47 -4.13,2.2 c 0.64,1.2 1.17,2.25 1.75,3.28 0.65,1.15 -0.32,1.38 -0.99,1.69 -0.66,0.3 -1.4,1.29 -2.09,0.01 -0.05,-0.09 -0.09,-0.18 -0.14,-0.26 q -1.76,-3.01 -4.91,-1.33 c -3.68,1.96 -7.34,3.96 -11.05,5.85 -1.16,0.59 -1.86,1.35 -2.12,2.63 -0.24,1.21 -0.6,2.39 -0.93,3.68 -0.75,-0.25 -1.2,-0.4 -1.95,-0.66 0.49,-1.39 0.98,-2.68 1.38,-4 0.14,-0.48 0.23,-1.14 0.02,-1.55 -2.68,-5.14 -5.43,-10.26 -8.23,-15.52 l -4.06,2.16 -1.71,-3.21 z m 15.11,12.59 c 2.02,-6.66 4.04,-13.32 6.02,-19.84 -3.83,2.04 -7.95,4.21 -12.03,6.45 -0.29,0.16 -0.56,0.95 -0.41,1.23 2.13,4.13 4.34,8.23 6.42,12.15 z m 8.57,-18.99 c -2.01,6.62 -3.99,13.12 -5.94,19.55 l 12.74,-6.79 z"
       id="path7461" />
    <path
       class="cls-7"
       d="m 126.46,474.52 7.47,14.03 -2.23,1.19 c -2.48,-4.66 -4.94,-9.28 -7.47,-14.03 z"
       id="path7463" />
    <path
       class="cls-7"
       d="m 117.8,503.83 c -1.83,1.02 -4,0.39 -4.99,-1.45 -0.95,-1.75 -0.34,-3.93 1.38,-4.92 1.75,-1.02 4.05,-0.4 5.06,1.36 1.01,1.76 0.37,4.01 -1.45,5.01 z"
       id="path7465" />
    <path
       class="cls-7"
       d="m 126.1,490.32 c 1.01,1.83 0.38,3.99 -1.46,4.98 -1.83,0.98 -4.05,0.33 -5,-1.47 -0.92,-1.73 -0.27,-3.92 1.45,-4.92 1.76,-1.02 4.02,-0.39 5.02,1.41 z"
       id="path7467" />
    <path
       class="cls-7"
       d="m 138.54,492.21 c 0.99,1.83 0.36,4.03 -1.45,5 -1.79,0.96 -4.05,0.26 -4.99,-1.55 -0.92,-1.77 -0.28,-3.91 1.46,-4.89 1.82,-1.02 3.98,-0.4 4.98,1.44 z"
       id="path7469" />
    <path
       class="cls-7"
       d="m 133.22,508.59 -2.38,1.27 c -0.89,-1.68 -1.75,-3.29 -2.61,-4.89 -1.18,-2.21 -2.33,-4.43 -3.54,-6.62 -0.46,-0.82 -0.13,-1.21 0.58,-1.53 0.62,-0.28 1.22,-0.88 1.77,0.16 2.02,3.83 4.07,7.65 6.18,11.61 z"
       id="path7471" />
    <path
       class="cls-7"
       d="m 114.6,495.29 -2.2,1.17 c -2,-3.76 -3.98,-7.47 -6.01,-11.28 l 2.2,-1.17 z"
       id="path7473" />
    <path
       class="cls-7"
       d="m 124.29,513.28 q -2.23,1.55 -3.32,-0.48 c -1.01,-1.89 -1.97,-3.8 -3.03,-5.66 -0.51,-0.9 -0.27,-1.34 0.58,-1.79 0.82,-0.43 1.34,-0.48 1.82,0.47 1.26,2.49 2.61,4.94 3.95,7.45 z"
       id="path7475" />
    <path
       class="cls-7"
       d="m 115.27,480.42 2.18,-1.16 3.97,7.45 -2.18,1.16 z"
       id="path7477" />
    <path
       class="cls-7"
       d="m 139.85,505.04 -3.02,-5.66 2.21,-1.17 3.02,5.66 z"
       id="path7479" />
    <path
       class="cls-7"
       d="m 176.34,558.28 c 4.24,8.01 1.17,17.95 -6.84,22.17 -8.03,4.23 -17.98,1.16 -22.19,-6.84 -4.23,-8.03 -1.16,-17.92 6.88,-22.18 8.03,-4.25 17.9,-1.21 22.16,6.85 z m -2.12,1.06 c -3.64,-6.82 -12.14,-9.42 -18.95,-5.8 -6.81,3.62 -9.45,12.17 -5.86,18.96 3.63,6.86 12.23,9.49 19.08,5.82 6.79,-3.64 9.37,-12.16 5.74,-18.98 z"
       id="path7481" />
    <path
       class="cls-7"
       d="m 156.61,555.68 c 5.16,-3.13 12.42,-0.89 15.46,4.7 3.06,5.6 0.94,12.92 -4.63,15.64 -3.59,-6.74 -7.18,-13.49 -10.83,-20.34 z"
       id="path7483" />
    <path
       class="cls-7"
       d="m 282,777.94 c -1.48,-0.74 -1.9,-1.61 -1.47,-3.25 0.89,-3.42 -0.77,-6.99 -3.76,-8.83 -2.98,-1.83 -6.82,-1.68 -9.51,0.38 -2.95,2.26 -4.25,5.93 -2.95,9.41 0.6,1.61 0.22,2.49 -1.02,3.33 -2.96,-3.6 -2.52,-9.58 0.99,-13.36 3.76,-4.06 9.98,-4.68 14.44,-1.44 4.34,3.15 5.78,9.12 3.28,13.78 z"
       id="path7485" />
    <path
       class="cls-7"
       d="m 272.88,785.17 c 1.31,-0.54 2.25,-0.49 3.2,0.92 2,2.97 5.94,4.07 9.43,2.95 3.33,-1.08 5.68,-4.29 5.77,-7.9 0.09,-3.51 -2.04,-6.7 -5.36,-8.01 q -1.78,-0.7 -1.7,-2.79 c 4.55,-0.05 9.05,4.5 9.5,9.62 0.5,5.71 -3.42,10.85 -9.02,11.81 -5.15,0.88 -10.64,-2.19 -11.8,-6.61 z"
       id="path7487" />
    <path
       class="cls-7"
       d="m 281.36,793.09 c -2.65,3.76 -8.15,5.08 -12.65,3.13 -4.75,-2.06 -7.39,-7.14 -6.37,-12.23 0.95,-4.72 5.19,-8.51 9.64,-8.55 -0.33,1.33 -0.68,2.39 -2.22,3 -4.59,1.81 -6.48,7.29 -4.21,11.68 2.21,4.28 7.84,5.93 11.87,3.28 1.37,-0.9 2.49,-0.95 3.93,-0.31 z"
       id="path7489" />
    <path
       class="cls-7"
       d="m 276.08,778.2 c 0.83,-2.24 1.18,-2.38 2.97,-1.18 3.29,2.22 4.95,5.34 4.96,9.31 0,2.19 -0.22,2.34 -2.62,1.87 0.67,-4.55 -1.01,-7.94 -5.32,-10 z"
       id="path7491" />
    <path
       class="cls-7"
       d="m 279.26,770.8 c 0.72,1.38 0.59,2.27 -0.9,3.03 -1.91,0.97 -3.19,2.7 -3.64,4.79 -0.35,1.61 -1.16,2.02 -2.61,1.73 -0.56,-3.66 3.06,-8.54 7.15,-9.55 z"
       id="path7493" />
    <path
       class="cls-7"
       d="m 266.82,782.37 c 0.6,-1.16 1.16,-2.04 2.81,-1.35 2.04,0.85 4.23,0.76 6.16,-0.33 1.48,-0.84 2.27,-0.35 2.99,0.89 -2.73,2.83 -8.41,3.21 -11.97,0.79 z"
       id="path7495" />
    <path
       class="cls-7"
       d="m 242.08,705.74 c -0.55,1.92 -1.06,3.72 -1.6,5.62 -1.16,-0.59 -1.86,-0.17 -2.66,0.76 -3.37,3.96 -9.12,4.94 -13.58,2.46 -4.49,-2.5 -6.67,-7.89 -5.19,-12.81 1.47,-4.91 6.31,-8.2 11.42,-7.77 5.14,0.43 9.27,4.38 9.98,9.56 q 0.22,1.61 1.62,2.19 z m -8.39,6.81 c 4.22,-2.28 5.79,-7.57 3.49,-11.77 -2.25,-4.12 -7.54,-5.7 -11.68,-3.5 -4.22,2.24 -5.82,7.54 -3.57,11.76 2.26,4.23 7.51,5.8 11.75,3.51 z"
       id="path7497" />
    <path
       class="cls-7"
       d="m 244.18,706.27 c 4.76,1.34 9.71,2.67 14.12,5.4 1.06,0.66 2.73,1.35 2.18,2.78 -0.25,0.65 -2.18,0.93 -3.33,0.9 -5.19,-0.13 -10.04,-1.81 -14.93,-3.41 0.65,-1.88 1.27,-3.69 1.96,-5.67 z"
       id="path7499" />
    <path
       class="cls-7"
       d="m 227,700.12 c 1.19,-0.86 2.03,-0.56 2.53,0.68 0.52,1.3 1.23,1.69 2.46,0.79 1.09,-0.8 1.83,-0.52 2.47,0.7 0.64,1.21 0.68,2.07 -0.74,2.59 -1.26,0.46 -1.64,1.14 -0.77,2.33 0.83,1.13 0.58,1.93 -0.72,2.61 -1.23,0.64 -2.09,0.63 -2.58,-0.77 -0.52,-1.48 -1.38,-1.45 -2.49,-0.67 -1.18,0.83 -1.83,0.3 -2.44,-0.82 -0.63,-1.16 -0.6,-1.98 0.72,-2.48 1.33,-0.5 1.66,-1.24 0.79,-2.47 -0.83,-1.17 -0.56,-2.07 0.78,-2.49 z"
       id="path7501" />
    <path
       class="cls-7"
       d="m 195.09,655 c -0.64,-0.27 -1.34,-0.56 -1.75,-0.73 3.53,-11.74 7.05,-23.46 10.64,-35.41 0.5,0.13 1.27,0.33 1.87,0.48 -3.56,11.82 -7.1,23.54 -10.75,35.67 z"
       id="path7503" />
    <path
       class="cls-7"
       d="m 199.92,626.03 c -0.08,1.49 -0.58,2.44 -2.15,3.04 -6.55,2.48 -10.46,7.38 -12.38,14.02 -0.31,1.08 -0.14,1.71 1.02,1.94 2.43,0.5 4.86,1.02 7.45,1.57 -0.18,0.56 -0.4,1.23 -0.68,2.08 -3.61,-0.13 -6.99,-0.9 -10.18,-2.41 -0.29,-0.14 -0.53,-0.76 -0.52,-1.14 0.38,-8.35 8.59,-17.65 16.86,-19.14 0.17,-0.03 0.35,0.02 0.57,0.04 z"
       id="path7505" />
    <path
       class="cls-7"
       d="m 216.58,627.42 c -1.72,10.19 -10.03,19.78 -17.56,20.5 0.1,-1.53 0.59,-2.58 2.19,-3.24 6.85,-2.82 10.32,-8.44 12.51,-15.55 -2.91,-0.54 -5.64,-1.04 -8.45,-1.56 -0.09,-1.57 0.52,-2.34 2.29,-1.96 3.01,0.64 6.03,1.21 9.03,1.81 z"
       id="path7507" />
    <path
       class="cls-7"
       d="m 200.77,643.09 c 1.08,-3.52 2.18,-7.11 3.26,-10.64 1.56,1.01 2.4,3.5 1.83,5.91 -0.62,2.6 -2.67,4.45 -5.08,4.72 z"
       id="path7509" />
    <path
       class="cls-7"
       d="m 196.18,638.18 c -0.3,1.04 -0.62,2.11 -1,3.42 -1.72,-1.59 -2.29,-3.41 -2.14,-5.65 1.12,0.8 2.1,1.5 3.14,2.24 z"
       id="path7511" />
  </g>
</svg>
