<?xml version="1.0" encoding="UTF-8" standalone="no"?>
<svg
   viewBox="0 0 1920 1080"
   version="1.1"
   id="svg4"
   sodipodi:docname="best-ai-video-editors-featured-image.svg"
   inkscape:export-filename="wickedbackground.svg"
   inkscape:export-xdpi="96"
   inkscape:export-ydpi="96"
   inkscape:version="1.3.2 (091e20ef0f, 2023-11-25)"
   xmlns:inkscape="http://www.inkscape.org/namespaces/inkscape"
   xmlns:sodipodi="http://sodipodi.sourceforge.net/DTD/sodipodi-0.dtd"
   xmlns="http://www.w3.org/2000/svg"
   xmlns:svg="http://www.w3.org/2000/svg">
  <defs
     id="defs4" />
  <sodipodi:namedview
     id="namedview4"
     pagecolor="#ffffff"
     bordercolor="#000000"
     borderopacity="0.25"
     inkscape:showpageshadow="2"
     inkscape:pageopacity="0.0"
     inkscape:pagecheckerboard="0"
     inkscape:deskcolor="#d1d1d1"
     inkscape:zoom="0.29791667"
     inkscape:cx="960"
     inkscape:cy="777.06294"
     inkscape:window-width="1578"
     inkscape:window-height="996"
     inkscape:window-x="0"
     inkscape:window-y="0"
     inkscape:window-maximized="1"
     inkscape:current-layer="g4" />
  <g
     transform="          rotate(0 960 540)           translate(-0 -0)          scale(1)        "
     id="g4">
    <rect
       width="1920"
       height="1080"
       fill="rgb(184, 171, 255)"
       id="rect1"
       style="fill:#ffd506;fill-opacity:1" />
    <g
       transform="translate(0, 0)"
       id="g1" />
    <g
       id="g2"
       transform="matrix(1.7845646,0,0,1.7845646,-808.0602,194.43452)">
      <rect
         class="cls-2"
         x="393.39264"
         y="282.36966"
         width="813.34003"
         height="952.09998"
         rx="21.42"
         ry="21.42"
         transform="rotate(-28.04)"
         id="rect7359"
         style="fill:none;stroke:#231f20;stroke-width:3px;stroke-miterlimit:10" />
      <line
         class="cls-2"
         x1="548.86292"
         y1="27.585646"
         x2="996.46295"
         y2="867.9057"
         id="line7361"
         style="fill:none;stroke:#231f20;stroke-width:3px;stroke-miterlimit:10" />
      <line
         class="cls-2"
         x1="845.63293"
         y1="-130.49434"
         x2="1293.2329"
         y2="709.83563"
         id="line7363"
         style="fill:none;stroke:#231f20;stroke-width:3px;stroke-miterlimit:10" />
      <line
         class="cls-2"
         x1="1020.1829"
         y1="-223.46434"
         x2="1467.783"
         y2="616.86566"
         id="line7365"
         style="fill:none;stroke:#231f20;stroke-width:3px;stroke-miterlimit:10" />
      <line
         class="cls-2"
         x1="693.80292"
         y1="299.67566"
         x2="990.56293"
         y2="141.60567"
         id="line7367"
         style="fill:none;stroke:#231f20;stroke-width:3px;stroke-miterlimit:10" />
      <line
         class="cls-2"
         x1="1165.1129"
         y1="48.635662"
         x2="1342.7429"
         y2="-45.984333"
         id="line7369"
         style="fill:none;stroke:#231f20;stroke-width:3px;stroke-miterlimit:10" />
      <line
         class="cls-2"
         x1="1038.8929"
         y1="232.32564"
         x2="1213.4429"
         y2="139.35567"
         id="line7371"
         style="fill:none;stroke:#231f20;stroke-width:3px;stroke-miterlimit:10" />
      <line
         class="cls-2"
         x1="785.32294"
         y1="471.50568"
         x2="1082.0829"
         y2="313.42566"
         id="line7373"
         style="fill:none;stroke:#231f20;stroke-width:3px;stroke-miterlimit:10" />
      <line
         class="cls-2"
         x1="1277.6029"
         y1="259.81567"
         x2="1455.2229"
         y2="165.20567"
         id="line7375"
         style="fill:none;stroke:#231f20;stroke-width:3px;stroke-miterlimit:10" />
      <line
         class="cls-2"
         x1="1150.0929"
         y1="441.09564"
         x2="1324.6429"
         y2="348.12567"
         id="line7377"
         style="fill:none;stroke:#231f20;stroke-width:3px;stroke-miterlimit:10" />
      <line
         class="cls-2"
         x1="905.37292"
         y1="696.88562"
         x2="1202.1429"
         y2="538.81567"
         id="line7379"
         style="fill:none;stroke:#231f20;stroke-width:3px;stroke-miterlimit:10" />
      <line
         class="cls-2"
         x1="1394.6829"
         y1="479.63562"
         x2="1572.313"
         y2="385.02563"
         id="line7381"
         style="fill:none;stroke:#231f20;stroke-width:3px;stroke-miterlimit:10" />
      <rect
         class="cls-7"
         x="489.95688"
         y="609.14441"
         width="299.09"
         height="156.61"
         transform="rotate(-28.04)"
         id="rect7383"
         style="stroke-width:0px" />
      <rect
         class="cls-4"
         x="490.03476"
         y="302.49966"
         width="299.09"
         height="156.61"
         transform="rotate(-28.04)"
         id="rect7385"
         style="fill:none;stroke:#ffffff;stroke-width:2px;stroke-miterlimit:10" />
      <rect
         class="cls-7"
         x="823.81891"
         y="302.49628"
         width="164.22"
         height="144.96001"
         transform="rotate(-28.04)"
         id="rect7387"
         style="stroke-width:0px" />
      <circle
         class="cls-9"
         cx="682.23291"
         cy="202.45564"
         r="16.92"
         id="circle7389"
         style="opacity:0.2;stroke-width:0px" />
      <rect
         class="cls-9"
         x="536.88947"
         y="484.87738"
         width="252.14999"
         height="29.059999"
         transform="rotate(-28.04)"
         id="rect7391"
         style="opacity:0.2;stroke-width:0px" />
      <rect
         class="cls-9"
         x="490.04642"
         y="532.67169"
         width="299"
         height="29.059999"
         transform="rotate(-28.04)"
         id="rect7393"
         style="opacity:0.2;stroke-width:0px" />
      <circle
         class="cls-9"
         cx="969.6629"
         cy="32.105663"
         r="16.92"
         id="circle7395"
         style="opacity:0.2;stroke-width:0px" />
      <rect
         class="cls-9"
         x="870.66473"
         y="474.14444"
         width="117.37"
         height="20.049999"
         transform="rotate(-28.04)"
         id="rect7397"
         style="opacity:0.2;stroke-width:0px" />
      <line
         class="cls-2"
         x1="959.86292"
         y1="83.965652"
         x2="1134.413"
         y2="-9.0043507"
         id="line7399"
         style="fill:none;stroke:#231f20;stroke-width:3px;stroke-miterlimit:10" />
      <rect
         class="cls-4"
         x="1024.0033"
         y="302.50305"
         width="164.22"
         height="123.52"
         transform="rotate(-28.04)"
         id="rect7401"
         style="fill:none;stroke:#ffffff;stroke-width:2px;stroke-miterlimit:10" />
      <rect
         class="cls-9"
         x="1024.006"
         y="446.81186"
         width="164.22"
         height="20.049999"
         transform="rotate(-28.04)"
         id="rect7403"
         style="opacity:0.2;stroke-width:0px" />
      <rect
         class="cls-9"
         x="1023.9946"
         y="479.60474"
         width="164.22"
         height="20.049999"
         transform="rotate(-28.04)"
         id="rect7405"
         style="opacity:0.2;stroke-width:0px" />
      <rect
         class="cls-9"
         x="1023.9894"
         y="545.18341"
         width="109.88"
         height="20.049999"
         transform="rotate(-28.04)"
         id="rect7407"
         style="opacity:0.2;stroke-width:0px" />
      <circle
         class="cls-9"
         cx="1214.6029"
         cy="66.155655"
         r="16.92"
         id="circle7409"
         style="opacity:0.2;stroke-width:0px" />
      <rect
         class="cls-9"
         x="1070.8472"
         y="619.36218"
         width="117.37"
         height="20.049999"
         transform="rotate(-28.04)"
         id="rect7411"
         style="opacity:0.2;stroke-width:0px" />
      <rect
         class="cls-7"
         x="1023.9915"
         y="668.24756"
         width="164.22"
         height="131.89999"
         transform="rotate(-28.04)"
         id="rect7413"
         style="stroke-width:0px" />
      <rect
         class="cls-9"
         x="1023.9979"
         y="512.39874"
         width="164.22"
         height="20.049999"
         transform="rotate(-28.04)"
         id="rect7415"
         style="opacity:0.2;stroke-width:0px" />
      <rect
         class="cls-4"
         x="824.4856"
         y="544.48322"
         width="164.22"
         height="123.52"
         transform="rotate(-28.04)"
         id="rect7417"
         style="fill:none;stroke:#ffffff;stroke-width:2px;stroke-miterlimit:10" />
      <rect
         class="cls-9"
         x="824.48785"
         y="718.88947"
         width="164.22"
         height="20.049999"
         transform="rotate(-28.04)"
         id="rect7419"
         style="opacity:0.2;stroke-width:0px" />
      <rect
         class="cls-9"
         x="824.48541"
         y="751.68701"
         width="164.22"
         height="20.049999"
         transform="rotate(-28.04)"
         id="rect7421"
         style="opacity:0.2;stroke-width:0px" />
      <rect
         class="cls-9"
         x="824.48151"
         y="882.8595"
         width="78.400002"
         height="20.049999"
         transform="rotate(-28.04)"
         id="rect7423"
         style="opacity:0.2;stroke-width:0px" />
      <rect
         class="cls-9"
         x="824.48871"
         y="784.47107"
         width="164.22"
         height="20.049999"
         transform="rotate(-28.04)"
         id="rect7425"
         style="opacity:0.2;stroke-width:0px" />
      <rect
         class="cls-9"
         x="824.47742"
         y="817.27386"
         width="164.22"
         height="20.049999"
         transform="rotate(-28.04)"
         id="rect7427"
         style="opacity:0.2;stroke-width:0px" />
      <rect
         class="cls-9"
         x="824.48956"
         y="850.06262"
         width="164.22"
         height="20.049999"
         transform="rotate(-28.04)"
         id="rect7429"
         style="opacity:0.2;stroke-width:0px" />
      <rect
         class="cls-4"
         x="1023.9968"
         y="850.06079"
         width="164.22"
         height="123.52"
         transform="rotate(-28.04)"
         id="rect7431"
         style="fill:none;stroke:#ffffff;stroke-width:2px;stroke-miterlimit:10" />
      <rect
         class="cls-4"
         x="489.96692"
         y="856.85632"
         width="299.09"
         height="156.61"
         transform="rotate(-28.04)"
         id="rect7433"
         style="fill:none;stroke:#ffffff;stroke-width:2px;stroke-miterlimit:10" />
      <circle
         class="cls-9"
         cx="833.24292"
         cy="486.06567"
         r="16.92"
         id="circle7435"
         style="opacity:0.2;stroke-width:0px" />
      <rect
         class="cls-9"
         x="536.8432"
         y="806.1936"
         width="252.14999"
         height="29.059999"
         transform="rotate(-28.04)"
         id="rect7437"
         style="opacity:0.2;stroke-width:0px" />
      <rect
         class="cls-1"
         x="405.34131"
         y="330.09293"
         width="52.939999"
         height="52.939999"
         transform="rotate(-28.04)"
         id="rect7439"
         style="fill:none;stroke:#ffffff;stroke-width:3px;stroke-miterlimit:10" />
      <rect
         class="cls-1"
         x="405.34427"
         y="410.35373"
         width="52.939999"
         height="52.939999"
         transform="rotate(-28.04)"
         id="rect7441"
         style="fill:none;stroke:#ffffff;stroke-width:3px;stroke-miterlimit:10" />
      <rect
         class="cls-1"
         x="405.34726"
         y="490.60452"
         width="52.939999"
         height="52.939999"
         transform="rotate(-28.04)"
         id="rect7443"
         style="fill:none;stroke:#ffffff;stroke-width:3px;stroke-miterlimit:10" />
      <rect
         class="cls-1"
         x="405.34671"
         y="570.86945"
         width="52.939999"
         height="52.939999"
         transform="rotate(-28.04)"
         id="rect7445"
         style="fill:none;stroke:#ffffff;stroke-width:3px;stroke-miterlimit:10" />
      <rect
         class="cls-1"
         x="405.3497"
         y="651.13025"
         width="52.939999"
         height="52.939999"
         transform="rotate(-28.04)"
         id="rect7447"
         style="fill:none;stroke:#ffffff;stroke-width:3px;stroke-miterlimit:10" />
      <rect
         class="cls-1"
         x="405.34796"
         y="731.3999"
         width="52.939999"
         height="52.939999"
         transform="rotate(-28.04)"
         id="rect7449"
         style="fill:none;stroke:#ffffff;stroke-width:3px;stroke-miterlimit:10" />
      <text
         class="cls-10"
         transform="rotate(-28.04)"
         id="text7453"
         style="font-size:59.77px;font-family:MyriadPro-Regular, 'Myriad Pro'"
         x="413.40652"
         y="314.49908"><tspan
           x="413.40652"
           y="314.49908"
           id="tspan7451">...</tspan></text>
      <polygon
         class="cls-5"
         points="422.97,648.61 448.77,607.25 400.05,605.58 "
         id="polygon7455"
         style="fill:#ffd506;stroke:#231f20;stroke-miterlimit:10"
         transform="translate(462.26292,-312.02434)" />
      <polygon
         class="cls-8"
         points="510.5,246.37 536.31,205.01 487.58,203.35 "
         id="polygon7457"
         style="fill:#ffd506;stroke-width:0px"
         transform="translate(462.26292,-312.02434)" />
      <polygon
         class="cls-8"
         points="854.22,470.81 880.03,429.45 831.31,427.78 "
         id="polygon7459"
         style="fill:#ffd506;stroke-width:0px"
         transform="translate(462.26292,-312.02434)" />
      <path
         class="cls-7"
         d="m 529.47292,109.18566 c 1.07,-0.57 2.02,-1.12 3,-1.58 0.81,-0.38 0.98,-0.84 0.52,-1.63 -0.57,-0.97 -1.07,-1.99 -1.65,-3.07 0.52,-0.33 0.9,-0.54 1.25,-0.79 0.86,-0.61 1.34,-0.34 1.83,0.56 1.63,3.01 1.66,2.99 4.64,1.41 3.55,-1.89 7.09,-3.79 10.64,-5.66 1.84,-0.97 3.93,-1.67 3.82,-4.44 0.7,0.18 1.16,0.31 1.57,0.42 0.05,0.2 0.13,0.31 0.09,0.38 -1,2.01 -0.33,3.72 0.71,5.54 2.21,3.88 4.23,7.86 6.33,11.8 0.3,0.56 0.6,1.12 0.98,1.83 l 4.12,-2.19 1.32,2.47 -4.13,2.2 c 0.64,1.2 1.17,2.25 1.75,3.28 0.65,1.15 -0.32,1.38 -0.99,1.69 -0.66,0.3 -1.4,1.29 -2.09,0.01 -0.05,-0.09 -0.09,-0.18 -0.14,-0.26 q -1.76,-3.01 -4.91,-1.33 c -3.68,1.96 -7.34,3.96 -11.05,5.85 -1.16,0.59 -1.86,1.35 -2.12,2.63 -0.24,1.21 -0.6,2.39 -0.93,3.68 -0.75,-0.25 -1.2,-0.4 -1.95,-0.66 0.49,-1.39 0.98,-2.68 1.38,-4 0.14,-0.48 0.23,-1.14 0.02,-1.55 -2.68,-5.14 -5.43,-10.26 -8.23,-15.52 l -4.06,2.16 -1.71,-3.21 z m 15.11,12.59 c 2.02,-6.66 4.04,-13.32 6.02,-19.84 -3.83,2.04 -7.95,4.21 -12.03,6.45 -0.29,0.16 -0.56,0.95 -0.41,1.23 2.13,4.13 4.34,8.23 6.42,12.15 z m 8.57,-18.99 c -2.01,6.62 -3.99,13.12 -5.94,19.55 l 12.74,-6.79 z"
         id="path7461"
         style="stroke-width:0px" />
      <path
         class="cls-7"
         d="m 588.72292,162.49566 7.47,14.03 -2.23,1.19 c -2.48,-4.66 -4.94,-9.28 -7.47,-14.03 z"
         id="path7463"
         style="stroke-width:0px" />
      <path
         class="cls-7"
         d="m 580.06292,191.80566 c -1.83,1.02 -4,0.39 -4.99,-1.45 -0.95,-1.75 -0.34,-3.93 1.38,-4.92 1.75,-1.02 4.05,-0.4 5.06,1.36 1.01,1.76 0.37,4.01 -1.45,5.01 z"
         id="path7465"
         style="stroke-width:0px" />
      <path
         class="cls-7"
         d="m 588.36292,178.29566 c 1.01,1.83 0.38,3.99 -1.46,4.98 -1.83,0.98 -4.05,0.33 -5,-1.47 -0.92,-1.73 -0.27,-3.92 1.45,-4.92 1.76,-1.02 4.02,-0.39 5.02,1.41 z"
         id="path7467"
         style="stroke-width:0px" />
      <path
         class="cls-7"
         d="m 600.80292,180.18566 c 0.99,1.83 0.36,4.03 -1.45,5 -1.79,0.96 -4.05,0.26 -4.99,-1.55 -0.92,-1.77 -0.28,-3.91 1.46,-4.89 1.82,-1.02 3.98,-0.4 4.98,1.44 z"
         id="path7469"
         style="stroke-width:0px" />
      <path
         class="cls-7"
         d="m 595.48292,196.56566 -2.38,1.27 c -0.89,-1.68 -1.75,-3.29 -2.61,-4.89 -1.18,-2.21 -2.33,-4.43 -3.54,-6.62 -0.46,-0.82 -0.13,-1.21 0.58,-1.53 0.62,-0.28 1.22,-0.88 1.77,0.16 2.02,3.83 4.07,7.65 6.18,11.61 z"
         id="path7471"
         style="stroke-width:0px" />
      <path
         class="cls-7"
         d="m 576.86292,183.26566 -2.2,1.17 c -2,-3.76 -3.98,-7.47 -6.01,-11.28 l 2.2,-1.17 z"
         id="path7473"
         style="stroke-width:0px" />
      <path
         class="cls-7"
         d="m 586.55292,201.25566 q -2.23,1.55 -3.32,-0.48 c -1.01,-1.89 -1.97,-3.8 -3.03,-5.66 -0.51,-0.9 -0.27,-1.34 0.58,-1.79 0.82,-0.43 1.34,-0.48 1.82,0.47 1.26,2.49 2.61,4.94 3.95,7.45 z"
         id="path7475"
         style="stroke-width:0px" />
      <path
         class="cls-7"
         d="m 577.53292,168.39566 2.18,-1.16 3.97,7.45 -2.18,1.16 z"
         id="path7477"
         style="stroke-width:0px" />
      <path
         class="cls-7"
         d="m 602.11292,193.01566 -3.02,-5.66 2.21,-1.17 3.02,5.66 z"
         id="path7479"
         style="stroke-width:0px" />
      <path
         class="cls-7"
         d="m 638.60292,246.25566 c 4.24,8.01 1.17,17.95 -6.84,22.17 -8.03,4.23 -17.98,1.16 -22.19,-6.84 -4.23,-8.03 -1.16,-17.92 6.88,-22.18 8.03,-4.25 17.9,-1.21 22.16,6.85 z m -2.12,1.06 c -3.64,-6.82 -12.14,-9.42 -18.95,-5.8 -6.81,3.62 -9.45,12.17 -5.86,18.96 3.63,6.86 12.23,9.49 19.08,5.82 6.79,-3.64 9.37,-12.16 5.74,-18.98 z"
         id="path7481"
         style="stroke-width:0px" />
      <path
         class="cls-7"
         d="m 618.87292,243.65566 c 5.16,-3.13 12.42,-0.89 15.46,4.7 3.06,5.6 0.94,12.92 -4.63,15.64 -3.59,-6.74 -7.18,-13.49 -10.83,-20.34 z"
         id="path7483"
         style="stroke-width:0px" />
      <path
         class="cls-7"
         d="m 744.26292,465.91566 c -1.48,-0.74 -1.9,-1.61 -1.47,-3.25 0.89,-3.42 -0.77,-6.99 -3.76,-8.83 -2.98,-1.83 -6.82,-1.68 -9.51,0.38 -2.95,2.26 -4.25,5.93 -2.95,9.41 0.6,1.61 0.22,2.49 -1.02,3.33 -2.96,-3.6 -2.52,-9.58 0.99,-13.36 3.76,-4.06 9.98,-4.68 14.44,-1.44 4.34,3.15 5.78,9.12 3.28,13.78 z"
         id="path7485"
         style="stroke-width:0px" />
      <path
         class="cls-7"
         d="m 735.14292,473.14566 c 1.31,-0.54 2.25,-0.49 3.2,0.92 2,2.97 5.94,4.07 9.43,2.95 3.33,-1.08 5.68,-4.29 5.77,-7.9 0.09,-3.51 -2.04,-6.7 -5.36,-8.01 q -1.78,-0.7 -1.7,-2.79 c 4.55,-0.05 9.05,4.5 9.5,9.62 0.5,5.71 -3.42,10.85 -9.02,11.81 -5.15,0.88 -10.64,-2.19 -11.8,-6.61 z"
         id="path7487"
         style="stroke-width:0px" />
      <path
         class="cls-7"
         d="m 743.62292,481.06566 c -2.65,3.76 -8.15,5.08 -12.65,3.13 -4.75,-2.06 -7.39,-7.14 -6.37,-12.23 0.95,-4.72 5.19,-8.51 9.64,-8.55 -0.33,1.33 -0.68,2.39 -2.22,3 -4.59,1.81 -6.48,7.29 -4.21,11.68 2.21,4.28 7.84,5.93 11.87,3.28 1.37,-0.9 2.49,-0.95 3.93,-0.31 z"
         id="path7489"
         style="stroke-width:0px" />
      <path
         class="cls-7"
         d="m 738.34292,466.17566 c 0.83,-2.24 1.18,-2.38 2.97,-1.18 3.29,2.22 4.95,5.34 4.96,9.31 0,2.19 -0.22,2.34 -2.62,1.87 0.67,-4.55 -1.01,-7.94 -5.32,-10 z"
         id="path7491"
         style="stroke-width:0px" />
      <path
         class="cls-7"
         d="m 741.52292,458.77566 c 0.72,1.38 0.59,2.27 -0.9,3.03 -1.91,0.97 -3.19,2.7 -3.64,4.79 -0.35,1.61 -1.16,2.02 -2.61,1.73 -0.56,-3.66 3.06,-8.54 7.15,-9.55 z"
         id="path7493"
         style="stroke-width:0px" />
      <path
         class="cls-7"
         d="m 729.08292,470.34566 c 0.6,-1.16 1.16,-2.04 2.81,-1.35 2.04,0.85 4.23,0.76 6.16,-0.33 1.48,-0.84 2.27,-0.35 2.99,0.89 -2.73,2.83 -8.41,3.21 -11.97,0.79 z"
         id="path7495"
         style="stroke-width:0px" />
      <path
         class="cls-7"
         d="m 704.34292,393.71566 c -0.55,1.92 -1.06,3.72 -1.6,5.62 -1.16,-0.59 -1.86,-0.17 -2.66,0.76 -3.37,3.96 -9.12,4.94 -13.58,2.46 -4.49,-2.5 -6.67,-7.89 -5.19,-12.81 1.47,-4.91 6.31,-8.2 11.42,-7.77 5.14,0.43 9.27,4.38 9.98,9.56 q 0.22,1.61 1.62,2.19 z m -8.39,6.81 c 4.22,-2.28 5.79,-7.57 3.49,-11.77 -2.25,-4.12 -7.54,-5.7 -11.68,-3.5 -4.22,2.24 -5.82,7.54 -3.57,11.76 2.26,4.23 7.51,5.8 11.75,3.51 z"
         id="path7497"
         style="stroke-width:0px" />
      <path
         class="cls-7"
         d="m 706.44292,394.24566 c 4.76,1.34 9.71,2.67 14.12,5.4 1.06,0.66 2.73,1.35 2.18,2.78 -0.25,0.65 -2.18,0.93 -3.33,0.9 -5.19,-0.13 -10.04,-1.81 -14.93,-3.41 0.65,-1.88 1.27,-3.69 1.96,-5.67 z"
         id="path7499"
         style="stroke-width:0px" />
      <path
         class="cls-7"
         d="m 689.26292,388.09566 c 1.19,-0.86 2.03,-0.56 2.53,0.68 0.52,1.3 1.23,1.69 2.46,0.79 1.09,-0.8 1.83,-0.52 2.47,0.7 0.64,1.21 0.68,2.07 -0.74,2.59 -1.26,0.46 -1.64,1.14 -0.77,2.33 0.83,1.13 0.58,1.93 -0.72,2.61 -1.23,0.64 -2.09,0.63 -2.58,-0.77 -0.52,-1.48 -1.38,-1.45 -2.49,-0.67 -1.18,0.83 -1.83,0.3 -2.44,-0.82 -0.63,-1.16 -0.6,-1.98 0.72,-2.48 1.33,-0.5 1.66,-1.24 0.79,-2.47 -0.83,-1.17 -0.56,-2.07 0.78,-2.49 z"
         id="path7501"
         style="stroke-width:0px" />
      <path
         class="cls-7"
         d="m 657.35292,342.97566 c -0.64,-0.27 -1.34,-0.56 -1.75,-0.73 3.53,-11.74 7.05,-23.46 10.64,-35.41 0.5,0.13 1.27,0.33 1.87,0.48 -3.56,11.82 -7.1,23.54 -10.75,35.67 z"
         id="path7503"
         style="stroke-width:0px" />
      <path
         class="cls-7"
         d="m 662.18292,314.00566 c -0.08,1.49 -0.58,2.44 -2.15,3.04 -6.55,2.48 -10.46,7.38 -12.38,14.02 -0.31,1.08 -0.14,1.71 1.02,1.94 2.43,0.5 4.86,1.02 7.45,1.57 -0.18,0.56 -0.4,1.23 -0.68,2.08 -3.61,-0.13 -6.99,-0.9 -10.18,-2.41 -0.29,-0.14 -0.53,-0.76 -0.52,-1.14 0.38,-8.35 8.59,-17.65 16.86,-19.14 0.17,-0.03 0.35,0.02 0.57,0.04 z"
         id="path7505"
         style="stroke-width:0px" />
      <path
         class="cls-7"
         d="m 678.84292,315.39566 c -1.72,10.19 -10.03,19.78 -17.56,20.5 0.1,-1.53 0.59,-2.58 2.19,-3.24 6.85,-2.82 10.32,-8.44 12.51,-15.55 -2.91,-0.54 -5.64,-1.04 -8.45,-1.56 -0.09,-1.57 0.52,-2.34 2.29,-1.96 3.01,0.64 6.03,1.21 9.03,1.81 z"
         id="path7507"
         style="stroke-width:0px" />
      <path
         class="cls-7"
         d="m 663.03292,331.06566 c 1.08,-3.52 2.18,-7.11 3.26,-10.64 1.56,1.01 2.4,3.5 1.83,5.91 -0.62,2.6 -2.67,4.45 -5.08,4.72 z"
         id="path7509"
         style="stroke-width:0px" />
      <path
         class="cls-7"
         d="m 658.44292,326.15566 c -0.3,1.04 -0.62,2.11 -1,3.42 -1.72,-1.59 -2.29,-3.41 -2.14,-5.65 1.12,0.8 2.1,1.5 3.14,2.24 z"
         id="path7511"
         style="stroke-width:0px" />
    </g>
  </g>
</svg>
