<?xml version="1.0" standalone="no"?>
<!DOCTYPE svg PUBLIC "-//W3C//DTD SVG 20010904//EN"
 "http://www.w3.org/TR/2001/REC-SVG-20010904/DTD/svg10.dtd">
<svg version="1.0" xmlns="http://www.w3.org/2000/svg"
 width="768.000000pt" height="768.000000pt" viewBox="0 0 768.000000 768.000000"
 preserveAspectRatio="xMidYMid meet">
<metadata>
Created by potrace 1.14, written by Peter Selinger 2001-2017
</metadata>
<g transform="translate(0.000000,768.000000) scale(0.100000,-0.100000)"
fill="#000000" stroke="none">
<path d="M0 3840 l0 -3550 1055 0 1055 0 0 525 0 525 -22 1 c-13 1 -26 1 -29
1 -13 -2 -262 -4 -309 -3 -8 1 -62 1 -120 0 -58 0 -112 0 -120 0 -8 1 -81 1
-162 1 -147 0 -148 0 -149 22 -1 13 0 28 1 33 1 6 1 33 0 60 -1 28 -1 82 -1
120 1 39 1 93 0 120 -1 28 -1 82 0 120 1 39 1 93 0 120 0 28 0 82 0 120 1 39
1 93 0 120 -1 45 0 174 2 200 0 6 0 51 0 100 -1 100 -1 103 0 195 0 36 0 72 0
80 -1 8 -1 44 0 80 0 36 0 72 0 80 -1 8 -1 44 0 80 0 36 0 72 0 80 -1 8 -1 44
0 80 0 36 0 72 0 80 -1 8 -1 44 0 80 0 36 0 72 0 80 -1 8 -1 44 0 80 0 36 0
72 0 80 -1 8 -1 44 0 80 0 36 0 70 0 75 0 6 0 84 0 175 -1 91 -1 188 -2 215
-1 28 -1 82 0 120 1 39 1 93 0 120 0 28 0 82 0 120 1 39 1 93 0 120 -1 28 -1
82 0 120 1 39 1 93 0 120 0 28 0 82 0 120 1 39 1 93 0 120 -1 28 -1 82 0 120
1 39 1 93 0 120 0 28 0 82 0 120 1 39 1 93 0 120 -1 28 -1 82 0 120 1 39 1 93
0 120 0 28 0 82 0 120 1 39 1 93 0 120 -1 28 -1 82 0 120 2 108 0 168 -5 176
-2 4 0 10 6 14 5 3 212 6 460 6 l450 -1 0 530 0 530 -1055 0 -1055 0 0 -3550z"/>
<path d="M5570 6860 l0 -530 451 1 c248 0 454 -2 457 -5 4 -5 5 -103 0 -135 0
-3 1 -10 2 -16 1 -5 1 -39 1 -75 -1 -36 -1 -87 0 -115 1 -27 1 -81 0 -120 -1
-38 -1 -92 0 -120 0 -27 0 -81 0 -120 -1 -38 -1 -92 0 -120 1 -42 0 -167 -2
-200 -1 -17 1 -388 2 -440 1 -27 1 -81 0 -120 -1 -38 -1 -92 0 -120 0 -27 0
-81 0 -120 -1 -38 -1 -92 0 -120 1 -27 1 -81 0 -120 -1 -38 -1 -92 0 -120 0
-27 0 -81 0 -120 -1 -38 -1 -92 0 -120 1 -27 1 -81 0 -120 -1 -38 -1 -92 0
-120 0 -27 0 -81 0 -120 -1 -38 -1 -92 0 -120 1 -27 1 -81 0 -120 -1 -38 -1
-92 0 -120 0 -27 0 -81 0 -120 -1 -38 -1 -92 0 -120 1 -40 0 -144 -2 -200 0
-5 1 -73 1 -150 1 -77 1 -144 0 -150 -1 -5 -1 -14 0 -20 1 -5 1 -41 1 -80 -1
-38 -1 -92 0 -120 0 -27 0 -81 0 -120 -1 -38 -1 -92 0 -120 1 -27 1 -81 0
-120 -1 -38 -1 -92 0 -120 1 -45 0 -157 -2 -195 0 -8 1 -54 2 -101 1 -48 -2
-92 -6 -99 -4 -7 -21 -10 -41 -8 -19 2 -34 1 -34 -3 0 -4 -12 -4 -27 0 -32 8
-65 7 -82 -3 -6 -4 -11 -4 -11 1 0 4 -28 7 -62 5 -35 -2 -72 -3 -83 -2 -11 1
-27 1 -35 0 -20 -1 -61 1 -85 4 -11 1 -28 -2 -37 -6 -10 -5 -18 -5 -18 -1 0 4
-28 7 -62 5 -35 -2 -72 -3 -83 -2 -11 1 -27 1 -35 0 -20 -1 -61 1 -85 4 -11 1
-28 -2 -37 -6 -10 -5 -18 -5 -18 0 0 4 -16 6 -35 4 l-35 -4 0 -524 0 -524
1055 0 1055 0 0 3550 0 3550 -1055 0 -1055 0 0 -530z"/>
<path d="M3746 5593 c-1 -2 -31 -5 -67 -8 -74 -7 -113 -12 -151 -19 -16 -3
-38 -8 -50 -10 -13 -3 -33 -7 -45 -10 -13 -4 -33 -8 -45 -11 -12 -2 -44 -12
-72 -22 -28 -9 -54 -17 -58 -18 -3 0 -10 -3 -14 -7 -4 -5 -14 -8 -23 -8 -26 0
-234 -102 -309 -151 -24 -16 -45 -29 -48 -29 -3 0 -12 -6 -19 -12 -33 -30 -45
-38 -54 -38 -5 0 -11 -3 -13 -7 -1 -5 -25 -26 -53 -48 -53 -42 -192 -179 -235
-230 -42 -50 -110 -144 -110 -151 0 -3 -13 -23 -29 -43 -45 -57 -169 -318
-186 -391 -2 -8 -13 -45 -24 -82 -11 -38 -17 -68 -14 -68 3 0 0 -6 -6 -14 -6
-8 -11 -18 -9 -22 1 -8 -4 -47 -18 -119 -6 -33 -19 -272 -15 -285 1 -3 4 -43
6 -90 3 -47 9 -107 15 -135 5 -27 12 -65 15 -83 3 -18 12 -58 21 -90 8 -31 16
-61 18 -67 5 -21 39 -120 45 -130 3 -5 6 -15 7 -20 3 -20 103 -215 140 -272
101 -158 251 -327 384 -434 30 -24 57 -46 60 -49 11 -13 102 -70 111 -70 5 0
9 -3 9 -8 0 -4 13 -13 30 -20 16 -7 44 -23 62 -35 82 -56 326 -144 486 -177
211 -42 451 -46 652 -10 102 19 109 20 135 30 14 5 25 8 25 5 0 -2 44 12 98
31 53 20 102 36 107 38 6 1 29 11 53 24 23 12 42 18 42 14 0 -4 4 -2 8 3 4 6
32 23 62 39 69 36 232 144 285 188 59 49 195 185 246 246 54 65 179 252 179
269 0 6 3 13 8 15 8 3 82 153 82 166 0 5 6 22 14 38 15 30 65 193 70 229 2 11
6 27 9 35 5 13 16 78 23 135 2 20 16 202 16 220 1 29 -13 224 -17 248 -3 15
-7 39 -10 55 -3 15 -8 43 -11 62 -8 46 -9 48 -23 100 -8 25 -14 50 -16 55 -1
6 -5 17 -8 25 -3 8 -14 40 -25 70 -11 30 -29 76 -41 103 -11 26 -19 49 -18 51
1 1 -3 9 -9 17 -7 8 -29 45 -49 83 -38 71 -116 188 -144 218 -9 9 -27 31 -41
49 -33 45 -186 197 -232 231 -20 15 -42 33 -50 40 -14 14 -126 88 -193 129
-34 21 -179 90 -250 119 -25 11 -126 43 -142 46 -6 1 -27 7 -45 12 -18 6 -46
13 -63 16 -16 3 -43 8 -60 11 -40 9 -67 13 -148 21 -67 6 -256 11 -261 7z"/>
</g>
</svg>
