<?xml version="1.0" standalone="no"?>
<!DOCTYPE svg PUBLIC "-//W3C//DTD SVG 20010904//EN"
 "http://www.w3.org/TR/2001/REC-SVG-20010904/DTD/svg10.dtd">
<svg version="1.0" xmlns="http://www.w3.org/2000/svg"
 width="315.000000pt" height="315.000000pt" viewBox="0 0 315.000000 315.000000"
 preserveAspectRatio="xMidYMid meet">
<metadata>
Created by potrace 1.14, written by Peter Selinger 2001-2017
</metadata>
<g transform="translate(0.000000,315.000000) scale(0.100000,-0.100000)"
fill="#000000" stroke="none">
<path d="M1394 2755 c-472 -87 -838 -417 -963 -867 -112 -404 -16 -827 257
-1138 231 -265 545 -407 897 -408 333 -1 612 115 850 353 177 177 279 365 335
620 16 75 19 119 16 260 -2 94 -7 184 -10 200 -21 94 -41 160 -73 239 -142
358 -461 634 -833 722 -36 9 -74 18 -85 21 -47 12 -323 10 -391 -2z m372 -30
c18 -6 20 -14 19 -97 -1 -76 -4 -93 -20 -104 -29 -22 -338 -20 -356 2 -15 18
-21 159 -7 186 5 11 24 19 51 21 55 6 286 0 313 -8z m-777 -288 c25 -26 46
-56 48 -66 4 -27 -229 -261 -260 -261 -5 0 -40 30 -78 67 l-69 66 47 56 c59
69 113 124 178 178 56 48 49 50 134 -40z m1443 -61 c31 -32 69 -76 84 -97 l27
-39 -65 -65 c-36 -36 -72 -65 -81 -65 -14 0 -153 130 -230 217 -37 41 -32 57
45 133 l61 59 51 -42 c28 -23 76 -68 108 -101z m-672 34 c212 -46 389 -159
519 -333 120 -160 170 -313 170 -520 0 -186 -43 -333 -139 -480 -375 -571
-1223 -505 -1505 117 -58 128 -78 223 -78 371 1 349 224 674 554 806 132 52
339 69 479 39z m-1132 -674 c10 -10 14 -55 14 -181 1 -193 0 -194 -84 -196
-26 0 -65 -1 -85 -1 -36 -1 -38 0 -45 38 -10 55 -12 217 -4 291 6 46 12 63 24
65 40 8 168 -4 180 -16z m2117 3 c11 -11 14 -363 3 -374 -4 -4 -46 -7 -95 -6
-121 1 -119 -4 -118 198 1 179 4 190 63 195 58 5 136 -2 147 -13z m-1831 -855
c64 -64 119 -126 121 -138 4 -16 -10 -37 -61 -89 l-66 -67 -41 32 c-86 68
-227 220 -227 245 0 16 127 133 143 133 9 0 68 -52 131 -116z m1570 47 l60
-60 -27 -38 c-33 -47 -126 -144 -194 -201 l-51 -42 -66 67 c-36 37 -66 76 -66
86 0 11 50 69 119 138 97 97 123 118 142 114 13 -3 50 -32 83 -64z m-714 -346
c12 -14 22 -165 13 -191 -2 -5 -23 -12 -46 -14 -57 -6 -275 -5 -312 2 l-30 5
-1 84 c-1 133 -7 129 195 129 139 0 171 -3 181 -15z"/>
<path d="M1420 2380 c-388 -81 -661 -419 -662 -820 -1 -225 66 -402 218 -577
153 -176 394 -276 644 -268 52 2 115 8 140 14 348 81 593 344 655 701 10 56 7
213 -5 280 -13 69 -52 185 -80 235 -10 18 -24 43 -32 56 -40 71 -155 194 -233
248 -82 58 -224 119 -315 136 -81 15 -245 13 -330 -5z m356 -90 c248 -64 444
-250 530 -505 36 -109 43 -292 15 -405 -58 -228 -197 -402 -404 -506 -192 -97
-441 -102 -633 -13 -330 154 -511 518 -429 863 100 418 511 671 921 566z"/>
<path d="M1222 1972 c-70 -68 -109 -130 -107 -167 4 -72 66 -108 138 -80 25
10 21 -6 -14 -48 l-30 -37 90 0 91 0 -37 51 -37 51 30 -15 c16 -8 42 -13 57
-11 34 3 77 29 78 47 0 6 2 22 5 35 2 12 -3 38 -10 57 -16 38 -154 185 -173
185 -7 0 -44 -31 -81 -68z"/>
<path d="M1700 2013 c-39 -11 -64 -31 -76 -59 -26 -62 5 -123 113 -232 l84
-83 27 20 c54 38 153 151 173 197 33 73 14 127 -52 153 -38 14 -100 -3 -121
-33 l-18 -24 -29 29 c-16 16 -35 29 -43 30 -7 0 -20 2 -28 3 -8 2 -22 1 -30
-1z"/>
<path d="M1255 1476 c-16 -19 -61 -68 -98 -110 -43 -47 -66 -80 -61 -87 4 -7
29 -35 55 -63 26 -28 68 -73 94 -101 l47 -50 98 105 c55 58 99 111 100 118 0
7 -6 19 -12 26 -7 7 -51 54 -98 104 -46 51 -87 92 -90 92 -3 0 -18 -16 -35
-34z"/>
<path d="M1813 1493 c-36 -7 -73 -59 -73 -104 0 -31 -4 -39 -19 -39 -21 0 -67
-43 -77 -72 -9 -29 4 -83 25 -102 30 -27 74 -35 110 -20 35 15 35 12 -7 -43
l-24 -33 86 0 c47 0 86 3 86 6 0 3 -11 20 -25 38 -28 37 -33 55 -10 36 39 -32
123 -2 145 51 24 56 -25 139 -82 139 -10 0 -13 9 -11 28 11 70 -53 128 -124
115z"/>
</g>
</svg>
