<?xml version="1.0" encoding="UTF-8"?>
<svg id="Layer_1" data-name="Layer 1" xmlns="http://www.w3.org/2000/svg" xmlns:xlink="http://www.w3.org/1999/xlink" viewBox="0 0 1000 630">
  <defs>
    <style>
      .cls-1 {
        clip-path: url(#clippath);
      }

      .cls-2, .cls-3, .cls-4 {
        fill: none;
      }

      .cls-2, .cls-5, .cls-6, .cls-7, .cls-8 {
        stroke-width: 0px;
      }

      .cls-3 {
        stroke-width: 5px;
      }

      .cls-3, .cls-4 {
        stroke: #fff;
        stroke-miterlimit: 10;
      }

      .cls-4 {
        stroke-width: 2px;
      }

      .cls-5 {
        fill-rule: evenodd;
      }

      .cls-5, .cls-6 {
        fill: #3131ff;
      }

      .cls-7 {
        fill: #1e1e1e;
      }

      .cls-8 {
        fill: #fff;
      }
    </style>
    <clipPath id="clippath">
      <rect class="cls-2" width="1000" height="630"/>
    </clipPath>
  </defs>
  <g class="cls-1">
    <polygon class="cls-6" points="1098.92 697.68 -8.97 697.68 -8.97 -26.76 1103.37 -26.76 1098.92 697.68"/>
    <rect class="cls-7" x="-258.33" y="428.96" width="443.25" height="219.68" rx="26.66" ry="26.66" transform="translate(-217.59 29.95) rotate(-23.47)"/>
    <rect class="cls-3" x="-234.19" y="394.98" width="443.25" height="219.68" rx="26.66" ry="26.66" transform="translate(-202.06 36.75) rotate(-23.47)"/>
    <rect class="cls-7" x="240.11" y="208.17" width="443.25" height="219.68" rx="26.66" ry="26.66" transform="translate(-88.44 210.17) rotate(-23.47)"/>
    <rect class="cls-3" x="265.39" y="174.21" width="443.25" height="219.68" rx="26.66" ry="26.66" transform="translate(-72.83 217.43) rotate(-23.47)"/>
    <circle class="cls-4" cx="277.11" cy="279.33" r="4.76"/>
    <circle class="cls-4" cx="298.07" cy="270.23" r="4.76"/>
    <circle class="cls-4" cx="319.02" cy="261.13" r="4.76"/>
    <rect class="cls-7" x="736.32" y="-7.24" width="443.25" height="219.68" rx="26.66" ry="26.66" transform="translate(38.37 389.95) rotate(-23.47)"/>
    <rect class="cls-3" x="761.59" y="-41.2" width="443.25" height="219.68" rx="26.66" ry="26.66" transform="translate(53.98 397.2) rotate(-23.47)"/>
    <circle class="cls-4" cx="773.31" cy="63.92" r="4.76"/>
    <circle class="cls-4" cx="794.27" cy="54.82" r="4.76"/>
    <circle class="cls-4" cx="815.23" cy="45.72" r="4.76"/>
    <rect class="cls-7" x="77.03" y="607.95" width="443.25" height="219.68" rx="26.66" ry="26.66" transform="translate(-261.13 178.29) rotate(-23.47)"/>
    <rect class="cls-3" x="102.3" y="573.99" width="443.25" height="219.68" rx="26.66" ry="26.66" transform="translate(-245.52 185.55) rotate(-23.47)"/>
    <rect class="cls-7" x="564.32" y="396.41" width="443.25" height="219.68" rx="26.66" ry="26.66" transform="translate(-136.59 354.84) rotate(-23.47)"/>
    <rect class="cls-3" x="589.59" y="362.45" width="443.25" height="219.68" rx="26.66" ry="26.66" transform="translate(-120.98 362.1) rotate(-23.47)"/>
    <circle class="cls-4" cx="584.09" cy="475.04" r="4.76"/>
    <circle class="cls-4" cx="605.05" cy="465.95" r="4.76"/>
    <circle class="cls-4" cx="626.01" cy="456.85" r="4.76"/>
    <path class="cls-7" d="M1419.48,668.76l-357.33,155.12c-13.6,5.91-29.42-.34-35.32-13.94l-66.09-152.25c-5.91-13.6.34-29.42,13.94-35.32l361.35-155.39c13.6-5.91,29.42.34,35.32,13.94l62.07,152.52c5.91,13.6-.34,29.42-13.94,35.32Z"/>
    <path class="cls-3" d="M1444.76,634.8l-357.33,155.12c-13.6,5.91-29.42-.34-35.32-13.94l-66.09-152.25c-5.91-13.6.34-29.42,13.94-35.32l361.35-155.39c13.6-5.91,29.42.34,35.32,13.94l62.07,152.52c5.91,13.6-.34,29.42-13.94,35.32Z"/>
    <rect class="cls-7" x="-171.8" y="69.49" width="443.25" height="219.68" rx="26.66" ry="26.66" transform="translate(-67.29 34.67) rotate(-23.47)"/>
    <rect class="cls-3" x="-146.52" y="35.54" width="443.25" height="219.68" rx="26.66" ry="26.66" transform="translate(-51.68 41.93) rotate(-23.47)"/>
    <rect class="cls-7" x="324.41" y="-145.91" width="443.25" height="219.68" rx="26.66" ry="26.66" transform="translate(59.53 214.45) rotate(-23.47)"/>
    <rect class="cls-3" x="349.68" y="-179.87" width="443.25" height="219.68" rx="26.66" ry="26.66" transform="translate(75.14 221.71) rotate(-23.47)"/>
    <g>
      <path class="cls-6" d="M56.58,113.37L-3.83,139.6c-11.91,5.17-17.38,19.03-12.21,30.94l26.23,60.41c5.17,11.91,19.03,17.38,30.94,12.21l60.41-26.23c11.91-5.17,17.38-19.03,12.21-30.94l-26.23-60.41c-5.17-11.91-19.03-17.38-30.94-12.21ZM105.12,189.74c3.09,7.12-.21,15.47-7.33,18.57l-60.41,26.23c-7.12,3.09-15.47-.21-18.57-7.33l-26.23-60.41c-3.09-7.12.21-15.47,7.33-18.57l60.41-26.23c7.12-3.09,15.47.21,18.57,7.33l26.23,60.41Z"/>
      <path class="cls-6" d="M35.74,148.06c-16.66,7.23-24.32,26.66-17.09,43.32,7.23,16.66,26.66,24.32,43.32,17.09,16.66-7.23,24.32-26.66,17.09-43.32-7.23-16.66-26.66-24.32-43.32-17.09ZM58.22,199.84c-11.91,5.17-25.77-.3-30.94-12.21-5.17-11.91.3-25.77,12.21-30.94,11.91-5.17,25.77.3,30.94,12.21s-.3,25.77-12.21,30.94Z"/>
      <circle class="cls-6" cx="65.95" cy="134.95" r="4.7"/>
    </g>
    <path class="cls-5" d="M964.52,48.66c2.08-.47,4.19-.62,6.25-.47.92.07,1.82.19,2.72.37,2.49.5,4.88,1.44,7.04,2.78.78.48,1.52,1.01,2.24,1.59,1.61,1.3,3.04,2.84,4.24,4.61.05.07.1.15.15.22.44.67,1.48.22,1.3-.56-.02-.09-.04-.17-.06-.26-.47-2.08-.62-4.19-.47-6.25.07-.92.19-1.82.37-2.72.5-2.49,1.44-4.88,2.78-7.04.48-.78,1.01-1.52,1.59-2.24,1.3-1.61,2.84-3.04,4.61-4.24.07-.05.15-.1.22-.15.67-.44.22-1.48-.56-1.3-.09.02-.17.04-.26.06-2.08.47-4.19.62-6.25.47-.92-.07-1.82-.19-2.72-.37-2.49-.5-4.88-1.44-7.04-2.78-.78-.48-1.52-1.01-2.24-1.59-1.61-1.3-3.04-2.84-4.24-4.61-.05-.07-.1-.15-.15-.22-.44-.67-1.48-.22-1.3.56.02.09.04.17.06.26.47,2.08.62,4.19.47,6.25-.07.92-.19,1.82-.37,2.72-.5,2.49-1.44,4.88-2.78,7.04-.48.78-1.01,1.52-1.59,2.24-1.3,1.61-2.84,3.04-4.61,4.24-.07.05-.15.1-.22.15-.67.44-.22,1.48.56,1.3.09-.02.17-.04.26-.06ZM981.81,43.66c-1.3-.63-2.64-1.16-4.02-1.59.63-1.3,1.16-2.64,1.59-4.02,1.3.63,2.65,1.16,4.02,1.59-.63,1.3-1.16,2.64-1.59,4.02ZM894.27,93.31c-1.86.1-3.72.36-5.58.78-.14.03-.27.06-.41.09-1.23.29-1.95-1.35-.89-2.05.12-.08.23-.16.35-.23,1.57-1.07,3.03-2.26,4.38-3.54.8-.77,1.57-1.57,2.28-2.41,4.98-5.8,7.86-13.12,8.19-20.75.05-1.1.04-2.21-.02-3.32-.1-1.86-.36-3.72-.78-5.58-.03-.14-.06-.27-.09-.41-.29-1.23,1.35-1.95,2.05-.89.08.12.16.23.23.35,1.07,1.57,2.26,3.03,3.54,4.38.77.8,1.57,1.57,2.41,2.28,5.8,4.98,13.12,7.86,20.75,8.19,1.1.05,2.21.04,3.32-.02,1.86-.1,3.72-.36,5.58-.78.14-.03.27-.06.41-.09,1.23-.29,1.95,1.35.89,2.05-.12.08-.23.16-.35.23-1.57,1.07-3.03,2.26-4.38,3.54-.8.77-1.57,1.57-2.28,2.41-4.98,5.8-7.86,13.12-8.19,20.75-.05,1.1-.04,2.21.02,3.32.1,1.86.36,3.72.78,5.58.03.14.06.27.09.41.29,1.23-1.35,1.95-2.05.89-.08-.12-.16-.23-.23-.35-1.07-1.57-2.26-3.03-3.54-4.38-.77-.8-1.57-1.57-2.41-2.28-5.8-4.98-13.12-7.86-20.75-8.19-1.1-.05-2.21-.04-3.32.02ZM903.17,86.5c5.61.97,10.98,3.08,15.74,6.21.97-5.61,3.08-10.98,6.21-15.74-5.61-.97-10.98-3.08-15.74-6.21-.97,5.61-3.08,10.98-6.21,15.74ZM938.67,132.41c-1.25.18-2.5.41-3.75.68-.19.04-.39.09-.58.13h-.06s-.08.03-.08.03c-.12.03-.26.06-.53.12l-.09.02c-1.98.45-3.12-2.17-1.44-3.31l.08-.05c.23-.15.35-.23.45-.3l.07-.05.05-.03c.17-.11.33-.22.49-.34,1.05-.73,2.07-1.48,3.06-2.27.84-.67,1.67-1.37,2.46-2.08,12.9-11.58,19.62-28.6,18.1-45.87-.09-1.07-.22-2.14-.38-3.2-.18-1.25-.41-2.5-.68-3.75-.04-.19-.09-.39-.13-.58v-.06s-.03-.08-.03-.08c-.03-.12-.06-.25-.12-.52h0s-.02-.1-.02-.1c-.45-1.98,2.17-3.12,3.31-1.44l.05.08c.15.23.23.35.3.45l.05.07.03.05c.11.17.22.33.34.49.73,1.05,1.48,2.07,2.27,3.06.67.84,1.37,1.67,2.08,2.46,11.58,12.9,28.6,19.62,45.87,18.1,1.07-.09,2.14-.22,3.2-.38,1.25-.18,2.5-.41,3.75-.68.19-.04.39-.09.58-.13h.06s.08-.03.08-.03l.13-.03.4-.09.09-.02c1.98-.45,3.12,2.17,1.44,3.31l-.08.05-.26.17-.19.12-.07.05-.05.03c-.17.11-.33.22-.49.34-1.05.73-2.07,1.48-3.06,2.27-.84.67-1.67,1.37-2.46,2.08-12.9,11.58-19.62,28.6-18.1,45.87.09,1.07.22,2.14.38,3.2.18,1.25.41,2.5.68,3.75.04.19.09.39.13.58v.06s.03.08.03.08c.03.12.06.25.12.52l.02.1c.45,1.98-2.17,3.12-3.31,1.44l-.05-.08c-.15-.23-.23-.35-.3-.45l-.05-.07-.03-.05c-.11-.17-.22-.33-.34-.49-.73-1.05-1.48-2.07-2.27-3.06-.67-.84-1.37-1.67-2.08-2.46-11.58-12.9-28.6-19.62-45.87-18.1-1.07.09-2.14.22-3.2.38ZM949.49,124.52c13.9.62,27.23,5.88,37.82,14.92.62-13.9,5.88-27.23,14.92-37.82-13.9-.62-27.23-5.88-37.82-14.92-.62,13.9-5.88,27.23-14.92,37.82Z"/>
    <g>
      <path class="cls-6" d="M12.64,515.38l10.18-4.42c1.84,2.29,5.06,3.18,7.89,1.95,3.39-1.47,4.94-5.42,3.47-8.8s-5.42-4.94-8.8-3.47c-2.83,1.23-4.38,4.18-3.96,7.09l-10.18,4.42-7.45-17.16,10.18-4.42c1.84,2.29,5.06,3.18,7.89,1.95,3.39-1.47,4.94-5.42,3.47-8.8s-5.42-4.94-8.8-3.47c-2.83,1.23-4.38,4.18-3.96,7.09l-10.18,4.42-1.76-4.05c-1.65-3.8-6.08-5.55-9.88-3.9l-4.05,1.76-4.42-10.18c2.29-1.84,3.18-5.06,1.95-7.88-1.47-3.39-5.42-4.94-8.8-3.47s-4.94,5.42-3.47,8.8c1.23,2.83,4.18,4.38,7.09,3.96l4.42,10.18-17.16,7.45-4.42-10.18c2.29-1.84,3.18-5.06,1.95-7.89-1.47-3.39-5.42-4.94-8.8-3.47-3.39,1.47-4.94,5.42-3.47,8.8,1.23,2.83,4.18,4.38,7.09,3.96l4.42,10.18-17.16,7.45-4.42-10.18c2.29-1.84,3.18-5.06,1.95-7.89-1.47-3.39-5.42-4.94-8.8-3.47-3.39,1.47-4.94,5.42-3.47,8.8,1.23,2.83,4.18,4.38,7.09,3.96l4.42,10.18-4.05,1.76c-3.8,1.65-5.55,6.08-3.9,9.88l1.76,4.05-10.18,4.42c-1.84-2.29-5.06-3.18-7.88-1.95-3.39,1.47-4.94,5.42-3.47,8.8s5.42,4.94,8.8,3.47c2.83-1.23,4.38-4.18,3.96-7.09l10.18-4.42,4.86,11.19c.39.89,1.43,1.3,2.32.91s1.3-1.43.91-2.32l-8.02-18.47c-.87-2.01.05-4.36,2.07-5.24l4.05-1.76,3.02,6.95c.85,1.96,2.41,3.46,4.39,4.25l18.57,7.33c.45.18.93.16,1.35-.02s.76-.52.94-.97c.36-.91-.09-1.93-.99-2.29l-18.57-7.33c-1.11-.44-1.98-1.28-2.45-2.37l-3.02-6.95,37.55-16.3,2.71,6.24c.35.8-.02,1.74-.83,2.09l-6.26,2.72c-2.59,1.12-3.78,4.14-2.66,6.73l7.52,17.32c.39.89,1.43,1.3,2.32.91s1.3-1.43.91-2.32l-7.52-17.32c-.35-.8.02-1.74.83-2.09l6.26-2.72c2.59-1.12,3.78-4.14,2.66-6.73l-2.71-6.24,4.05-1.76c2.01-.87,4.36.05,5.24,2.07l22.62,52.11c.87,2.01-.05,4.36-2.07,5.24l-4.05,1.76-4.04-9.32c-.39-.89-1.43-1.3-2.32-.91s-1.3,1.43-.91,2.32l4.04,9.32-44.83,19.46c-2.01.87-4.36-.05-5.24-2.07l-10.61-24.44,7.27-3.16c.96-.42,2.02-.43,3-.05l16.43,6.48c.97.38,1.74,1.12,2.16,2.08l2.62,6.03c.39.89,1.43,1.3,2.32.91s1.3-1.43.91-2.32l-2.62-6.03c-.79-1.82-2.25-3.23-4.1-3.96l-16.43-6.48c-1.85-.73-3.87-.7-5.7.1l-20.68,8.98c-1.84-2.29-5.06-3.18-7.89-1.95-3.39,1.47-4.94,5.42-3.47,8.8s5.42,4.94,8.8,3.47c2.83-1.23,4.38-4.18,3.96-7.09l10.18-4.42,7.45,17.16-10.18,4.42c-1.84-2.29-5.06-3.18-7.89-1.95-3.39,1.47-4.94,5.42-3.47,8.8s5.42,4.94,8.8,3.47c2.83-1.23,4.38-4.18,3.96-7.09l10.18-4.42,1.76,4.05c1.65,3.8,6.08,5.55,9.88,3.9l4.05-1.76,4.42,10.18c-2.29,1.84-3.18,5.06-1.95,7.88,1.47,3.39,5.42,4.94,8.8,3.47s4.94-5.42,3.47-8.8c-1.23-2.83-4.18-4.38-7.09-3.96l-4.42-10.18,17.16-7.45,4.42,10.18c-2.29,1.84-3.18,5.06-1.95,7.89,1.47,3.39,5.42,4.94,8.8,3.47s4.94-5.42,3.47-8.8c-1.23-2.83-4.18-4.38-7.09-3.96l-4.42-10.18,24.44-10.61c3.8-1.65,5.55-6.08,3.9-9.88l-1.76-4.05,10.18-4.42c1.84,2.29,5.06,3.18,7.88,1.95,3.39-1.47,4.94-5.42,3.47-8.8-1.47-3.39-5.42-4.94-8.8-3.47-2.83,1.23-4.38,4.18-3.96,7.09l-10.18,4.42-7.45-17.16h0ZM26.78,503.87c1.6-.7,3.47.04,4.17,1.64s-.04,3.47-1.64,4.17-3.47-.04-4.17-1.64.04-3.47,1.64-4.17ZM17.92,483.48c1.6-.7,3.47.04,4.17,1.64s-.04,3.47-1.64,4.17-3.47-.04-4.17-1.64.04-3.47,1.64-4.17ZM-24.8,471.44c-.7-1.6.04-3.47,1.64-4.17s3.47.04,4.17,1.64-.04,3.47-1.64,4.17-3.47-.04-4.17-1.64ZM-45.2,480.29c-.7-1.6.04-3.47,1.64-4.17s3.47.04,4.17,1.64-.04,3.47-1.64,4.17-3.47-.04-4.17-1.64ZM-65.59,489.14c-.7-1.6.04-3.47,1.64-4.17s3.47.04,4.17,1.64-.04,3.47-1.64,4.17c-1.6.7-3.47-.04-4.17-1.64ZM-77.63,531.87c-1.6.7-3.47-.04-4.17-1.64s.04-3.47,1.64-4.17,3.47.04,4.17,1.64-.04,3.47-1.64,4.17ZM-68.78,552.26c-1.6.7-3.47-.04-4.17-1.64s.04-3.47,1.64-4.17,3.47.04,4.17,1.64-.04,3.47-1.64,4.17ZM-59.93,572.65c-1.6.7-3.47-.04-4.17-1.64s.04-3.47,1.64-4.17,3.47.04,4.17,1.64-.04,3.47-1.64,4.17ZM-17.2,584.69c.7,1.6-.04,3.47-1.64,4.17s-3.47-.04-4.17-1.64.04-3.47,1.64-4.17c1.6-.7,3.47.04,4.17,1.64ZM3.19,575.84c.7,1.6-.04,3.47-1.64,4.17s-3.47-.04-4.17-1.64.04-3.47,1.64-4.17,3.47.04,4.17,1.64ZM35.63,524.26c1.6-.7,3.47.04,4.17,1.64s-.04,3.47-1.64,4.17-3.47-.04-4.17-1.64.04-3.47,1.64-4.17Z"/>
      <path class="cls-6" d="M19.72,561.63l-1.83-4.22c-.39-.89-1.43-1.3-2.32-.91s-1.3,1.43-.91,2.32l1.83,4.22c-2.29,1.84-3.18,5.06-1.95,7.89,1.47,3.39,5.42,4.94,8.8,3.47,3.39-1.47,4.94-5.42,3.47-8.8-1.23-2.83-4.18-4.38-7.09-3.96h0ZM21.94,571.16c-1.6.7-3.47-.04-4.17-1.64s.04-3.47,1.64-4.17c1.6-.7,3.47.04,4.17,1.64s-.04,3.47-1.64,4.17Z"/>
      <circle class="cls-6" cx=".96" cy="518.53" r="1.76"/>
    </g>
    <path class="cls-6" d="M795.59,554.78l-.23.1c-1.69.62-3.58.19-4.83-1.12l-66.41-69.52c-1.72-1.8-1.66-4.65.14-6.38.78-.74,1.79-1.19,2.87-1.25l95.99-5.44c2.49-.14,4.62,1.76,4.76,4.25.06,1.15-.31,2.27-1.05,3.15l-16.43,19.61,31.65,12.49c2.32.91,3.45,3.53,2.54,5.85l-7.39,18.74c-.91,2.32-3.53,3.45-5.85,2.54l-31.66-12.49-1.38,25.56c-.09,1.71-1.14,3.22-2.71,3.9ZM793.72,514.7c1.1-.48,2.34-.5,3.45-.06l33.28,13.13,4.08-10.35-33.28-13.14c-2.32-.92-3.45-3.54-2.53-5.85.18-.45.42-.86.73-1.23l13.76-16.42-75.83,4.3,52.46,54.92,1.16-21.39c.08-1.45.85-2.77,2.07-3.55.2-.14.42-.26.64-.36Z"/>
    <path class="cls-6" d="M577.48,13.22l-16.5,7.16c-4.8,2.08-10.38-.12-12.47-4.92l-2.7-6.22c-.15-.34-.49-.55-.91-.56-2.2-.08-4.42-.34-6.6-.76-.41-.09-.8.05-1.01.35l-4.04,5.46c-1.5,2.03-3.71,3.36-6.22,3.74s-5-.25-7.03-1.75l-14.46-10.72c-2.03-1.5-3.36-3.71-3.74-6.22-.37-2.5.25-5,1.76-7.04l4.04-5.44c.21-.29.26-.65.13-.92-.56-1.04-1.07-2.11-1.53-3.18s-.89-2.17-1.26-3.26c-.09-.29-.4-.49-.76-.54l-6.73-.77c-2.51-.29-4.76-1.54-6.34-3.52-1.57-1.98-2.28-4.46-1.99-6.97l2.04-17.88c.29-2.51,1.54-4.76,3.52-6.34,1.98-1.57,4.46-2.29,6.97-1.99l6.73.78c.35.03.72-.16.94-.5,1.18-1.88,2.51-3.68,3.95-5.34.29-.34.36-.73.22-1.07l-2.7-6.22c-2.08-4.8.12-10.38,4.92-12.47l16.51-7.17c4.8-2.08,10.38.12,12.47,4.92l2.7,6.22c.15.34.49.55.91.56,2.2.08,4.42.34,6.6.76.41.09.8-.05,1.01-.35l4.04-5.46c1.5-2.03,3.7-3.36,6.22-3.74,2.5-.37,5,.25,7.03,1.75l14.46,10.72c2.03,1.5,3.36,3.71,3.74,6.22s-.25,5-1.76,7.04l-4.04,5.44c-.21.29-.26.65-.13.92.55,1.05,1.06,2.11,1.52,3.18s.89,2.17,1.26,3.26c.09.29.4.49.76.54l6.73.77c2.51.29,4.76,1.54,6.34,3.52,1.57,1.98,2.28,4.46,1.99,6.97l-2.04,17.88c-.29,2.51-1.54,4.76-3.52,6.34-1.98,1.57-4.46,2.29-6.97,1.99l-6.73-.78c-.36-.04-.72.16-.94.5-1.18,1.88-2.51,3.68-3.95,5.34-.29.34-.36.73-.22,1.07l2.7,6.22c2.08,4.8-.12,10.38-4.92,12.47ZM534.24.16c1.73-.75,3.69-.98,5.66-.6,1.76.34,3.55.55,5.33.61,3.72.15,6.94,2.33,8.4,5.69l2.7,6.22c.2.47.76.69,1.25.48l16.51-7.17c.47-.2.69-.76.48-1.25l-2.7-6.22c-1.46-3.36-.85-7.2,1.58-10.03,1.17-1.34,2.24-2.8,3.19-4.31,1.98-3.15,5.48-4.86,9.13-4.44l6.75.77c.52.05.99-.32,1.04-.84l2.04-17.88c.03-.32-.08-.55-.19-.69s-.31-.32-.63-.35l-6.73-.78c-3.6-.42-6.69-2.86-7.85-6.24-.32-.87-.66-1.76-1.03-2.62s-.79-1.72-1.23-2.55c-1.68-3.16-1.37-7.07.8-10l4.04-5.44c.2-.26.21-.52.17-.71-.03-.17-.11-.43-.37-.61l-14.46-10.72c-.43-.31-1.01-.23-1.32.2l-4.04,5.46c-2.19,2.95-5.82,4.34-9.48,3.65-1.76-.34-3.55-.55-5.33-.61-3.71-.17-6.94-2.35-8.4-5.71l-2.7-6.22c-.21-.48-.77-.7-1.25-.49l-16.5,7.16c-.48.21-.7.77-.49,1.25l2.7,6.22c1.46,3.36.85,7.2-1.58,10.03-1.17,1.34-2.24,2.8-3.19,4.31-1.99,3.16-5.48,4.86-9.13,4.44l-6.75-.77c-.52-.05-.99.32-1.04.84l-2.04,17.88c-.03.32.08.55.19.69s.31.32.63.35l6.73.78c3.6.42,6.69,2.86,7.85,6.24.32.87.66,1.76,1.03,2.62s.79,1.72,1.23,2.55c1.68,3.16,1.37,7.07-.8,10l-4.04,5.44c-.2.26-.21.52-.17.71.03.17.11.43.37.61l14.46,10.72c.43.31,1.01.23,1.32-.2l4.04-5.46c1.01-1.35,2.33-2.37,3.82-3.02Z"/>
    <g>
      <polygon class="cls-8" points="472.67 229.46 457.22 236.16 477.47 255.32 492.9 248.62 472.67 229.46"/>
      <path class="cls-8" d="M500.98,245.11l21.57-9.36c-7.11-12.59-22.77-18.06-36.32-12.18l-5.49,2.39,20.24,19.16Z"/>
      <path class="cls-8" d="M455.19,264.99l14.21-6.17-20.24-19.16-11.89,5.16c-.77.33-1.49.7-2.22,1.09l20.15,19.07Z"/>
      <path class="cls-8" d="M424.43,287.17l19.23,44.29c6.28,14.47,23.18,21.13,37.64,14.85l48.97-21.26c14.48-6.29,21.15-23.18,14.87-37.65l-19.23-44.29-101.48,44.05ZM509.45,295.76l-12.83,20.08c-1.06,1.65-2.5,2.88-4.16,3.6-1.31.57-2.76.82-4.24.69-3.42-.26-6.43-2.49-7.86-5.78l-10.74-24.75c-1.42-3.28-1.02-6.82,1.09-9.48,2.13-2.66,5.49-3.85,9.01-3.2l23.43,4.34c3.12.57,5.73,2.66,6.99,5.57,1.28,2.92,1.02,6.24-.69,8.92Z"/>
      <path class="cls-8" d="M501.69,289.23l-23.43-4.34c-.35-.07-.67-.05-.9.05-.12.05-.22.13-.3.22-.23.29-.23.73-.01,1.23l10.74,24.75c.24.56.65.91,1.07.95.35.02.66-.17.94-.58l12.83-20.08c.35-.55.21-1.08.1-1.34s-.39-.73-1.03-.85Z"/>
      <path class="cls-8" d="M447.11,268.5l-18.65-17.66c-7.4,7.39-10.37,18.5-7.1,28.84l25.75-11.18Z"/>
    </g>
    <rect class="cls-2" width="1000" height="630"/>
  </g>
</svg>