<?xml version="1.0" encoding="UTF-8" standalone="no"?>
<svg
   viewBox="0 0 1920 1080"
   version="1.1"
   id="svg4"
   sodipodi:docname="best-ai-video-generator-tools-featured-image.svg"
   inkscape:export-filename="wickedbackground.svg"
   inkscape:export-xdpi="96"
   inkscape:export-ydpi="96"
   inkscape:version="1.3.2 (091e20ef0f, 2023-11-25)"
   xmlns:inkscape="http://www.inkscape.org/namespaces/inkscape"
   xmlns:sodipodi="http://sodipodi.sourceforge.net/DTD/sodipodi-0.dtd"
   xmlns="http://www.w3.org/2000/svg"
   xmlns:svg="http://www.w3.org/2000/svg">
  <defs
     id="defs4" />
  <sodipodi:namedview
     id="namedview4"
     pagecolor="#ffffff"
     bordercolor="#000000"
     borderopacity="0.25"
     inkscape:showpageshadow="2"
     inkscape:pageopacity="0.0"
     inkscape:pagecheckerboard="0"
     inkscape:deskcolor="#d1d1d1"
     inkscape:zoom="0.21065889"
     inkscape:cx="958.89614"
     inkscape:cy="538.7857"
     inkscape:window-width="1578"
     inkscape:window-height="996"
     inkscape:window-x="0"
     inkscape:window-y="0"
     inkscape:window-maximized="1"
     inkscape:current-layer="g4" />
  <g
     transform="          rotate(0 960 540)           translate(-0 -0)          scale(1)        "
     id="g4">
    <rect
       width="1920"
       height="1080"
       fill="rgb(184, 171, 255)"
       id="rect1"
       style="fill:#3131ff;fill-opacity:1" />
    <rect
       class="cls-7"
       x="-220.72986"
       y="715.79047"
       width="443.25"
       height="219.67999"
       rx="26.66"
       ry="26.66"
       transform="rotate(-23.47)"
       id="rect2"
       style="fill:#1e1e1e;stroke-width:0px" />
    <rect
       class="cls-3"
       x="-185.05292"
       y="694.23303"
       width="443.25"
       height="219.67999"
       rx="26.66"
       ry="26.66"
       transform="rotate(-23.47)"
       id="rect3"
       style="fill:none;stroke:#ffffff;stroke-width:5px;stroke-miterlimit:10" />
    <rect
       class="cls-7"
       x="324.39938"
       y="711.74707"
       width="443.25"
       height="219.67999"
       rx="26.66"
       ry="26.66"
       transform="rotate(-23.47)"
       id="rect4"
       style="fill:#1e1e1e;stroke-width:0px" />
    <rect
       class="cls-3"
       x="361.10654"
       y="690.66339"
       width="443.25"
       height="219.67999"
       rx="26.66"
       ry="26.66"
       transform="rotate(-23.47)"
       id="rect5"
       style="fill:none;stroke:#ffffff;stroke-width:5px;stroke-miterlimit:10" />
    <circle
       class="cls-4"
       cx="643.42505"
       cy="497.50565"
       r="4.7600002"
       id="circle5"
       style="fill:none;stroke:#ffffff;stroke-width:2px;stroke-miterlimit:10" />
    <circle
       class="cls-4"
       cx="664.38507"
       cy="488.40567"
       r="4.7600002"
       id="circle6"
       style="fill:none;stroke:#ffffff;stroke-width:2px;stroke-miterlimit:10" />
    <circle
       class="cls-4"
       cx="685.33502"
       cy="479.30566"
       r="4.7600002"
       id="circle7"
       style="fill:none;stroke:#ffffff;stroke-width:2px;stroke-miterlimit:10" />
    <rect
       class="cls-7"
       x="865.32745"
       y="711.74811"
       width="443.25"
       height="219.67999"
       rx="26.66"
       ry="26.66"
       transform="rotate(-23.47)"
       id="rect7"
       style="fill:#1e1e1e;stroke-width:0px" />
    <rect
       class="cls-3"
       x="902.02856"
       y="690.65527"
       width="443.25"
       height="219.67999"
       rx="26.66"
       ry="26.66"
       transform="rotate(-23.47)"
       id="rect8"
       style="fill:none;stroke:#ffffff;stroke-width:5px;stroke-miterlimit:10" />
    <circle
       class="cls-4"
       cx="1139.625"
       cy="282.09567"
       r="4.7600002"
       id="circle8"
       style="fill:none;stroke:#ffffff;stroke-width:2px;stroke-miterlimit:10" />
    <circle
       class="cls-4"
       cx="1160.5851"
       cy="272.99567"
       r="4.7600002"
       id="circle9"
       style="fill:none;stroke:#ffffff;stroke-width:2px;stroke-miterlimit:10" />
    <circle
       class="cls-4"
       cx="1181.545"
       cy="263.89566"
       r="4.7600002"
       id="circle10"
       style="fill:none;stroke:#ffffff;stroke-width:2px;stroke-miterlimit:10" />
    <rect
       class="cls-7"
       x="15.613048"
       y="1013.5075"
       width="443.25"
       height="219.67999"
       rx="26.66"
       ry="26.66"
       transform="rotate(-23.47)"
       id="rect10"
       style="fill:#1e1e1e;stroke-width:0px" />
    <rect
       class="cls-3"
       x="52.310181"
       y="992.42383"
       width="443.25"
       height="219.67999"
       rx="26.66"
       ry="26.66"
       transform="rotate(-23.47)"
       id="rect11"
       style="fill:none;stroke:#ffffff;stroke-width:5px;stroke-miterlimit:10" />
    <rect
       class="cls-7"
       x="546.82532"
       y="1013.5117"
       width="443.25"
       height="219.67999"
       rx="26.66"
       ry="26.66"
       transform="rotate(-23.47)"
       id="rect12"
       style="fill:#1e1e1e;stroke-width:0px" />
    <rect
       class="cls-3"
       x="583.52246"
       y="992.42804"
       width="443.25"
       height="219.67999"
       rx="26.66"
       ry="26.66"
       transform="rotate(-23.47)"
       id="rect13"
       style="fill:none;stroke:#ffffff;stroke-width:5px;stroke-miterlimit:10" />
    <circle
       class="cls-4"
       cx="950.40509"
       cy="693.2157"
       r="4.7600002"
       id="circle13"
       style="fill:none;stroke:#ffffff;stroke-width:2px;stroke-miterlimit:10" />
    <circle
       class="cls-4"
       cx="971.36505"
       cy="684.12567"
       r="4.7600002"
       id="circle14"
       style="fill:none;stroke:#ffffff;stroke-width:2px;stroke-miterlimit:10" />
    <circle
       class="cls-4"
       cx="992.32507"
       cy="675.0257"
       r="4.7600002"
       id="circle15"
       style="fill:none;stroke:#ffffff;stroke-width:2px;stroke-miterlimit:10" />
    <path
       class="cls-7"
       d="m 1785.7951,886.93566 -357.33,155.12004 c -13.6,5.91 -29.42,-0.34 -35.32,-13.94 l -66.09,-152.25004 c -5.91,-13.6 0.34,-29.42 13.94,-35.32 l 361.35,-155.39 c 13.6,-5.91 29.42,0.34 35.32,13.94 l 62.07,152.52 c 5.91,13.6 -0.34,29.42 -13.94,35.32 z"
       id="path15"
       style="fill:#1e1e1e;stroke-width:0px" />
    <path
       class="cls-3"
       d="m 1811.0751,852.97566 -357.33,155.12004 c -13.6,5.91 -29.42,-0.34 -35.32,-13.94004 l -66.09,-152.25 c -5.91,-13.6 0.34,-29.42 13.94,-35.32 l 361.35,-155.39 c 13.6,-5.91 29.42,0.34 35.32,13.94 l 62.07,152.52 c 5.91,13.6 -0.34,29.42 -13.94,35.32 z"
       id="path16"
       style="fill:none;stroke:#ffffff;stroke-width:5px;stroke-miterlimit:10" />
    <rect
       class="cls-7"
       x="1.7857873"
       y="420.5098"
       width="443.25"
       height="219.67999"
       rx="26.66"
       ry="26.66"
       transform="rotate(-23.47)"
       id="rect16"
       style="fill:#1e1e1e;stroke-width:0px" />
    <rect
       class="cls-3"
       x="38.49292"
       y="399.43613"
       width="443.25"
       height="219.67999"
       rx="26.66"
       ry="26.66"
       transform="rotate(-23.47)"
       id="rect17"
       style="fill:none;stroke:#ffffff;stroke-width:5px;stroke-miterlimit:10" />
    <rect
       class="cls-7"
       x="542.72302"
       y="420.52481"
       width="443.25"
       height="219.67999"
       rx="26.66"
       ry="26.66"
       transform="rotate(-23.47)"
       id="rect18"
       style="fill:#1e1e1e;stroke-width:0px" />
    <rect
       class="cls-3"
       x="579.42017"
       y="399.44116"
       width="443.25"
       height="219.67999"
       rx="26.66"
       ry="26.66"
       transform="rotate(-23.47)"
       id="rect19"
       style="fill:none;stroke:#ffffff;stroke-width:5px;stroke-miterlimit:10" />
    <g
       id="g20"
       transform="translate(366.31506,218.17566)">
      <path
         class="cls-6"
         d="M 56.58,113.37 -3.83,139.6 c -11.91,5.17 -17.38,19.03 -12.21,30.94 l 26.23,60.41 c 5.17,11.91 19.03,17.38 30.94,12.21 l 60.41,-26.23 c 11.91,-5.17 17.38,-19.03 12.21,-30.94 L 87.52,125.58 C 82.35,113.67 68.49,108.2 56.58,113.37 Z m 48.54,76.37 c 3.09,7.12 -0.21,15.47 -7.33,18.57 l -60.41,26.23 c -7.12,3.09 -15.47,-0.21 -18.57,-7.33 L -7.42,166.8 c -3.09,-7.12 0.21,-15.47 7.33,-18.57 L 60.32,122 c 7.12,-3.09 15.47,0.21 18.57,7.33 z"
         id="path19"
         style="fill:#3131ff;stroke-width:0px" />
      <path
         class="cls-6"
         d="m 35.74,148.06 c -16.66,7.23 -24.32,26.66 -17.09,43.32 7.23,16.66 26.66,24.32 43.32,17.09 16.66,-7.23 24.32,-26.66 17.09,-43.32 C 71.83,148.49 52.4,140.83 35.74,148.06 Z m 22.48,51.78 c -11.91,5.17 -25.77,-0.3 -30.94,-12.21 -5.17,-11.91 0.3,-25.77 12.21,-30.94 11.91,-5.17 25.77,0.3 30.94,12.21 5.17,11.91 -0.3,25.77 -12.21,30.94 z"
         id="path20"
         style="fill:#3131ff;stroke-width:0px" />
      <circle
         class="cls-6"
         cx="65.949997"
         cy="134.95"
         r="4.6999998"
         id="circle20"
         style="fill:#3131ff;stroke-width:0px" />
    </g>
    <path
       class="cls-5"
       d="m 1330.8351,266.83566 c 2.08,-0.47 4.19,-0.62 6.25,-0.47 0.92,0.07 1.82,0.19 2.72,0.37 2.49,0.5 4.88,1.44 7.04,2.78 0.78,0.48 1.52,1.01 2.24,1.59 1.61,1.3 3.04,2.84 4.24,4.61 0.05,0.07 0.1,0.15 0.15,0.22 0.44,0.67 1.48,0.22 1.3,-0.56 -0.02,-0.09 -0.04,-0.17 -0.06,-0.26 -0.47,-2.08 -0.62,-4.19 -0.47,-6.25 0.07,-0.92 0.19,-1.82 0.37,-2.72 0.5,-2.49 1.44,-4.88 2.78,-7.04 0.48,-0.78 1.01,-1.52 1.59,-2.24 1.3,-1.61 2.84,-3.04 4.61,-4.24 0.07,-0.05 0.15,-0.1 0.22,-0.15 0.67,-0.44 0.22,-1.48 -0.56,-1.3 -0.09,0.02 -0.17,0.04 -0.26,0.06 -2.08,0.47 -4.19,0.62 -6.25,0.47 -0.92,-0.07 -1.82,-0.19 -2.72,-0.37 -2.49,-0.5 -4.88,-1.44 -7.04,-2.78 -0.78,-0.48 -1.52,-1.01 -2.24,-1.59 -1.61,-1.3 -3.04,-2.84 -4.24,-4.61 -0.05,-0.07 -0.1,-0.15 -0.15,-0.22 -0.44,-0.67 -1.48,-0.22 -1.3,0.56 0.02,0.09 0.04,0.17 0.06,0.26 0.47,2.08 0.62,4.19 0.47,6.25 -0.07,0.92 -0.19,1.82 -0.37,2.72 -0.5,2.49 -1.44,4.88 -2.78,7.04 -0.48,0.78 -1.01,1.52 -1.59,2.24 -1.3,1.61 -2.84,3.04 -4.61,4.24 -0.07,0.05 -0.15,0.1 -0.22,0.15 -0.67,0.44 -0.22,1.48 0.56,1.3 0.09,-0.02 0.17,-0.04 0.26,-0.06 z m 17.29,-5 c -1.3,-0.63 -2.64,-1.16 -4.02,-1.59 0.63,-1.3 1.16,-2.64 1.59,-4.02 1.3,0.63 2.65,1.16 4.02,1.59 -0.63,1.3 -1.16,2.64 -1.59,4.02 z m -87.54,49.65 c -1.86,0.1 -3.72,0.36 -5.58,0.78 -0.14,0.03 -0.27,0.06 -0.41,0.09 -1.23,0.29 -1.95,-1.35 -0.89,-2.05 0.12,-0.08 0.23,-0.16 0.35,-0.23 1.57,-1.07 3.03,-2.26 4.38,-3.54 0.8,-0.77 1.57,-1.57 2.28,-2.41 4.98,-5.8 7.86,-13.12 8.19,-20.75 0.05,-1.1 0.04,-2.21 -0.02,-3.32 -0.1,-1.86 -0.36,-3.72 -0.78,-5.58 -0.03,-0.14 -0.06,-0.27 -0.09,-0.41 -0.29,-1.23 1.35,-1.95 2.05,-0.89 0.08,0.12 0.16,0.23 0.23,0.35 1.07,1.57 2.26,3.03 3.54,4.38 0.77,0.8 1.57,1.57 2.41,2.28 5.8,4.98 13.12,7.86 20.75,8.19 1.1,0.05 2.21,0.04 3.32,-0.02 1.86,-0.1 3.72,-0.36 5.58,-0.78 0.14,-0.03 0.27,-0.06 0.41,-0.09 1.23,-0.29 1.95,1.35 0.89,2.05 -0.12,0.08 -0.23,0.16 -0.35,0.23 -1.57,1.07 -3.03,2.26 -4.38,3.54 -0.8,0.77 -1.57,1.57 -2.28,2.41 -4.98,5.8 -7.86,13.12 -8.19,20.75 -0.05,1.1 -0.04,2.21 0.02,3.32 0.1,1.86 0.36,3.72 0.78,5.58 0.03,0.14 0.06,0.27 0.09,0.41 0.29,1.23 -1.35,1.95 -2.05,0.89 -0.08,-0.12 -0.16,-0.23 -0.23,-0.35 -1.07,-1.57 -2.26,-3.03 -3.54,-4.38 -0.77,-0.8 -1.57,-1.57 -2.41,-2.28 -5.8,-4.98 -13.12,-7.86 -20.75,-8.19 -1.1,-0.05 -2.21,-0.04 -3.32,0.02 z m 8.9,-6.81 c 5.61,0.97 10.98,3.08 15.74,6.21 0.97,-5.61 3.08,-10.98 6.21,-15.74 -5.61,-0.97 -10.98,-3.08 -15.74,-6.21 -0.97,5.61 -3.08,10.98 -6.21,15.74 z m 35.5,45.91 c -1.25,0.18 -2.5,0.41 -3.75,0.68 -0.19,0.04 -0.39,0.09 -0.58,0.13 h -0.06 c 0,0 -0.08,0.03 -0.08,0.03 -0.12,0.03 -0.26,0.06 -0.53,0.12 l -0.09,0.02 c -1.98,0.45 -3.12,-2.17 -1.44,-3.31 l 0.08,-0.05 c 0.23,-0.15 0.35,-0.23 0.45,-0.3 l 0.07,-0.05 0.05,-0.03 c 0.17,-0.11 0.33,-0.22 0.49,-0.34 1.05,-0.73 2.07,-1.48 3.06,-2.27 0.84,-0.67 1.67,-1.37 2.46,-2.08 12.9,-11.58 19.62,-28.6 18.1,-45.87 -0.09,-1.07 -0.22,-2.14 -0.38,-3.2 -0.18,-1.25 -0.41,-2.5 -0.68,-3.75 -0.04,-0.19 -0.09,-0.39 -0.13,-0.58 v -0.06 c 0,0 -0.03,-0.08 -0.03,-0.08 -0.03,-0.12 -0.06,-0.25 -0.12,-0.52 v 0 c 0,0 -0.02,-0.1 -0.02,-0.1 -0.45,-1.98 2.17,-3.12 3.31,-1.44 l 0.05,0.08 c 0.15,0.23 0.23,0.35 0.3,0.45 l 0.05,0.07 0.03,0.05 c 0.11,0.17 0.22,0.33 0.34,0.49 0.73,1.05 1.48,2.07 2.27,3.06 0.67,0.84 1.37,1.67 2.08,2.46 11.58,12.9 28.6,19.62 45.87,18.1 1.07,-0.09 2.14,-0.22 3.2,-0.38 1.25,-0.18 2.5,-0.41 3.75,-0.68 0.19,-0.04 0.39,-0.09 0.58,-0.13 h 0.06 c 0,0 0.08,-0.03 0.08,-0.03 l 0.13,-0.03 0.4,-0.09 0.09,-0.02 c 1.98,-0.45 3.12,2.17 1.44,3.31 l -0.08,0.05 -0.26,0.17 -0.19,0.12 -0.07,0.05 -0.05,0.03 c -0.17,0.11 -0.33,0.22 -0.49,0.34 -1.05,0.73 -2.07,1.48 -3.06,2.27 -0.84,0.67 -1.67,1.37 -2.46,2.08 -12.9,11.58 -19.62,28.6 -18.1,45.87 0.09,1.07 0.22,2.14 0.38,3.2 0.18,1.25 0.41,2.5 0.68,3.75 0.04,0.19 0.09,0.39 0.13,0.58 v 0.06 c 0,0 0.03,0.08 0.03,0.08 0.03,0.12 0.06,0.25 0.12,0.52 l 0.02,0.1 c 0.45,1.98 -2.17,3.12 -3.31,1.44 l -0.05,-0.08 c -0.15,-0.23 -0.23,-0.35 -0.3,-0.45 l -0.05,-0.07 -0.03,-0.05 c -0.11,-0.17 -0.22,-0.33 -0.34,-0.49 -0.73,-1.05 -1.48,-2.07 -2.27,-3.06 -0.67,-0.84 -1.37,-1.67 -2.08,-2.46 -11.58,-12.9 -28.6,-19.62 -45.87,-18.1 -1.07,0.09 -2.14,0.22 -3.2,0.38 z m 10.82,-7.89 c 13.9,0.62 27.23,5.88 37.82,14.92 0.62,-13.9 5.88,-27.23 14.92,-37.82 -13.9,-0.62 -27.23,-5.88 -37.82,-14.92 -0.62,13.9 -5.88,27.23 -14.92,37.82 z"
       id="path21"
       style="fill:#3131ff;fill-rule:evenodd;stroke-width:0px" />
    <g
       id="g23"
       transform="translate(366.31506,218.17566)">
      <path
         class="cls-6"
         d="m 12.64,515.38 10.18,-4.42 c 1.84,2.29 5.06,3.18 7.89,1.95 3.39,-1.47 4.94,-5.42 3.47,-8.8 -1.47,-3.38 -5.42,-4.94 -8.8,-3.47 -2.83,1.23 -4.38,4.18 -3.96,7.09 l -10.18,4.42 -7.45,-17.16 10.18,-4.42 c 1.84,2.29 5.06,3.18 7.89,1.95 3.39,-1.47 4.94,-5.42 3.47,-8.8 -1.47,-3.38 -5.42,-4.94 -8.8,-3.47 -2.83,1.23 -4.38,4.18 -3.96,7.09 l -10.18,4.42 -1.76,-4.05 c -1.65,-3.8 -6.08,-5.55 -9.88,-3.9 l -4.05,1.76 -4.42,-10.18 c 2.29,-1.84 3.18,-5.06 1.95,-7.88 -1.47,-3.39 -5.42,-4.94 -8.8,-3.47 -3.38,1.47 -4.94,5.42 -3.47,8.8 1.23,2.83 4.18,4.38 7.09,3.96 l 4.42,10.18 -17.16,7.45 -4.42,-10.18 c 2.29,-1.84 3.18,-5.06 1.95,-7.89 -1.47,-3.39 -5.42,-4.94 -8.8,-3.47 -3.39,1.47 -4.94,5.42 -3.47,8.8 1.23,2.83 4.18,4.38 7.09,3.96 l 4.42,10.18 -17.16,7.45 -4.42,-10.18 c 2.29,-1.84 3.18,-5.06 1.95,-7.89 -1.47,-3.39 -5.42,-4.94 -8.8,-3.47 -3.39,1.47 -4.94,5.42 -3.47,8.8 1.23,2.83 4.18,4.38 7.09,3.96 l 4.42,10.18 -4.05,1.76 c -3.8,1.65 -5.55,6.08 -3.9,9.88 l 1.76,4.05 -10.18,4.42 c -1.84,-2.29 -5.06,-3.18 -7.88,-1.95 -3.39,1.47 -4.94,5.42 -3.47,8.8 1.47,3.38 5.42,4.94 8.8,3.47 2.83,-1.23 4.38,-4.18 3.96,-7.09 l 10.18,-4.42 4.86,11.19 c 0.39,0.89 1.43,1.3 2.32,0.91 0.89,-0.39 1.3,-1.43 0.91,-2.32 l -8.02,-18.47 c -0.87,-2.01 0.05,-4.36 2.07,-5.24 l 4.05,-1.76 3.02,6.95 c 0.85,1.96 2.41,3.46 4.39,4.25 l 18.57,7.33 c 0.45,0.18 0.93,0.16 1.35,-0.02 0.42,-0.18 0.76,-0.52 0.94,-0.97 0.36,-0.91 -0.09,-1.93 -0.99,-2.29 l -18.57,-7.33 c -1.11,-0.44 -1.98,-1.28 -2.45,-2.37 l -3.02,-6.95 37.55,-16.3 2.71,6.24 c 0.35,0.8 -0.02,1.74 -0.83,2.09 l -6.26,2.72 c -2.59,1.12 -3.78,4.14 -2.66,6.73 l 7.52,17.32 c 0.39,0.89 1.43,1.3 2.32,0.91 0.89,-0.39 1.3,-1.43 0.91,-2.32 l -7.52,-17.32 c -0.35,-0.8 0.02,-1.74 0.83,-2.09 l 6.26,-2.72 c 2.59,-1.12 3.78,-4.14 2.66,-6.73 l -2.71,-6.24 4.05,-1.76 c 2.01,-0.87 4.36,0.05 5.24,2.07 l 22.62,52.11 c 0.87,2.01 -0.05,4.36 -2.07,5.24 l -4.05,1.76 -4.04,-9.32 c -0.39,-0.89 -1.43,-1.3 -2.32,-0.91 -0.89,0.39 -1.3,1.43 -0.91,2.32 l 4.04,9.32 -44.83,19.46 c -2.01,0.87 -4.36,-0.05 -5.24,-2.07 L -50,542.58 l 7.27,-3.16 c 0.96,-0.42 2.02,-0.43 3,-0.05 l 16.43,6.48 c 0.97,0.38 1.74,1.12 2.16,2.08 l 2.62,6.03 c 0.39,0.89 1.43,1.3 2.32,0.91 0.89,-0.39 1.3,-1.43 0.91,-2.32 l -2.62,-6.03 c -0.79,-1.82 -2.25,-3.23 -4.1,-3.96 l -16.43,-6.48 c -1.85,-0.73 -3.87,-0.7 -5.7,0.1 l -20.68,8.98 c -1.84,-2.29 -5.06,-3.18 -7.89,-1.95 -3.39,1.47 -4.94,5.42 -3.47,8.8 1.47,3.38 5.42,4.94 8.8,3.47 2.83,-1.23 4.38,-4.18 3.96,-7.09 l 10.18,-4.42 7.45,17.16 -10.18,4.42 c -1.84,-2.29 -5.06,-3.18 -7.89,-1.95 -3.39,1.47 -4.94,5.42 -3.47,8.8 1.47,3.38 5.42,4.94 8.8,3.47 2.83,-1.23 4.38,-4.18 3.96,-7.09 l 10.18,-4.42 1.76,4.05 c 1.65,3.8 6.08,5.55 9.88,3.9 l 4.05,-1.76 4.42,10.18 c -2.29,1.84 -3.18,5.06 -1.95,7.88 1.47,3.39 5.42,4.94 8.8,3.47 3.38,-1.47 4.94,-5.42 3.47,-8.8 -1.23,-2.83 -4.18,-4.38 -7.09,-3.96 l -4.42,-10.18 17.16,-7.45 4.42,10.18 c -2.29,1.84 -3.18,5.06 -1.95,7.89 1.47,3.39 5.42,4.94 8.8,3.47 3.38,-1.47 4.94,-5.42 3.47,-8.8 -1.23,-2.83 -4.18,-4.38 -7.09,-3.96 l -4.42,-10.18 24.44,-10.61 c 3.8,-1.65 5.55,-6.08 3.9,-9.88 l -1.76,-4.05 10.18,-4.42 c 1.84,2.29 5.06,3.18 7.88,1.95 3.39,-1.47 4.94,-5.42 3.47,-8.8 -1.47,-3.39 -5.42,-4.94 -8.8,-3.47 -2.83,1.23 -4.38,4.18 -3.96,7.09 l -10.18,4.42 -7.45,-17.16 v 0 z m 14.14,-11.51 c 1.6,-0.7 3.47,0.04 4.17,1.64 0.7,1.6 -0.04,3.47 -1.64,4.17 -1.6,0.7 -3.47,-0.04 -4.17,-1.64 -0.7,-1.6 0.04,-3.47 1.64,-4.17 z m -8.86,-20.39 c 1.6,-0.7 3.47,0.04 4.17,1.64 0.7,1.6 -0.04,3.47 -1.64,4.17 -1.6,0.7 -3.47,-0.04 -4.17,-1.64 -0.7,-1.6 0.04,-3.47 1.64,-4.17 z M -24.8,471.44 c -0.7,-1.6 0.04,-3.47 1.64,-4.17 1.6,-0.7 3.47,0.04 4.17,1.64 0.7,1.6 -0.04,3.47 -1.64,4.17 -1.6,0.7 -3.47,-0.04 -4.17,-1.64 z m -20.4,8.85 c -0.7,-1.6 0.04,-3.47 1.64,-4.17 1.6,-0.7 3.47,0.04 4.17,1.64 0.7,1.6 -0.04,3.47 -1.64,4.17 -1.6,0.7 -3.47,-0.04 -4.17,-1.64 z m -20.39,8.85 c -0.7,-1.6 0.04,-3.47 1.64,-4.17 1.6,-0.7 3.47,0.04 4.17,1.64 0.7,1.6 -0.04,3.47 -1.64,4.17 -1.6,0.7 -3.47,-0.04 -4.17,-1.64 z m -12.04,42.73 c -1.6,0.7 -3.47,-0.04 -4.17,-1.64 -0.7,-1.6 0.04,-3.47 1.64,-4.17 1.6,-0.7 3.47,0.04 4.17,1.64 0.7,1.6 -0.04,3.47 -1.64,4.17 z m 8.85,20.39 c -1.6,0.7 -3.47,-0.04 -4.17,-1.64 -0.7,-1.6 0.04,-3.47 1.64,-4.17 1.6,-0.7 3.47,0.04 4.17,1.64 0.7,1.6 -0.04,3.47 -1.64,4.17 z m 8.85,20.39 c -1.6,0.7 -3.47,-0.04 -4.17,-1.64 -0.7,-1.6 0.04,-3.47 1.64,-4.17 1.6,-0.7 3.47,0.04 4.17,1.64 0.7,1.6 -0.04,3.47 -1.64,4.17 z m 42.73,12.04 c 0.7,1.6 -0.04,3.47 -1.64,4.17 -1.6,0.7 -3.47,-0.04 -4.17,-1.64 -0.7,-1.6 0.04,-3.47 1.64,-4.17 1.6,-0.7 3.47,0.04 4.17,1.64 z m 20.39,-8.85 c 0.7,1.6 -0.04,3.47 -1.64,4.17 -1.6,0.7 -3.47,-0.04 -4.17,-1.64 -0.7,-1.6 0.04,-3.47 1.64,-4.17 1.6,-0.7 3.47,0.04 4.17,1.64 z m 32.44,-51.58 c 1.6,-0.7 3.47,0.04 4.17,1.64 0.7,1.6 -0.04,3.47 -1.64,4.17 -1.6,0.7 -3.47,-0.04 -4.17,-1.64 -0.7,-1.6 0.04,-3.47 1.64,-4.17 z"
         id="path22"
         style="fill:#3131ff;stroke-width:0px" />
      <path
         class="cls-6"
         d="m 19.72,561.63 -1.83,-4.22 c -0.39,-0.89 -1.43,-1.3 -2.32,-0.91 -0.89,0.39 -1.3,1.43 -0.91,2.32 l 1.83,4.22 c -2.29,1.84 -3.18,5.06 -1.95,7.89 1.47,3.39 5.42,4.94 8.8,3.47 3.39,-1.47 4.94,-5.42 3.47,-8.8 -1.23,-2.83 -4.18,-4.38 -7.09,-3.96 v 0 z m 2.22,9.53 c -1.6,0.7 -3.47,-0.04 -4.17,-1.64 -0.7,-1.6 0.04,-3.47 1.64,-4.17 1.6,-0.7 3.47,0.04 4.17,1.64 0.7,1.6 -0.04,3.47 -1.64,4.17 z"
         id="path23"
         style="fill:#3131ff;stroke-width:0px" />
      <circle
         class="cls-6"
         cx="0.95999998"
         cy="518.53003"
         r="1.76"
         id="circle23"
         style="fill:#3131ff;stroke-width:0px" />
    </g>
    <path
       class="cls-6"
       d="m 1161.9051,772.95566 -0.23,0.1 c -1.69,0.62 -3.58,0.19 -4.83,-1.12 l -66.41,-69.52 c -1.72,-1.8 -1.66,-4.65 0.14,-6.38 0.78,-0.74 1.79,-1.19 2.87,-1.25 l 95.99,-5.44 c 2.49,-0.14 4.62,1.76 4.76,4.25 0.06,1.15 -0.31,2.27 -1.05,3.15 l -16.43,19.61 31.65,12.49 c 2.32,0.91 3.45,3.53 2.54,5.85 l -7.39,18.74 c -0.91,2.32 -3.53,3.45 -5.85,2.54 l -31.66,-12.49 -1.38,25.56 c -0.09,1.71 -1.14,3.22 -2.71,3.9 z m -1.87,-40.08 c 1.1,-0.48 2.34,-0.5 3.45,-0.06 l 33.28,13.13 4.08,-10.35 -33.28,-13.14 c -2.32,-0.92 -3.45,-3.54 -2.53,-5.85 0.18,-0.45 0.42,-0.86 0.73,-1.23 l 13.76,-16.42 -75.83,4.3 52.46,54.92 1.16,-21.39 c 0.08,-1.45 0.85,-2.77 2.07,-3.55 0.2,-0.14 0.42,-0.26 0.64,-0.36 z"
       id="path24"
       style="fill:#3131ff;stroke-width:0px" />
    <path
       class="cls-6"
       d="m 943.79506,231.39566 -16.5,7.16 c -4.8,2.08 -10.38,-0.12 -12.47,-4.92 l -2.7,-6.22 c -0.15,-0.34 -0.49,-0.55 -0.91,-0.56 -2.2,-0.08 -4.42,-0.34 -6.6,-0.76 -0.41,-0.09 -0.8,0.05 -1.01,0.35 l -4.04,5.46 c -1.5,2.03 -3.71,3.36 -6.22,3.74 -2.51,0.38 -5,-0.25 -7.03,-1.75 l -14.46,-10.72 c -2.03,-1.5 -3.36,-3.71 -3.74,-6.22 -0.37,-2.5 0.25,-5 1.76,-7.04 l 4.04,-5.44 c 0.21,-0.29 0.26,-0.65 0.13,-0.92 -0.56,-1.04 -1.07,-2.11 -1.53,-3.18 -0.46,-1.07 -0.89,-2.17 -1.26,-3.26 -0.09,-0.29 -0.4,-0.49 -0.76,-0.54 l -6.73,-0.77 c -2.51,-0.29 -4.76,-1.54 -6.34,-3.52 -1.57,-1.98 -2.28,-4.46 -1.99,-6.97 l 2.04,-17.88 c 0.29,-2.51 1.54,-4.76 3.52,-6.34 1.98,-1.57 4.46,-2.29 6.97,-1.99 l 6.73,0.78 c 0.35,0.03 0.72,-0.16 0.94,-0.5 1.18,-1.88 2.51,-3.68 3.95,-5.34 0.29,-0.34 0.36,-0.73 0.22,-1.07 l -2.7,-6.22 c -2.08,-4.8 0.12,-10.38 4.92,-12.47 l 16.51,-7.17 c 4.8,-2.08 10.38,0.12 12.47,4.92 l 2.7,6.22 c 0.15,0.34 0.49,0.55 0.91,0.56 2.2,0.08 4.42,0.34 6.6,0.76 0.41,0.09 0.8,-0.05 1.01,-0.35 l 4.04,-5.46 c 1.5,-2.03 3.7,-3.36 6.22,-3.74 2.5,-0.37 5,0.25 7.03,1.75 l 14.46,10.72 c 2.03,1.5 3.36,3.71 3.74,6.22 0.38,2.51 -0.25,5 -1.76,7.04 l -4.04,5.44 c -0.21,0.29 -0.26,0.65 -0.13,0.92 0.55,1.05 1.06,2.11 1.52,3.18 0.46,1.07 0.89,2.17 1.26,3.26 0.09,0.29 0.4,0.49 0.76,0.54 l 6.73,0.77 c 2.51,0.29 4.76,1.54 6.34,3.52 1.57,1.98 2.28,4.46 1.99,6.97 l -2.04,17.88 c -0.29,2.51 -1.54,4.76 -3.52,6.34 -1.98,1.57 -4.46,2.29 -6.97,1.99 l -6.73,-0.78 c -0.36,-0.04 -0.72,0.16 -0.94,0.5 -1.18,1.88 -2.51,3.68 -3.95,5.34 -0.29,0.34 -0.36,0.73 -0.22,1.07 l 2.7,6.22 c 2.08,4.8 -0.12,10.38 -4.92,12.47 z m -43.24,-13.06 c 1.73,-0.75 3.69,-0.98 5.66,-0.6 1.76,0.34 3.55,0.55 5.33,0.61 3.72,0.15 6.94,2.33 8.4,5.69 l 2.7,6.22 c 0.2,0.47 0.76,0.69 1.25,0.48 l 16.51,-7.17 c 0.47,-0.2 0.69,-0.76 0.48,-1.25 l -2.7,-6.22 c -1.46,-3.36 -0.85,-7.2 1.58,-10.03 1.17,-1.34 2.24,-2.8 3.19,-4.31 1.98,-3.15 5.48,-4.86 9.13,-4.44 l 6.75,0.77 c 0.52,0.05 0.99,-0.32 1.04,-0.84 l 2.04,-17.88 c 0.03,-0.32 -0.08,-0.55 -0.19,-0.69 -0.11,-0.14 -0.31,-0.32 -0.63,-0.35 l -6.73,-0.78 c -3.6,-0.42 -6.69,-2.86 -7.85,-6.24 -0.32,-0.87 -0.66,-1.76 -1.03,-2.62 -0.37,-0.86 -0.79,-1.72 -1.23,-2.55 -1.68,-3.16 -1.37,-7.07 0.8,-10 l 4.04,-5.44 c 0.2,-0.26 0.21,-0.52 0.17,-0.71 -0.03,-0.17 -0.11,-0.43 -0.37,-0.61 l -14.46,-10.72 c -0.43,-0.31 -1.01,-0.23 -1.32,0.2 l -4.04,5.46 c -2.19,2.95 -5.82,4.34 -9.48,3.65 -1.76,-0.34 -3.55,-0.55 -5.33,-0.61 -3.71,-0.17 -6.94,-2.35 -8.4,-5.71 l -2.7,-6.22 c -0.21,-0.48 -0.77,-0.7 -1.25,-0.49 l -16.5,7.16 c -0.48,0.21 -0.7,0.77 -0.49,1.25 l 2.7,6.22 c 1.46,3.36 0.85,7.2 -1.58,10.03 -1.17,1.34 -2.24,2.8 -3.19,4.31 -1.99,3.16 -5.48,4.86 -9.13,4.44 l -6.75,-0.77 c -0.52,-0.05 -0.99,0.32 -1.04,0.84 l -2.04,17.88 c -0.03,0.32 0.08,0.55 0.19,0.69 0.11,0.14 0.31,0.32 0.63,0.35 l 6.73,0.78 c 3.6,0.42 6.69,2.86 7.85,6.24 0.32,0.87 0.66,1.76 1.03,2.62 0.37,0.86 0.79,1.72 1.23,2.55 1.68,3.16 1.37,7.07 -0.8,10 l -4.04,5.44 c -0.2,0.26 -0.21,0.52 -0.17,0.71 0.03,0.17 0.11,0.43 0.37,0.61 l 14.46,10.72 c 0.43,0.31 1.01,0.23 1.32,-0.2 l 4.04,-5.46 c 1.01,-1.35 2.33,-2.37 3.82,-3.02 z"
       id="path25"
       style="fill:#3131ff;stroke-width:0px" />
    <g
       id="g30"
       transform="translate(366.31506,218.17566)">
      <polygon
         class="cls-8"
         points="477.47,255.32 492.9,248.62 472.67,229.46 457.22,236.16 "
         id="polygon25"
         style="fill:#ffffff;stroke-width:0px" />
      <path
         class="cls-8"
         d="m 500.98,245.11 21.57,-9.36 c -7.11,-12.59 -22.77,-18.06 -36.32,-12.18 l -5.49,2.39 20.24,19.16 z"
         id="path26"
         style="fill:#ffffff;stroke-width:0px" />
      <path
         class="cls-8"
         d="m 455.19,264.99 14.21,-6.17 -20.24,-19.16 -11.89,5.16 c -0.77,0.33 -1.49,0.7 -2.22,1.09 l 20.15,19.07 z"
         id="path27"
         style="fill:#ffffff;stroke-width:0px" />
      <path
         class="cls-8"
         d="m 424.43,287.17 19.23,44.29 c 6.28,14.47 23.18,21.13 37.64,14.85 l 48.97,-21.26 c 14.48,-6.29 21.15,-23.18 14.87,-37.65 l -19.23,-44.29 -101.48,44.05 z m 85.02,8.59 -12.83,20.08 c -1.06,1.65 -2.5,2.88 -4.16,3.6 -1.31,0.57 -2.76,0.82 -4.24,0.69 -3.42,-0.26 -6.43,-2.49 -7.86,-5.78 L 469.62,289.6 c -1.42,-3.28 -1.02,-6.82 1.09,-9.48 2.13,-2.66 5.49,-3.85 9.01,-3.2 l 23.43,4.34 c 3.12,0.57 5.73,2.66 6.99,5.57 1.28,2.92 1.02,6.24 -0.69,8.92 z"
         id="path28"
         style="fill:#ffffff;stroke-width:0px" />
      <path
         class="cls-8"
         d="m 501.69,289.23 -23.43,-4.34 c -0.35,-0.07 -0.67,-0.05 -0.9,0.05 -0.12,0.05 -0.22,0.13 -0.3,0.22 -0.23,0.29 -0.23,0.73 -0.01,1.23 l 10.74,24.75 c 0.24,0.56 0.65,0.91 1.07,0.95 0.35,0.02 0.66,-0.17 0.94,-0.58 l 12.83,-20.08 c 0.35,-0.55 0.21,-1.08 0.1,-1.34 -0.11,-0.26 -0.39,-0.73 -1.03,-0.85 z"
         id="path29"
         style="fill:#ffffff;stroke-width:0px" />
      <path
         class="cls-8"
         d="m 447.11,268.5 -18.65,-17.66 c -7.4,7.39 -10.37,18.5 -7.1,28.84 z"
         id="path30"
         style="fill:#ffffff;stroke-width:0px" />
    </g>
    <rect
       class="cls-2"
       width="1000"
       height="630"
       id="rect30"
       style="fill:none;stroke-width:0px"
       x="366.31506"
       y="218.17566" />
  </g>
</svg>
