<svg xmlns="http://www.w3.org/2000/svg" xmlns:xlink="http://www.w3.org/1999/xlink" viewBox="0 0 3756 1878"><defs><style>.cls-1{fill:none;}.cls-2{isolation:isolate;}.cls-3{fill:#143002;}.cls-4{fill:#f9f9fa;}.cls-5{clip-path:url(#clip-path);}.cls-6{fill:#f99525;}.cls-7{fill:#e06e36;}.cls-8{fill:#9b391b;}.cls-9{fill:#ffe8b0;}.cls-10{fill:#fcc852;}.cls-11{fill:#c65326;}.cls-12{fill:#e5801c;}.cls-13{fill:#aaaadc;}.cls-14{fill:#137dc3;}.cls-15{fill:#01b4dd;}.cls-16{fill:#efeff4;}.cls-17,.cls-36,.cls-37,.cls-38,.cls-40,.cls-41,.cls-42{fill-rule:evenodd;}.cls-17{fill:url(#linear-gradient);}.cls-18{fill:#fff;mix-blend-mode:screen;opacity:0.5;}.cls-19{fill:#e0def4;}.cls-20{fill:#3c3a61;}.cls-21,.cls-23{fill:#e22342;}.cls-22{fill:#8687be;}.cls-23,.cls-24{stroke:#f9f9fa;stroke-miterlimit:10;stroke-width:0.93px;}.cls-24,.cls-39{fill:#2d2a45;}.cls-25{fill:#3f8417;}.cls-26{fill:#9dcc42;}.cls-27{fill:#def4ae;}.cls-28{fill:#6c1238;}.cls-29{fill:#af1641;}.cls-30{fill:#fd6649;}.cls-31{fill:#8686c4;}.cls-32{opacity:0.3;}.cls-33{fill:#535385;}.cls-34{opacity:0.8;}.cls-35{opacity:0.6;}.cls-36{fill:url(#linear-gradient-2);}.cls-37{fill:url(#linear-gradient-3);}.cls-38{fill:url(#linear-gradient-4);}.cls-40{fill:url(#linear-gradient-5);}.cls-41{fill:url(#linear-gradient-6);}.cls-42{fill:url(#linear-gradient-7);}</style><clipPath id="clip-path"><rect class="cls-1" width="3756" height="1878"/></clipPath><linearGradient id="linear-gradient" x1="4896.72" y1="3204.96" x2="4896.72" y2="3051.33" gradientTransform="matrix(-0.86, -0.73, 0.53, -0.96, 4310.64, 6903.26)" gradientUnits="userSpaceOnUse"><stop offset="0" stop-color="#01b4dd"/><stop offset="1" stop-color="#137dc3"/></linearGradient><linearGradient id="linear-gradient-2" x1="2200.87" y1="-1024.84" x2="2200.87" y2="-1114.59" gradientTransform="matrix(-0.05, 1, -1, -0.05, -88.45, -954.07)" gradientUnits="userSpaceOnUse"><stop offset="0" stop-color="#e22342"/><stop offset="1" stop-color="#af1641"/></linearGradient><linearGradient id="linear-gradient-3" x1="3797.85" y1="-1669.84" x2="3797.85" y2="-1793.42" gradientTransform="matrix(-0.2, -0.98, 0.98, -0.2, 3808.95, 3753.89)" xlink:href="#linear-gradient-2"/><linearGradient id="linear-gradient-4" x1="3356.23" y1="432.33" x2="3356.23" y2="308.75" gradientTransform="translate(282.78 1413.15) rotate(-23.04)" xlink:href="#linear-gradient-2"/><linearGradient id="linear-gradient-5" x1="7209.56" y1="15668" x2="7209.56" y2="15602.58" gradientTransform="matrix(-0.66, 0.75, -0.75, -0.66, 17291.42, 5179.81)" gradientUnits="userSpaceOnUse"><stop offset="0" stop-color="#535385"/><stop offset="1" stop-color="#3c3a61"/></linearGradient><linearGradient id="linear-gradient-6" x1="428.47" y1="2061.54" x2="428.47" y2="1840.68" gradientTransform="matrix(0.93, -0.36, 0.36, 0.93, -641.68, 211.43)" gradientUnits="userSpaceOnUse"><stop offset="0" stop-color="#b4ec51"/><stop offset="1" stop-color="#429321"/></linearGradient><linearGradient id="linear-gradient-7" x1="2546.92" y1="2001.08" x2="2546.92" y2="1874" gradientTransform="matrix(-0.51, -0.86, 0.86, -0.51, 2119.54, 4224.78)" xlink:href="#linear-gradient-6"/></defs><g class="cls-2"><g id="Layer_1" data-name="Layer 1"><rect class="cls-3" width="3756" height="1878"/><path class="cls-4" d="M460.08,884.14s0,1.87,0,4.93c0-.76-.05-1.52-.05-2.29S460,885,460.08,884.14Z"/><g class="cls-5"><ellipse class="cls-6" cx="3083.25" cy="721.88" rx="214.2" ry="116.95" transform="translate(1836.03 3632.54) rotate(-79.98)"/><ellipse class="cls-7" cx="3065.9" cy="718.81" rx="214.2" ry="116.95" transform="translate(1824.72 3612.93) rotate(-79.98)"/><ellipse class="cls-8" cx="3051.61" cy="716.29" rx="214.2" ry="116.95" transform="translate(1815.4 3596.77) rotate(-79.98)"/><ellipse class="cls-6" cx="3036.65" cy="713.65" rx="214.2" ry="116.95" transform="translate(1805.64 3579.85) rotate(-79.98)"/><path class="cls-9" d="M2901.19,687.56c20.57-116.5,89.59-201.69,154.16-190.29.43.08.86.15,1.28.24h0l.5.11h0l1.85.41c62.2,14.67,96.09,116.58,75.91,230.82s-86.93,198.37-150.39,190.83c-.63-.07-1.26-.15-1.88-.25a0,0,0,0,1-.05,0l-.51-.07h0q-.65-.09-1.29-.21C2916.26,907.74,2880.61,804.06,2901.19,687.56Z"/><path class="cls-10" d="M2904,688.06c20.41-115.57,88.49-200.32,152.6-190.55h0l.5.11h0l1.85.41c62.2,14.67,96.09,116.58,75.91,230.82s-86.93,198.37-150.39,190.83c-.63-.07-1.26-.15-1.88-.25a0,0,0,0,1-.05,0l-.51-.07h0C2918.53,906.57,2883.61,803.63,2904,688.06Z"/><path class="cls-6" d="M2908.37,688.83c19.31-109.34,84.09-189.3,144.69-178.59q.86.15,1.71.33s0,0,0,0l1.74.38c58.38,13.76,90.19,109.41,71.25,216.63s-81.59,186.17-141.15,179.1c-.59-.07-1.18-.14-1.77-.23h0c-.58-.08-1.15-.17-1.73-.27C2922.52,895.47,2889.06,798.17,2908.37,688.83Z"/><path class="cls-10" d="M2945.29,695.32c13.06-73.94,56.87-128,97.85-120.77.39.06.77.14,1.16.22h0l1.17.26c.5.12,1,.24,1.47.38,38.54,10.54,59.37,74.52,46.72,146.12s-54.13,124.57-94,121.27c-.51,0-1-.09-1.51-.15l-1.19-.15h0q-.59-.07-1.17-.18C2954.86,835.08,2932.23,769.27,2945.29,695.32Z"/><path class="cls-11" d="M2945.69,695.39c12.74-72.1,55.46-124.83,95.42-117.77l1.12.22h0l1.15.25c.48.12,1,.23,1.43.37,37.58,10.28,57.89,72.67,45.56,142.49s-52.79,121.47-91.62,118.25c-.49,0-1-.08-1.47-.14l-1.16-.15h0q-.57-.07-1.14-.18C2955,831.67,2933,767.5,2945.69,695.39Z"/><path class="cls-12" d="M2953.35,696.75c12.32-69.76,52.69-121.38,91.49-118.28,37.58,10.28,57.89,72.67,45.56,142.49s-52.79,121.47-91.62,118.25C2961.27,828.83,2941,766.5,2953.35,696.75Z"/><g id="Layer_2" data-name="Layer 2"><g id="Layer_1-2" data-name="Layer 1-2"><g id="Layer_2-2" data-name="Layer 2-2"><g id="Layer_1-2-2" data-name="Layer 1-2-2"><polygon class="cls-11" points="3047.17 759.67 3063.46 667.46 3034.08 640.13 3027.42 638.96 3017.66 733.09 2977.57 750.61 2999.75 776.21 3006.42 777.38 3047.17 759.67"/><polygon class="cls-11" points="3015.42 729.95 3024.32 679.53 2994.95 652.2 2988.28 651.02 2971.67 745.06 2978.34 746.23 3015.42 729.95"/></g></g></g></g><g id="Layer_2-2-2" data-name="Layer 2"><g id="Layer_1-2-2-2" data-name="Layer 1-2"><g id="Layer_2-2-3" data-name="Layer 2-2"><g id="Layer_1-2-2-3" data-name="Layer 1-2-2"><polygon class="cls-10" points="2970.9 749.44 3011 731.91 3027.42 638.96 3056.79 666.29 3040.51 758.49 2999.76 776.21 2970.9 749.44"/><polygon class="cls-6" points="2971.67 745.05 2988.28 651.02 3010.03 671.24 3010.03 671.25 3017.66 678.35 3008.75 728.77 2988.12 737.83 2971.67 745.05"/></g></g></g><polygon class="cls-6" points="3040.51 758.49 3011 731.91 3027.42 638.96 3056.79 666.29 3040.51 758.49"/></g><polygon class="cls-9" points="2970.9 749.44 3011 731.91 3027.42 638.96 3014.63 734.41 2976.75 751.88 2986.2 763.63 2970.9 749.44"/><polygon class="cls-10" points="2971.67 745.05 2988.28 651.02 3010.03 671.24 3010.03 671.25 3000.9 665.48 2988.12 737.83 2971.67 745.05"/><polygon class="cls-9" points="2981.42 740.77 2974.4 739.53 2989.2 655.73 2996.93 659.06 2988.28 651.02 2971.67 745.05 2981.42 740.77"/><polygon class="cls-11" points="2993.3 894.64 2974.49 891.32 2980.49 875.89 2980.49 875.89 2982.6 870.47 2992.68 872.25 2993.02 884.71 2993.3 894.64"/><polygon class="cls-11" points="3047.16 874.69 3027.87 888.78 3024.6 888.2 3029.14 871.77 3036.66 857.67 3039.93 858.24 3043.95 867.4 3047.16 874.69"/><polygon class="cls-11" points="3093.66 811.98 3079.06 839.71 3075.8 839.13 3078.67 819.21 3073.94 820.74 3078.49 805.3 3081.76 805.87 3088.38 809.27 3093.66 811.98"/><polygon class="cls-11" points="3120.35 723.3 3114.36 757.24 3111.09 756.66 3106.51 749.94 3103.75 747.38 3106.97 729.18 3116.17 723.13 3120.35 723.3"/><polygon class="cls-11" points="3120.07 632.43 3124.29 663.48 3114.49 664.87 3114.49 664.87 3111.05 665.36 3107.78 664.78 3108.79 648.71 3116.81 631.85 3120.07 632.43"/><polygon class="cls-11" points="3092.91 563.7 3106.2 583.55 3097.08 593.26 3097.07 593.26 3093.87 596.67 3090.61 596.09 3086.74 586.03 3089.64 563.13 3092.91 563.7"/><polygon class="cls-11" points="3046.12 535.54 3064.93 538.87 3058.93 554.29 3058.93 554.29 3056.82 559.71 3046.74 557.93 3046.4 545.47 3046.12 535.54"/><polygon class="cls-11" points="2992.26 555.49 3008.28 540.82 3011.55 541.4 3010.28 558.41 3010.28 558.41 3009.83 564.38 2999.49 571.94 2996.22 571.36 2992.26 555.49"/><polygon class="cls-11" points="2945.76 618.21 2957.09 589.9 2960.36 590.48 2964.15 604.51 2964.15 604.51 2965.48 609.44 2957.66 624.31 2954.39 623.73 2945.76 618.21"/><polygon class="cls-11" points="2919.07 706.88 2915.8 706.3 2921.8 672.36 2925.07 672.94 2932.91 680.24 2932.91 680.24 2935.67 682.8 2932.45 701 2925 704.27 2919.07 706.88"/><polygon class="cls-11" points="2919.34 797.75 2916.08 797.18 2915.13 766.7 2922.87 774.13 2925.1 764.24 2928.37 764.82 2930.63 781.47 2924.35 790.53 2919.34 797.75"/><polygon class="cls-11" points="2946.51 866.48 2943.25 865.9 2933.22 846.63 2942.34 836.92 2942.28 832.93 2945.55 833.51 2952.67 844.15 2949.25 856.58 2946.51 866.48"/><polygon class="cls-10" points="2990.03 894.06 2971.22 890.74 2977.22 875.31 2977.22 875.31 2979.33 869.9 2989.41 871.68 2989.76 884.13 2990.03 894.06"/><polygon class="cls-10" points="3043.89 874.11 3024.6 888.2 3025.87 871.2 3025.88 871.19 3026.32 865.22 3036.66 857.67 3040.68 866.82 3043.89 874.11"/><polygon class="cls-10" points="3090.39 811.4 3075.8 839.13 3072 825.1 3072 825.09 3070.67 820.17 3078.49 805.3 3085.12 808.69 3090.39 811.4"/><polygon class="cls-10" points="3117.08 722.72 3111.09 756.66 3103.24 749.37 3103.24 749.36 3100.49 746.8 3103.7 728.6 3111.15 725.33 3117.08 722.72"/><polygon class="cls-10" points="3116.81 631.85 3121.02 662.9 3111.22 664.3 3111.22 664.29 3107.78 664.78 3105.52 648.13 3111.8 639.07 3116.81 631.85"/><polygon class="cls-10" points="3089.64 563.13 3102.93 582.97 3093.81 592.68 3093.81 592.68 3090.61 596.09 3083.48 585.45 3086.91 573.02 3089.64 563.13"/><polygon class="cls-10" points="3042.86 534.97 3061.66 538.29 3055.66 553.71 3055.66 553.72 3053.56 559.13 3043.47 557.35 3043.13 544.89 3042.86 534.97"/><polygon class="cls-10" points="2989 554.91 3008.28 540.82 3007.01 557.83 3007.01 557.84 3006.56 563.8 2996.22 571.36 2992.2 562.21 2989 554.91"/><polygon class="cls-10" points="2942.49 617.63 2957.09 589.9 2960.88 603.93 2960.88 603.93 2962.22 608.86 2954.39 623.73 2947.77 620.33 2942.49 617.63"/><polygon class="cls-10" points="2915.8 706.3 2921.8 672.36 2929.64 679.66 2929.65 679.66 2932.4 682.23 2929.18 700.43 2921.74 703.7 2915.8 706.3"/><polygon class="cls-10" points="2916.08 797.18 2911.86 766.12 2921.66 764.73 2921.66 764.73 2925.1 764.24 2927.36 780.89 2921.08 789.96 2916.08 797.18"/><polygon class="cls-10" points="2943.25 865.9 2929.95 846.05 2939.08 836.34 2939.08 836.34 2942.28 832.93 2949.41 843.58 2945.98 856 2943.25 865.9"/><ellipse class="cls-6" cx="882.57" cy="777.82" rx="101.01" ry="185" transform="translate(-252.1 467.26) rotate(-26.08)"/><ellipse class="cls-7" cx="896.23" cy="771.13" rx="101.01" ry="185" transform="translate(-247.77 472.58) rotate(-26.08)"/><ellipse class="cls-8" cx="907.49" cy="765.62" rx="101.01" ry="185" transform="translate(-244.2 476.97) rotate(-26.08)"/><ellipse class="cls-6" cx="919.28" cy="759.85" rx="101.01" ry="185" transform="translate(-240.46 481.57) rotate(-26.08)"/><path class="cls-9" d="M1027.09,709.12c44.92,91.77,40.11,186.34-10.75,211.24l-1,.48,0,0-.41.18,0,0-1.5.66C962.48,943.13,887,889.27,842.91,799.28s-40.28-182.67,7.84-209.71l1.44-.79h0l.39-.21,0,0,1-.5C904.52,563.14,982.16,617.35,1027.09,709.12Z"/><path class="cls-10" d="M1024.85,710.21c44.56,91,40.19,184.83-9.53,210.63l0,0-.41.18,0,0-1.5.66C962.48,943.13,887,889.27,842.91,799.28s-40.28-182.67,7.84-209.71l1.44-.79h0l.39-.21,0,0C903.53,565.11,980.28,619.18,1024.85,710.21Z"/><path class="cls-6" d="M1021.43,711.89c42.16,86.13,37.64,174.89-10.09,198.26l-1.37.64h0c-.47.22-.94.42-1.41.62-47.74,20.1-118.61-30.46-160-114.92s-37.8-171.44,7.36-196.81l1.35-.74a.05.05,0,0,1,0,0c.44-.23.88-.46,1.34-.68C906.39,574.88,979.26,625.76,1021.43,711.89Z"/><path class="cls-10" d="M992.35,726.14c28.52,58.25,25.46,118.28-6.82,134.08-.31.15-.61.3-.92.43l0,0-1,.41c-.4.17-.8.33-1.21.48-32.26,12.26-79.35-21.79-107-78.19s-25.61-114.48,3.86-132.44l1.12-.67.91-.49,0,0,.91-.46C914.56,633.49,963.84,667.89,992.35,726.14Z"/><path class="cls-11" d="M992,726.3c27.8,56.8,24.83,115.33-6.65,130.74q-.45.23-.9.42h0l-.93.41c-.4.16-.79.32-1.19.46-31.46,12-77.38-21.24-104.3-76.24s-25-111.63,3.76-129.15c.35-.22.72-.44,1.09-.64l.89-.49h0l.88-.46C916.18,636,964.23,669.5,992,726.3Z"/><path class="cls-12" d="M986,729.25c26.9,55,25,111.51-3.66,129.09-31.46,12-77.38-21.24-104.3-76.24s-25-111.63,3.76-129.15C913.27,641.11,959.11,674.3,986,729.25Z"/><g id="Layer_2-3" data-name="Layer 2"><g id="Layer_1-2-3" data-name="Layer 1-2"><g id="Layer_2-2-4" data-name="Layer 2-2"><g id="Layer_1-2-2-4" data-name="Layer 1-2-2"><polygon class="cls-11" points="888.51 733.09 924.07 805.72 958.48 809.84 963.73 807.27 922.63 736.62 941.7 703.99 913.19 697.41 907.94 699.98 888.51 733.09"/><polygon class="cls-11" points="925.8 737.67 945.24 777.39 979.65 781.51 984.9 778.94 948.63 704.86 943.38 707.43 925.8 737.67"/></g></g></g></g><g id="Layer_2-4" data-name="Layer 2"><g id="Layer_1-2-4" data-name="Layer 1-2"><g id="Layer_2-2-5" data-name="Layer 2-2"><g id="Layer_1-2-2-5" data-name="Layer 1-2-2"><polygon class="cls-10" points="946.95 701.41 927.88 734.05 963.73 807.27 929.32 803.15 893.76 730.51 913.19 697.42 946.95 701.41"/><polygon class="cls-6" points="948.64 704.86 984.9 778.94 959.43 775.89 959.43 775.89 950.49 774.82 931.05 735.1 940.84 718.27 948.64 704.86"/></g></g></g><polygon class="cls-6" points="893.76 730.51 927.88 734.05 963.73 807.27 929.32 803.15 893.76 730.51"/></g><polygon class="cls-9" points="946.95 701.41 927.88 734.05 963.73 807.27 924.08 734.15 941.62 702.69 929.04 699.29 946.95 701.41"/><polygon class="cls-10" points="948.64 704.86 984.9 778.94 959.43 775.89 959.43 775.89 968.74 775.27 940.84 718.27 948.64 704.86"/><polygon class="cls-9" points="944.01 712.81 949.54 710.11 981.86 776.12 974.78 777.73 984.9 778.94 948.64 704.86 944.01 712.81"/><polygon class="cls-11" points="857.42 611.48 872.24 604.23 875.9 618.05 875.9 618.05 877.19 622.9 869.24 626.79 862.67 618.27 857.42 611.48"/><polygon class="cls-11" points="829.99 652.81 836.28 633.16 838.85 631.9 844.05 645.68 845.98 659.35 843.4 660.61 835.94 656.27 829.99 652.81"/><polygon class="cls-11" points="829.45 720.24 825.53 693.46 828.1 692.2 836.23 707.56 838.76 704.09 843.43 717.19 840.86 718.45 834.51 719.45 829.45 720.24"/><polygon class="cls-11" points="855.95 795.71 842.87 768.97 845.44 767.71 852.06 770.07 855.28 770.46 862.3 784.79 858.96 793.7 855.95 795.71"/><polygon class="cls-11" points="902.39 858.98 883.65 839.45 889.78 833.5 889.78 833.5 891.93 831.4 894.5 830.14 901.98 841.88 904.97 857.72 902.39 858.98"/><polygon class="cls-11" points="956.32 893.11 936.95 886.03 938.37 874.61 938.37 874.61 938.87 870.6 941.45 869.34 949.26 874.4 958.9 891.85 956.32 893.11"/><polygon class="cls-11" points="1003.3 888.96 988.48 896.21 984.82 882.39 984.82 882.39 983.54 877.54 991.48 873.65 998.06 882.17 1003.3 888.96"/><polygon class="cls-11" points="1030.73 847.63 1027.02 866.02 1024.44 867.28 1016.68 854.76 1016.68 854.76 1013.95 850.36 1017.32 839.83 1019.9 838.57 1030.73 847.63"/><polygon class="cls-11" points="1031.27 780.2 1037.77 805.72 1035.2 806.98 1025.41 799.12 1025.4 799.11 1021.97 796.35 1019.86 781.99 1022.44 780.73 1031.27 780.2"/><polygon class="cls-11" points="1004.77 704.73 1007.35 703.47 1020.43 730.21 1017.86 731.47 1008.67 730.37 1008.67 730.37 1005.44 729.98 998.42 715.65 1001.96 709.57 1004.77 704.73"/><polygon class="cls-11" points="958.33 641.46 960.91 640.2 977.08 660.99 967.89 659.74 971.37 667.77 968.8 669.03 958.75 658.56 958.52 649.04 958.33 641.46"/><polygon class="cls-11" points="904.4 607.33 906.98 606.07 923.78 614.41 922.35 625.83 924.43 628.58 921.85 629.84 911.46 626.04 907.53 615.63 904.4 607.33"/><polygon class="cls-10" points="860 610.22 874.82 602.97 878.48 616.79 878.48 616.79 879.76 621.64 871.82 625.53 865.24 617.01 860 610.22"/><polygon class="cls-10" points="832.57 651.55 838.85 631.9 846.62 644.42 846.62 644.42 849.35 648.82 845.98 659.35 838.51 655.01 832.57 651.55"/><polygon class="cls-10" points="832.03 718.98 828.1 692.2 837.89 700.06 837.89 700.07 841.33 702.83 843.43 717.19 837.09 718.18 832.03 718.98"/><polygon class="cls-10" points="858.53 794.45 845.44 767.71 854.63 768.81 854.63 768.81 857.86 769.2 864.88 783.53 861.34 789.61 858.53 794.45"/><polygon class="cls-10" points="904.97 857.72 886.22 838.19 892.35 832.24 892.35 832.24 894.5 830.14 904.55 840.62 904.78 850.13 904.97 857.72"/><polygon class="cls-10" points="958.9 891.85 939.52 884.77 940.95 873.35 940.95 873.35 941.45 869.34 951.84 873.14 955.76 883.55 958.9 891.85"/><polygon class="cls-10" points="1005.87 887.7 991.06 894.95 987.39 881.13 987.39 881.13 986.11 876.28 994.05 872.39 1000.63 880.91 1005.87 887.7"/><polygon class="cls-10" points="1033.31 846.37 1027.02 866.02 1019.25 853.5 1019.25 853.5 1016.52 849.1 1019.9 838.57 1027.36 842.91 1033.31 846.37"/><polygon class="cls-10" points="1033.85 778.94 1037.77 805.72 1027.98 797.86 1027.98 797.85 1024.54 795.09 1022.44 780.73 1028.79 779.73 1033.85 778.94"/><polygon class="cls-10" points="1007.35 703.47 1020.43 730.21 1011.24 729.11 1011.24 729.11 1008.01 728.72 1001 714.39 1004.53 708.31 1007.35 703.47"/><polygon class="cls-10" points="960.91 640.2 979.65 659.73 973.52 665.68 973.52 665.68 971.37 667.77 961.32 657.3 961.09 647.78 960.91 640.2"/><polygon class="cls-10" points="906.98 606.07 926.35 613.15 924.93 624.57 924.93 624.57 924.43 628.58 914.04 624.78 910.11 614.37 906.98 606.07"/><path class="cls-13" d="M1903,171.21c-17-15.39-44.78-25.14-78.71-28.26l13.7,41.92,78.71,28.26Z"/><path class="cls-14" d="M1933.11,239.07s-11.11-32-13.69-41.92-8.26-18.55-16.4-25.94l13.7,41.92Z"/><path class="cls-14" d="M1824.31,143c-33.18-3-72.15.22-112.49,10.79l13.7,41.92L1838,184.87Z"/><path class="cls-13" d="M1565.92,335.32l1.56-30.64-13.7-41.92c-3.47,10.43-4.15,20.76-1.56,30.64S1565.92,335.32,1565.92,335.32Z"/><path class="cls-14" d="M1608.51,199.52c-28,19.36-47.5,41.51-54.73,63.24l13.7,41.92,54.73-63.24Z"/><path class="cls-13" d="M1711.82,153.74c-40.33,10.57-75.9,26.84-103.31,45.78l13.7,41.92,103.31-45.78Z"/><path class="cls-15" d="M1773.51,378.73c40.33-10.58,75.9-26.85,103.31-45.78l-127.3-45.76Z"/><path class="cls-16" d="M1876.82,333c28-19.37,47.51-41.51,54.73-63.24l-182,17.48Z"/><path class="cls-15" d="M1931.55,269.71c3.47-10.43,4.15-20.77,1.56-30.64s-8.25-18.55-16.39-25.94l-167.2,74.06Z"/><path class="cls-15" d="M1582.31,361.25c17,15.39,44.78,25.14,78.71,28.27l88.5-102.33Z"/><path class="cls-16" d="M1661,389.52c33.18,3.05,72.15-.22,112.49-10.79l-24-91.54Z"/><path class="cls-15" d="M1838,184.87c-33.18-3.05-72.15.22-112.49,10.79l24,91.53Z"/><path class="cls-15" d="M1622.21,241.44c-28,19.36-47.5,41.51-54.73,63.24l182-17.49Z"/><path class="cls-16" d="M1582.31,361.25l167.21-74.06-182,17.49c-3.47,10.43-4.15,20.76-1.56,30.64S1574.17,353.86,1582.31,361.25Z"/><path class="cls-16" d="M1725.52,195.66c-40.33,10.57-75.9,26.84-103.31,45.78l127.31,45.75Z"/><path class="cls-16" d="M1916.72,213.13c-17-15.39-44.78-25.14-78.71-28.26l-88.49,102.32Z"/><ellipse class="cls-15" cx="1749.52" cy="287.19" rx="141.04" ry="70.32" transform="translate(-15.65 452.99) rotate(-14.69)"/><path class="cls-4" d="M1626,319.55c-8.91-34,39.15-76,107.36-93.92,2.13-.56,4.24-1.07,6.38-1.58l.2-.05c65.57-15.37,124.39-2.07,133,30.82s-36.1,73.36-100.78,92.13l-.2.05c-2.12.61-4.21,1.19-6.34,1.75C1697.46,366.63,1635,353.56,1626,319.55Z"/><path class="cls-17" d="M1705.85,340.63c-3.36.9-5.57.9-7.94.07q-20-7-40.41-13.73c-2.46-.81-2.85-1.57-.9-3.57q39.33-40,78.33-80.16c2-2,3-2.31,5.72-1.5q53.65,15.81,107.58,31.43c2.66.77,2.76,1.6,1,3.53q-14.46,15.87-28.48,31.79c-1.66,1.88-3.56,3-6.94,3.85-18,4.63-36,9.39-54,14.11s-36,9.39-54,14.18Zm97.35-34.38c3-.78,5.09-1.68,6.67-3.51q8.75-10.11,18-20.15c1.7-1.85,1.87-2.77-.89-3.57q-41.61-12-82.9-24.22c-2.71-.8-3.8-.5-5.76,1.52q-30,30.9-60.35,61.76c-2,2.06-1.42,2.77,1,3.55q13,4.2,25.59,8.72c2.28.82,4.51.59,7.54-.22,15.17-4,30.36-8,45.55-12s30.36-8,45.56-11.92Zm-15.17-.64c-6,1.41-12,3.05-18,4.69-2.66.73-3.73.74-3.36-1,.72-3.3,1-6.55,1.58-10.71L1750.11,314a10.62,10.62,0,0,1-4.83,2.77c-11,2.83-22.07,5.76-34.61,9L1740,300.9l-41,10.74,42.36-49.75,1-.08c-.66,6.91-1.31,13.82-2,20.74-.43,4.24-.48,4.53,6.33,2.76l1.56-.41c6.38-1.67,12.73-3.43,19.13-5,3.11-.75,4.15-1.66,4.27-3.23.18-2.22.64-4.49,1.07-7.37l22.61,6.61c1.68.48,1.17,1.62,1,2.62-1.11,7.79-2.37,15.6-3.37,23.38-.23,1.85-1.35,2.84-4.91,3.67Z"/><path class="cls-18" d="M1565.92,335.29c-13.24-50.52,58.19-113,159.61-139.63,3.18-.83,6.32-1.59,9.47-2.34-96,27.94-162.36,88-149.56,136.85s100.1,68.71,197.48,45.95c-3.11.89-6.23,1.77-9.41,2.61C1672.09,405.31,1579.18,385.87,1565.92,335.29Z"/><rect class="cls-13" x="1029.88" y="471.65" width="367.51" height="508.74" rx="45.27" transform="translate(-194.74 854.49) rotate(-36.1)"/><rect class="cls-4" x="1045.14" y="460.53" width="367.51" height="508.73" rx="45.27" transform="translate(-185.25 861.35) rotate(-36.1)"/><rect class="cls-19" x="1046.65" y="465.17" width="351.77" height="508.73" rx="45.27" transform="translate(-189.21 858.49) rotate(-36.1)"/><path class="cls-20" d="M1266.89,666.63c-15.37-3.9-34.43-5.35-56.49-7-7.54-.57-16.08-1.22-25-2a9.8,9.8,0,0,0-10.44,7.61c-2,8.77-4,17.11-5.73,24.46-5.16,21.52-9.61,40.1-10.59,55.93-1.09,17.7,2.27,31.26,10.61,42.68,8.09,11.1,19.36,18.57,31.74,21a44.94,44.94,0,0,0,35.6-7.94l22.54-16.44,2.48,3.4-6.51,4.74a3.09,3.09,0,0,0-.67,4.32l5.09,7a3.1,3.1,0,0,0,4.32.68l25-18.23a3.1,3.1,0,0,0,.68-4.32l-5.1-7a3.1,3.1,0,0,0-4.32-.68l-6.5,4.75-2.48-3.4,25.08-18.29a45,45,0,0,0,18.44-31.47c1.44-12.53-2.22-25.55-10.31-36.65C1296,678.35,1284.07,671,1266.89,666.63Z"/><path class="cls-20" d="M1258.55,488.7c-4.46-1.14-10-1.56-16.4-2-2.19-.17-4.67-.36-7.27-.59a2.86,2.86,0,0,0-3,2.21c-.58,2.55-1.16,5-1.67,7.1-1.5,6.25-2.79,11.65-3.07,16.24-.32,5.14.66,9.08,3.08,12.39a15.18,15.18,0,0,0,9.21,6.11,13.06,13.06,0,0,0,10.34-2.31l6.54-4.77.72,1-1.89,1.38a.91.91,0,0,0-.19,1.26l1.48,2a.89.89,0,0,0,1.25.19l7.26-5.29a.9.9,0,0,0,.2-1.25l-1.48-2a.91.91,0,0,0-1.26-.2l-1.89,1.38-.72-1,7.29-5.31a13.06,13.06,0,0,0,5.35-9.14,15.19,15.19,0,0,0-3-10.64C1267,492.1,1263.54,490,1258.55,488.7Z"/><path class="cls-20" d="M1194,944.69c4.46,1.13,10,1.55,16.4,2,2.19.16,4.67.35,7.27.58a2.9,2.9,0,0,0,1.93-.53,2.83,2.83,0,0,0,1.1-1.68c.57-2.54,1.15-5,1.66-7.1,1.5-6.25,2.79-11.64,3.08-16.24.32-5.13-.66-9.07-3.08-12.39a15.15,15.15,0,0,0-9.22-6.1,13.08,13.08,0,0,0-10.33,2.3l-6.55,4.78-.72-1,1.89-1.38a.9.9,0,0,0,.2-1.25l-1.48-2a.91.91,0,0,0-1.26-.2l-7.25,5.3a.9.9,0,0,0-.2,1.25l1.48,2a.9.9,0,0,0,1.25.2l1.89-1.38.72,1-7.28,5.32a13,13,0,0,0-5.35,9.13,15.16,15.16,0,0,0,3,10.64C1185.58,941.29,1189,943.42,1194,944.69Z"/><path class="cls-20" d="M1197.7,448.65l10.85-7.91,4.19,5.75-2,1.47,14.36,19.69a12.94,12.94,0,0,1,.84,3.7c.09,1.24.13,2.39.13,3.46s-.08,2.47-.23,4.2l-5.49,3.57c-.09-1.68-.19-3.05-.3-4.09s-.29-2.17-.51-3.38a16.46,16.46,0,0,0-1.07-3.58l-13.91-19.07-2.67,2Z"/><path class="cls-20" d="M1252,987l-10.91,7.84L1237,989.1l2-1.45-14.23-19.79a12.88,12.88,0,0,1-.81-3.7c-.09-1.24-.12-2.4-.11-3.46s.1-2.47.26-4.2l5.51-3.53c.08,1.68.17,3,.28,4.09s.26,2.17.48,3.38a17.22,17.22,0,0,0,1.05,3.59l13.77,19.16,2.69-1.93Z"/><rect class="cls-13" x="2316.19" y="132.61" width="367.51" height="508.74" rx="45.27" transform="translate(1239.73 -1806.49) rotate(51.32)"/><rect class="cls-4" x="2257.37" y="217.97" width="508.73" height="367.51" rx="45.27" transform="translate(299.84 1657.8) rotate(-38.68)"/><rect class="cls-19" x="2252.46" y="219.7" width="508.73" height="351.77" rx="45.27" transform="translate(302.61 1653.38) rotate(-38.68)"/><path class="cls-20" d="M2565.48,413.64a53.83,53.83,0,0,0,7.61-5.07A53.22,53.22,0,1,0,2500,331.79a53.21,53.21,0,1,0-42.77,92.76l-9.79,7.84-4.64-5.79a2.84,2.84,0,0,0-4-.44l-6.22,5a2.82,2.82,0,0,0-.44,4l17.81,22.25a2.84,2.84,0,0,0,4,.44l6.21-5a2.85,2.85,0,0,0,.45-4l-4.64-5.8,9.67-7.73a53.21,53.21,0,1,0,99.89-21.68Z"/><path class="cls-20" d="M2740,408.48a12.73,12.73,0,0,0,1.67-1.11,11.66,11.66,0,0,0-14.57-18.2,12.68,12.68,0,0,0-1.45,1.38,11.65,11.65,0,1,0-9.36,20.31l-2.15,1.72-1-1.27a.62.62,0,0,0-.88-.09l-1.36,1.09a.62.62,0,0,0-.1.87l3.9,4.87a.63.63,0,0,0,.88.1l1.36-1.09a.63.63,0,0,0,.1-.88l-1-1.26,2.12-1.7a11.65,11.65,0,1,0,21.87-4.74Z"/><path class="cls-20" d="M2283.12,385.43a10.53,10.53,0,0,0-1.67,1.11A11.65,11.65,0,1,0,2296,404.73a11.87,11.87,0,0,0,1.45-1.38,11.65,11.65,0,1,0,9.36-20.31l2.15-1.72,1,1.27a.63.63,0,0,0,.88.1l1.36-1.09a.63.63,0,0,0,.1-.88l-3.9-4.87a.63.63,0,0,0-.88-.1l-1.36,1.09a.63.63,0,0,0-.1.88l1,1.27-2.12,1.69a11.65,11.65,0,1,0-21.87,4.75Z"/><path class="cls-20" d="M2745.9,373.72a16,16,0,0,1-1.72-5.73,17.8,17.8,0,0,1,.38-5.95,18.49,18.49,0,0,1,2.41-5.64,19.28,19.28,0,0,1,4.33-4.81,19.67,19.67,0,0,1,8.72-4,17.58,17.58,0,0,1,4.57-.25,17.12,17.12,0,0,1,4.41.91,16.62,16.62,0,0,1,4,2.06,16,16,0,0,1,3.4,3.19,16.35,16.35,0,0,1,3.51,8.4,17.4,17.4,0,0,1-.07,4.5,18.79,18.79,0,0,1-1.24,4.42,19.47,19.47,0,0,1-2.37,4.1,20,20,0,0,1-9.17,6.74,18.81,18.81,0,0,1-6.13,1.08,17.36,17.36,0,0,1-6-1,15.88,15.88,0,0,1-5.25-3.1c.15.51.27,1,.38,1.54s.23,1,.37,1.55.3,1,.48,1.47a5.49,5.49,0,0,0,.73,1.29,5.08,5.08,0,0,0,1,1,3.8,3.8,0,0,0,1.24.62,3.73,3.73,0,0,0,3-.43l1.24,5.71a8.42,8.42,0,0,1-3,1.17,8.12,8.12,0,0,1-3.07,0,9.25,9.25,0,0,1-2.89-1.17,9.54,9.54,0,0,1-2.44-2.19,7.78,7.78,0,0,1-1.33-2.5c-.31-.95-.57-1.89-.79-2.82s-.43-1.81-.63-2.63a4.87,4.87,0,0,0-.85-1.9l-.41-.53a3.94,3.94,0,0,0-.36-.45,4.56,4.56,0,0,0-.44-.44,5.18,5.18,0,0,0-.66-.48Zm7.52-1.82a8,8,0,0,0,3,2.37,9,9,0,0,0,3.69.78,11,11,0,0,0,3.92-.72,13.39,13.39,0,0,0,3.74-2.14,13.06,13.06,0,0,0,2.93-3.21,11.39,11.39,0,0,0,1.56-3.69,9.44,9.44,0,0,0,0-3.78,8.24,8.24,0,0,0-4.63-5.78A9.06,9.06,0,0,0,2764,355a11.38,11.38,0,0,0-4,.71,13,13,0,0,0-3.78,2.14,13.22,13.22,0,0,0-2.89,3.2,11.58,11.58,0,0,0-1.55,3.69,9,9,0,0,0-.05,3.76A7.92,7.92,0,0,0,2753.42,371.9Z"/><path class="cls-20" d="M2272.9,415.31a15.94,15.94,0,0,1,1.67,5.74,17.56,17.56,0,0,1-.42,5.95,18.46,18.46,0,0,1-2.44,5.62,20.17,20.17,0,0,1-8.6,7.35,19.76,19.76,0,0,1-4.52,1.38,18,18,0,0,1-4.57.23,17.19,17.19,0,0,1-4.4-.95,16.38,16.38,0,0,1-4-2.08,15.82,15.82,0,0,1-3.38-3.22,16,16,0,0,1-2.35-4,16.59,16.59,0,0,1-1-8.88,18.17,18.17,0,0,1,1.26-4.41,19.68,19.68,0,0,1,5.87-7.6,19,19,0,0,1,5.75-3.16,18.49,18.49,0,0,1,6.13-1,17.17,17.17,0,0,1,6,1.06,16,16,0,0,1,5.22,3.13c-.14-.51-.26-1-.37-1.54s-.22-1.05-.36-1.56a12.47,12.47,0,0,0-.47-1.46,5.29,5.29,0,0,0-.71-1.3,5.14,5.14,0,0,0-1-1,3.71,3.71,0,0,0-1.24-.62,3.85,3.85,0,0,0-1.41-.13,4,4,0,0,0-1.55.53l-1.2-5.71a8.37,8.37,0,0,1,3-1.16,8.12,8.12,0,0,1,3.07.07,9,9,0,0,1,2.88,1.19,9.71,9.71,0,0,1,2.43,2.2,7.89,7.89,0,0,1,1.31,2.51c.3.95.55,1.89.77,2.83s.41,1.81.61,2.63a4.92,4.92,0,0,0,.84,1.91c.15.2.29.37.4.53s.24.31.36.45a4.58,4.58,0,0,0,.44.45,5.18,5.18,0,0,0,.66.48Zm-7.54,1.77a7.91,7.91,0,0,0-3-2.39,9,9,0,0,0-3.69-.81,11,11,0,0,0-3.93.7,13.23,13.23,0,0,0-3.75,2.11,13.45,13.45,0,0,0-2.95,3.19,11.23,11.23,0,0,0-1.58,3.69,9.22,9.22,0,0,0-.07,3.77,8.27,8.27,0,0,0,4.59,5.81,9.05,9.05,0,0,0,3.68.8,11.62,11.62,0,0,0,4-.69,13.11,13.11,0,0,0,3.8-2.11,13.25,13.25,0,0,0,2.91-3.18,11.69,11.69,0,0,0,1.57-3.68,9.17,9.17,0,0,0,.08-3.76A7.92,7.92,0,0,0,2265.36,417.08Z"/><rect class="cls-13" x="2470" y="473.81" width="367.51" height="508.74" rx="45.27" transform="translate(1174.02 -1591.97) rotate(42.13)"/><rect class="cls-4" x="2413.4" y="557.09" width="508.73" height="367.51" rx="45.27" transform="translate(328.83 2222.47) rotate(-47.87)"/><rect class="cls-19" x="2407.56" y="559.68" width="508.73" height="351.77" rx="45.27" transform="translate(330.83 2216.4) rotate(-47.87)"/><path class="cls-21" d="M2728.79,776l3.6-103.4a13.13,13.13,0,0,0-14.89-13.46L2615,673.08a13.14,13.14,0,0,0-11.35,12.55L2600,789a13.12,13.12,0,0,0,14.88,13.46l102.52-13.93A13.12,13.12,0,0,0,2728.79,776Z"/><path class="cls-21" d="M2900.82,717l.95-27.11a3.44,3.44,0,0,0-3.9-3.53L2871,690a3.44,3.44,0,0,0-3,3.29l-1,27.11A3.45,3.45,0,0,0,2871,724l26.88-3.65A3.44,3.44,0,0,0,2900.82,717Z"/><path class="cls-21" d="M2473.78,776.65l.95-27.11a3.44,3.44,0,0,0-3.91-3.53l-26.88,3.65a3.42,3.42,0,0,0-3,3.29l-.95,27.11a3.45,3.45,0,0,0,3.91,3.53l26.88-3.65A3.45,3.45,0,0,0,2473.78,776.65Z"/><path class="cls-21" d="M2917.84,642.41l11.35,10.13-4.29,4.81-2.8-2.5-6.88,7.71,15.08.18,4.57-5.13,9,8.07-4.6,5.16-2-1.76-15.6-.3.82,16.13,2.15,1.91-4.64,5.2-8.79-7.85,4.63-5.19-.92-16.15-8,8.93,2.8,2.5-4.28,4.79-11.35-10.13,4.28-4.79,2.74,2.45,15.09-16.91-2.74-2.45Z"/><path class="cls-21" d="M2421,824.86l-11.28-10.2,4.32-4.78,2.78,2.52,6.93-7.67-15.08-.27-4.6,5.09-9-8.13,4.64-5.12,2,1.77,15.6.4-.71-16.13-2.13-1.93,4.67-5.17,8.74,7.91-4.67,5.16.81,16.16,8-8.88-2.78-2.52,4.31-4.76,11.28,10.2-4.31,4.77-2.72-2.47-15.21,16.81,2.73,2.46Z"/><path class="cls-7" d="M2551.33,928.6c0,369.9-297.56,670.29-666.38,674.87-368.88-4.52-666.44-305-666.44-674.87S1516.07,258.24,1885,253.73C2253.77,258.3,2551.33,558.7,2551.33,928.6Z"/><path class="cls-6" d="M2629.06,928.6c0,360.38-282.44,654.81-638.07,674q-18.35,1-36.93,1c-2.89,0-5.72,0-8.55-.12-368.88-4.52-666.44-305-666.44-674.87s297.56-670.36,666.44-674.87c2.83-.12,5.66-.12,8.55-.12a677,677,0,0,1,100.72,7.47C2379.8,309.69,2629.06,590,2629.06,928.6Z"/><path class="cls-7" d="M2551.35,928.6c0,316.11-245.63,574.88-556.39,595.84-13.49,1-27.16,1.45-40.9,1.45q-8,0-16.08-.18c-322.5-8.56-581.2-272.63-581.2-597.11S1615.48,340,1938,331.49q8-.18,16.08-.18a596.7,596.7,0,0,1,100.72,8.49C2336.68,387.63,2551.35,633.09,2551.35,928.6Z"/><path class="cls-20" d="M2519.13,928.6c0,.73,0,1.45,0,2.18-.57,159.17-63.42,303.69-165.47,410.44-1,1.06-2,2.1-3,3.14-104.61,107.87-249.56,176.42-410.5,181.28l-2.15.07-2.21-.07c-161-4.85-305.93-73.39-410.53-181.25-1-1-2-2.08-3-3.14a595.24,595.24,0,0,1-165.43-410.47c0-.73,0-1.45,0-2.18s0-1.45,0-2.17a595.27,595.27,0,0,1,165.43-410.49c1-1,2-2.09,3-3.12,104.59-107.88,249.54-176.4,410.53-181.26l2.21-.07,2.15.07c160.94,4.87,305.89,73.41,410.5,181.29,1,1,2,2.08,3,3.12,102,106.76,164.9,251.28,165.47,410.46C2519.13,927.15,2519.13,927.87,2519.13,928.6Z"/><path class="cls-10" d="M2629.06,928.6c0,345.34-259.35,630.11-593.93,670.14a37.66,37.66,0,0,1-41.94-39.37l.12-2.43a37.52,37.52,0,0,1,32.82-35.42C2322,1486,2551.35,1234.07,2551.35,928.6c0-285-199.61-523.37-466.63-582.92a37.9,37.9,0,0,1-29.94-36.87v-2.43a37.66,37.66,0,0,1,45.66-36.85C2402.86,336.38,2629.06,606.06,2629.06,928.6Z"/><path class="cls-22" d="M2519.12,930.78H1943.21l410.44,410.44c-1,1.06-2,2.1-3,3.14l-410.5-410.5v592h-4.36v-592l-410.53,410.54c-1-1-2-2.08-3-3.14l410.47-410.47h-575.9c0-.73,0-1.45,0-2.18s0-1.45,0-2.17h575.9L1522.22,515.94c1-1,2-2.09,3-3.12l410.53,410.52v-592h4.36v592l410.5-410.49c1,1,2,2.08,3,3.12L1943.21,926.43h575.91c0,.72,0,1.44,0,2.17S2519.13,930.05,2519.12,930.78Z"/><path class="cls-23" d="M2066.75,464a480.37,480.37,0,0,0-78-12.25L1954.05,928.6Z"/><path class="cls-24" d="M1832,466.32a475.34,475.34,0,0,0-74.46,26.3l196.48,436Z"/><path class="cls-23" d="M1757.57,492.62a478.12,478.12,0,0,0-69,38.45L1954.05,928.6Z"/><path class="cls-24" d="M1988.74,451.74a479.67,479.67,0,0,0-79,.83l44.26,476Z"/><path class="cls-24" d="M1573.86,638.77a476.16,476.16,0,0,0-42.58,66.5L1954.05,928.6Z"/><path class="cls-24" d="M1688.6,531.07a480.67,480.67,0,0,0-61.85,49.08l327.3,348.45Z"/><path class="cls-23" d="M1531.28,705.27a474.85,474.85,0,0,0-31,72.61L1954.05,928.6Z"/><path class="cls-23" d="M1626.75,580.15a481,481,0,0,0-52.89,58.62L1954.05,928.6Z"/><path class="cls-23" d="M2211.57,525.65a476.11,476.11,0,0,0-69.87-36.8L1954.05,928.6Z"/><path class="cls-23" d="M2404.69,768.81a476.24,476.24,0,0,0-32.51-72L1954.05,928.6Z"/><path class="cls-24" d="M2424.9,845.16a474.27,474.27,0,0,0-20.21-76.35L1954.05,928.6Z"/><path class="cls-23" d="M2432,923.8a477.09,477.09,0,0,0-7.13-78.64L1954.05,928.6Z"/><path class="cls-24" d="M2141.7,488.85A473.77,473.77,0,0,0,2066.75,464L1954.05,928.6Z"/><path class="cls-24" d="M2426.3,1002.53c2-12.91,3.65-26,4.61-39.24s1.24-26.42,1.12-39.49l-478,4.8Z"/><path class="cls-24" d="M2274.25,573.68a478.65,478.65,0,0,0-62.68-48l-257.52,403Z"/><path class="cls-24" d="M2372.18,696.85a480.1,480.1,0,0,0-43.84-65.66L1954.05,928.6Z"/><path class="cls-24" d="M1500.23,777.88a477.82,477.82,0,0,0-18.43,76.78l472.25,73.94Z"/><path class="cls-23" d="M2328.34,631.19a481.39,481.39,0,0,0-54.09-57.51L1954.05,928.6Z"/><path class="cls-23" d="M1909.79,452.57A474.41,474.41,0,0,0,1832,466.32l122,462.28Z"/><path class="cls-24" d="M2150.53,1364.57a478.12,478.12,0,0,0,69-38.45L1954.05,928.6Z"/><path class="cls-23" d="M2076.07,1390.88a475.37,475.37,0,0,0,74.46-26.31l-196.48-436Z"/><path class="cls-23" d="M1919.35,1405.46a482,482,0,0,0,79-.83l-44.26-476Z"/><path class="cls-24" d="M1998.31,1404.63a475.66,475.66,0,0,0,77.76-13.75l-122-462.28Z"/><path class="cls-23" d="M2219.5,1326.12a480.6,480.6,0,0,0,61.85-49.07L1954.05,928.6Z"/><path class="cls-24" d="M2376.82,1151.93a475.34,475.34,0,0,0,31-72.62L1954.05,928.6Z"/><path class="cls-23" d="M1481.8,854.66c-2,12.92-3.65,26-4.61,39.24s-1.24,26.43-1.12,39.5l478-4.8Z"/><path class="cls-23" d="M2334.24,1218.42a478.49,478.49,0,0,0,42.58-66.49L1954.05,928.6Z"/><path class="cls-24" d="M2281.35,1277.05a480.31,480.31,0,0,0,52.89-58.63L1954.05,928.6Z"/><path class="cls-23" d="M1954.05,928.6l453.81,150.71a476.27,476.27,0,0,0,18.44-76.78Z"/><path class="cls-24" d="M1841.35,1393.21a481.51,481.51,0,0,0,78,12.25l34.7-476.86Z"/><path class="cls-23" d="M1483.2,1012a473.87,473.87,0,0,0,20.21,76.34L1954.05,928.6Z"/><path class="cls-24" d="M1476.07,933.4a477.18,477.18,0,0,0,7.13,78.64l470.85-83.44Z"/><path class="cls-23" d="M1535.92,1160.34a480.1,480.1,0,0,0,43.84,65.66l374.29-297.4Z"/><path class="cls-24" d="M1503.41,1088.38a476.24,476.24,0,0,0,32.51,72L1954.05,928.6Z"/><path class="cls-24" d="M1696.53,1331.54a475.2,475.2,0,0,0,69.87,36.81L1954.05,928.6Z"/><path class="cls-23" d="M1766.4,1368.35a475.81,475.81,0,0,0,74.95,24.86l112.7-464.61Z"/><path class="cls-24" d="M1579.76,1226a482.24,482.24,0,0,0,54.09,57.52l320.2-354.92Z"/><path class="cls-23" d="M1633.85,1283.52a479.45,479.45,0,0,0,62.68,48L1954.05,928.6Z"/><circle class="cls-20" cx="1954.05" cy="928.6" r="284.89"/><path class="cls-25" d="M2206.81,928.6c0,139.56-113.18,252.74-252.75,252.74-5.84,0-11.62-.18-17.34-.6-131.56-8.91-235.4-118.42-235.4-252.14s103.84-243.23,235.4-252.14c5.72-.43,11.5-.61,17.34-.61C2093.63,675.85,2206.81,789,2206.81,928.6Z"/><ellipse class="cls-26" cx="1936.72" cy="928.6" rx="235.4" ry="252.14"/><path class="cls-27" d="M2138.06,928.6c0,101.6-82.4,184-184,184-4.25,0-8.46-.13-12.62-.44a184,184,0,0,1,0-367.11c4.16-.31,8.37-.44,12.62-.44C2055.66,744.6,2138.06,827,2138.06,928.6Z"/><rect class="cls-28" x="1777.46" y="917.42" width="354.92" height="24.09"/><circle class="cls-29" cx="2132.38" cy="929.47" r="34.69"/><circle class="cls-21" cx="2138.06" cy="929.47" r="27.83"/><circle class="cls-30" cx="2147.38" cy="923.8" r="14.76"/><circle class="cls-29" cx="1783.75" cy="929.47" r="34.69"/><circle class="cls-21" cx="1789.43" cy="929.47" r="27.83"/><circle class="cls-30" cx="1798.75" cy="923.8" r="14.76"/><rect class="cls-28" x="1946.02" y="748.86" width="24.09" height="354.92"/><circle class="cls-29" cx="1958.07" cy="1103.78" r="34.69"/><circle class="cls-21" cx="1958.07" cy="1109.46" r="27.83"/><circle class="cls-30" cx="1963.74" cy="1118.78" r="14.76"/><circle class="cls-29" cx="1958.07" cy="755.15" r="34.69"/><circle class="cls-21" cx="1958.07" cy="760.83" r="27.83"/><circle class="cls-30" cx="1963.74" cy="770.15" r="14.76"/><path class="cls-13" d="M2054.79,928.6a100.74,100.74,0,0,1-100.73,100.72c-2.32,0-4.63-.07-6.91-.24a100.72,100.72,0,0,1,0-201c2.28-.16,4.59-.24,6.91-.24A100.74,100.74,0,0,1,2054.79,928.6Z"/><path class="cls-31" d="M2026.13,928.6a72.07,72.07,0,0,1-72.07,72.06c-1.66,0-3.31,0-4.94-.17a72.06,72.06,0,0,1,0-143.78c1.63-.12,3.28-.17,4.94-.17A72.07,72.07,0,0,1,2026.13,928.6Z"/><path class="cls-19" d="M2011.34,928.6a57.28,57.28,0,0,1-57.28,57.27c-1.32,0-2.63,0-3.93-.14a57.27,57.27,0,0,1,0-114.27c1.3-.09,2.61-.13,3.93-.13A57.28,57.28,0,0,1,2011.34,928.6Z"/><g class="cls-32"><path class="cls-22" d="M2869,112.48,2930.2-82.24c6.69-21.27,26.12-32.92,43.51-25.21L3328.34,50c25.91,11.5,32.72,39.94,15.31,62.35l-152.6,196.48c-11,14.1-34.23,16-52,4.77L2884.25,153.33C2871.19,145.12,2864.38,127.05,2869,112.48Z"/><path class="cls-33" d="M3131.74,323.73,2880.66,163.82c-12.89-8.22-19.65-26-15.17-40.3L2925.3-66.65c6.52-20.73,25.58-31.87,42.68-24.08L3315.71,67.56c25.33,11.54,32.12,39.38,15.27,61.08L3182.74,319.51C3172.06,333.25,3149.24,334.87,3131.74,323.73Z"/><path class="cls-33" d="M3189.67,310.63l141.34-182c16.87-21.73,10-49.58-15.29-61.1L2968-90.74c-17.08-7.77-36.12,3.35-42.65,24.12l-56.92,181c-4.57,14.53,2.23,32.55,15.24,40.75l254.18,160.22C3155.53,326.47,3178.75,324.69,3189.67,310.63Zm-307.16-170,74-219.79,357.6,166.33L3152.53,308.56Z"/><polygon class="cls-4" points="3152.53 308.56 2882.51 140.64 2956.56 -79.15 3314.16 87.18 3152.53 308.56"/><path class="cls-33" d="M3291.12,93.22l-329-155.76L2893,137.12l255,157ZM2909.2,131.66l61.11-169.55,287.83,139.75-117,170.44Z"/><polyline class="cls-33" points="2930.21 101.28 2975.7 -21.63 3237.1 107.36 3136.5 257.57 2920.37 127.89 2930.21 101.28"/><path class="cls-4" d="M3213.43,124.26l-29.32,7.41-7.6-26.16,29.34-8.16,7.58,26.91m4.36,2.22-9.33-33.26-36.13,10.16,9.36,32.11,36.1-9Z"/><path class="cls-4" d="M3186.88,164.64l-27.52,6.11-7.47-24.87,27.52-6.79,7.47,25.55m4.14,2.22-9.2-31.57-33.9,8.46,9.2,30.54,33.9-7.43Z"/><path class="cls-4" d="M3162.37,201.93l-25.91,5-7.34-23.7,25.9-5.61,7.35,24.32m3.92,2.2-9.05-30-31.89,7,9,29.1,31.91-6.07Z"/><path class="cls-4" d="M3139.66,236.47l-24.46,4L3108,217.86l24.44-4.59,7.23,23.2m3.73,2.19L3134.5,210l-30.1,5.72,8.88,27.79,30.11-4.87Z"/><path class="cls-4" d="M3167.71,101l-27.49,7.83-7.73-25.72L3160,74.59l7.73,26.44m4.16,2.12-9.52-32.68L3128.5,81.11l9.51,31.57,33.86-9.53Z"/><path class="cls-4" d="M3143.54,141.41,3117.68,148l-7.59-24.48,25.85-7.2,7.6,25.14m3.95,2.11-9.36-31.05-31.83,9,9.34,30.05,31.85-8Z"/><path class="cls-4" d="M3121.18,178.75l-24.4,5.44-7.44-23.35,24.38-6,7.46,23.94m3.75,2.12-9.18-29.57-30,7.51,9.16,28.66,30-6.6Z"/><path class="cls-4" d="M3100.43,213.41l-23.07,4.46-7.3-22.31,23.05-5,7.32,22.85m3.58,2.1-9-28.22-28.38,6.24,9,27.39,28.41-5.41Z"/><path class="cls-4" d="M3124.09,78.87l-25.81,8.19-7.84-25.29,25.79-8.9,7.86,26m4,2-9.68-32.12-31.75,11.06,9.65,31.05,31.78-10Z"/><path class="cls-4" d="M3102.11,119.19l-24.33,6.94L3070.1,102l24.3-7.57,7.71,24.72m3.77,2-9.49-30.54-29.92,9.41,9.45,29.58,30-8.45Z"/><path class="cls-4" d="M3081.74,156.56l-23,5.83-7.53-23,23-6.41,7.56,23.57m3.59,2-9.3-29.12-28.27,8,9.26,28.23,28.31-7.09Z"/><path class="cls-4" d="M3062.8,191.29,3041,196.15l-7.37-22,21.74-5.38,7.4,22.51m3.44,2-9.12-27.81-26.77,6.72,9.07,27,26.82-5.91Z"/><path class="cls-4" d="M3082.41,57.69l-24.23,8.53-7.94-24.87,24.21-9.21,8,25.55m3.8,1.93-9.82-31.56-29.8,11.43L3056.36,70l29.85-10.41Z"/><path class="cls-4" d="M3062.46,97.94l-22.89,7.28-7.77-23.71,22.85-7.9,7.81,24.33m3.61,1.94-9.61-30.06-28.14,9.82,9.56,29.12,28.19-8.88Z"/><path class="cls-4" d="M3043.93,135.3l-21.67,6.18-7.6-22.65,21.63-6.75,7.64,23.22m3.45,1.94L3038,108.57,3011.34,117l9.35,27.82,26.69-7.54Z"/><path class="cls-4" d="M3026.69,170.07l-20.56,5.22-7.44-21.68,20.52-5.74,7.48,22.2M3030,172l-9.21-27.4-25.26,7.14,9.15,26.62L3030,172Z"/><path class="cls-4" d="M3042.56,37.45l-22.77,8.82-8-24.47,22.73-9.48,8.06,25.13m3.64,1.84-9.93-31-28,11.78,9.86,30,28.06-10.78Z"/><path class="cls-4" d="M3024.48,77.58l-21.55,7.6-7.84-23.35,21.51-8.2,7.88,23.95m3.46,1.86-9.71-29.58L2991.75,60l9.64,28.67,26.55-9.27Z"/><path class="cls-4" d="M3007.66,114.89l-20.44,6.52-7.66-22.33L3000,92l7.7,22.87m3.31,1.87-9.49-28.24-25.11,8.77,9.42,27.41,25.18-7.94Z"/><path class="cls-4" d="M2992,149.67l-19.43,5.56-7.49-21.38,19.38-6.06,7.54,21.88m3.17,1.87-9.29-27L2962,132.05l9.22,26.26,23.93-6.77Z"/><path class="cls-4" d="M3004.42,18.06,2983,27.15l-8.08-24.07,21.36-9.73,8.14,24.71m3.48,1.77-10-30.52-26.3,12.06,9.95,29.57,26.38-11.11Z"/><path class="cls-4" d="M2988.07,58.06l-20.31,7.88-7.89-23,20.25-8.46,8,23.57m3.32,1.78-9.79-29.11-24.93,10.5,9.71,28.23,25-9.62Z"/><path class="cls-4" d="M2972.84,95.3l-19.29,6.81-7.71-22,19.24-7.34,7.76,22.53m3.18,1.79-9.57-27.82-23.68,9.12,9.49,27L2976,97.09Z"/><path class="cls-4" d="M2958.63,130.06l-18.36,5.87-7.54-21.09,18.31-6.35,7.59,21.57m3,1.8-9.35-26.64-22.54,7.89,9.27,25.9,22.62-7.15Z"/></g><g class="cls-34"><path class="cls-4" d="M320.22,1256.37l-276,126.17c-27.8,12.71-58.81-.61-68.77-30l-166.8-491.68c-10-29.43,6.46-59.13,36.22-66.21l295.33-70.27c23.91-5.69,50.07,10.66,58.78,36.43l145.66,430.59C353.36,1217.15,342.57,1246.15,320.22,1256.37Z"/><path class="cls-19" d="M216.45,756.37l144.71,427.86c8.64,25.55-2,54.32-24,64.4L64.88,1373.1c-27.4,12.52-58-.77-67.9-29.92L-168.59,855.07c-9.91-29.22,6.25-58.66,35.57-65.64l291.34-69.32C181.92,714.49,207.79,730.77,216.45,756.37Z"/><path class="cls-19" d="M201.92,760.1l145.5,430.13c8.69,25.69-2.07,54.65-24.37,64.84l-258.17,118c-27.4,12.52-58-.77-67.9-29.92L-168.59,855.07c-9.91-29.22,6.25-58.66,35.57-65.64L143.25,723.7C167.11,718,193.21,734.36,201.92,760.1Z"/><path class="cls-20" d="M144.21,978.78a65.9,65.9,0,0,0-2.53-10C131,937.18,98.39,918.84,68.28,928c-30.74,9.31-47.15,43.6-36,76.39a66.31,66.31,0,0,0,4.28,9.89c-25,13.86-37.28,45.3-27.24,74.92,11.29,33.31,46.09,50.69,77.11,39.06a58.31,58.31,0,0,0,32-29.55l4.66,13.75-7.56,2.83a3.34,3.34,0,0,0-1.86,4.22l3,8.77a3.08,3.08,0,0,0,4,2l28.8-11a3.29,3.29,0,0,0,1.79-4.17l-2.93-8.66a3,3,0,0,0-3.9-2l-7.45,2.79-4.58-13.51a52.48,52.48,0,0,0,41,1.91c28.55-10.7,42.75-44.41,32.23-75.49C196.15,992.5,170.19,975.55,144.21,978.78Z"/><path class="cls-20" d="M195.47,801.31a15.21,15.21,0,0,0-.54-2.11c-2.26-6.67-9-10.78-15.06-9.17s-9.22,8.38-6.94,15.11a14.21,14.21,0,0,0,.87,2c-4.84,2.43-7.1,8.48-5.07,14.48,2.29,6.75,9.11,10.82,15.22,9.11a10.16,10.16,0,0,0,6.38-5.34l1,2.86-1.53.43a.61.61,0,0,0-.36.82l.61,1.81a.7.7,0,0,0,.81.49l5.87-1.65a.62.62,0,0,0,.36-.82l-.61-1.81a.69.69,0,0,0-.81-.48l-1.52.43-1-2.82a11.28,11.28,0,0,0,8.47,1.12c6-1.68,9-8.43,6.78-15.07C206.4,804.82,200.89,801,195.47,801.31Z"/><path class="cls-20" d="M12.51,1282.36a14.63,14.63,0,0,0,.59,2.39,12.9,12.9,0,0,0,17.45,8A15.26,15.26,0,0,0,38.8,1274a13.18,13.18,0,0,0-1-2.2,15.21,15.21,0,0,0,6-17.43,12.91,12.91,0,0,0-17.25-8.08,14.55,14.55,0,0,0-7.52,7.13L18,1250.24l1.8-.73a.79.79,0,0,0,.44-1l-.68-2a.7.7,0,0,0-.93-.44l-6.91,2.81a.8.8,0,0,0-.44,1l.68,2a.7.7,0,0,0,.93.44l1.8-.74,1.06,3.12a13.06,13.06,0,0,0-10,0,15.27,15.27,0,0,0-8.47,18.82A13,13,0,0,0,12.51,1282.36Z"/><path class="cls-20" d="M176,769.06l3.34-.86-3.3-4.92-10.36,2.64.29,5.72,3.57-.91,2.26,6.69L159,780.76,156.71,774l2.54-.65-1-32.72,8.94-2.19,19.15,27.95,2.42-.62,2.24,6.65-12.67,3.29Zm-10.67-9.84,6.81-1.72-7.49-11.16Z"/><path class="cls-20" d="M30,1319l-3.92,1.67,3.73,5.15,12-5.15-.2-6.63-4.13,1.76-2.45-7.4,14.78-6.24,2.44,7.36-2.89,1.23.51,38-10.34,4.53-21.69-29.16L15,1325.36l-2.48-7.45,15-6.34Zm12.11,9.45-7.9,3.4,8.4,11.62Z"/></g><g class="cls-35"><path class="cls-22" d="M3466.16,1289.93l69.27,39.28c7.82,4.43,6,15.74-4.37,25.1l-173.4,156.47c-10.37,9.36-21.81,10-25.42,1.79l-32-72.93c-2.32-5.29,2.27-15.24,10.18-22.38l132.41-119.49C3450.77,1290.63,3461.14,1287.08,3466.16,1289.93Z"/><path class="cls-33" d="M3308.62,1413.63l130.81-118.05c7.82-7.06,18-10.59,22.92-7.81l67.39,38.21c7.58,4.3,5.68,15.38-4.52,24.59l-170.68,154c-10.21,9.2-21.42,10-24.92,2l-31.12-70.94C3296.24,1430.47,3300.8,1420.69,3308.62,1413.63Z"/><path class="cls-33" d="M3300,1439l29.65,67.59c3.5,8,14.74,7.22,24.93-2l170.7-154c10.19-9.19,12.08-20.26,4.49-24.57l-64.21-36.41c-5-2.84-15.34.7-23.22,7.82l-132.16,119.26C3302.24,1423.77,3297.64,1433.7,3300,1439ZM3449,1297l74.95,46.83-176,158.8-38.91-79.34Z"/><polygon class="cls-4" points="3309.07 1423.33 3449.01 1297.04 3523.96 1343.87 3347.98 1502.67 3309.07 1423.33"/><path class="cls-33" d="M3351.48,1493.05,3514,1346.37l-66.91-43.45-132,119.13Zm92.74-181.1,55.35,38-143,129-32.18-58.94Z"/><polyline class="cls-33" points="3450.66 1324.11 3490.2 1352.34 3359.88 1469.94 3330.74 1418.74 3442.25 1318.11 3450.66 1324.11"/><path class="cls-4" d="M3359.73,1459l4.81-13,11.75-1.91-4.69,13.22-11.87,1.72m-1.91,1.73,14.63-2.09,5.76-16.31-14.46,2.38-5.93,16Z"/><path class="cls-4" d="M3351.74,1445.34l4.75-12.31,11.16-2-4.64,12.48-11.27,1.87m-1.84,1.66,13.89-2.28,5.7-15.39-13.73,2.54L3349.9,1447Z"/><path class="cls-4" d="M3344.37,1432.77l4.67-11.65,10.62-2.15-4.58,11.81-10.71,2m-1.77,1.6,13.2-2.44,5.63-14.56-13.06,2.67-5.77,14.33Z"/><path class="cls-4" d="M3337.53,1421.12l4.61-11.06,10.12-2.23-4.52,11.19-10.21,2.1m-1.71,1.54,12.59-2.56,5.56-13.81-12.46,2.77-5.69,13.6Z"/><path class="cls-4" d="M3380.33,1440.36l4.46-12.72,12.1-2.22-4.33,12.91-12.23,2m-1.91,1.73,15.07-2.48,5.31-15.92-14.87,2.75-5.51,15.65Z"/><path class="cls-4" d="M3371.53,1427.49l4.43-12,11.47-2.32-4.31,12.19-11.59,2.16m-1.84,1.66,14.29-2.64,5.29-15-14.11,2.88-5.47,14.79Z"/><path class="cls-4" d="M3363.4,1415.6l4.38-11.39,10.91-2.41-4.28,11.53-11,2.27m-1.77,1.6,13.57-2.78,5.26-14.22-13.42,3-5.41,14Z"/><path class="cls-4" d="M3355.86,1404.58l4.34-10.82,10.4-2.48-4.25,11-10.49,2.35m-1.7,1.54,12.92-2.88,5.22-13.5-12.79,3.07-5.35,13.31Z"/><path class="cls-4" d="M3400.93,1421.77l4.12-12.42,12.44-2.52-4,12.59-12.58,2.35m-1.91,1.73,15.5-2.87,4.88-15.53-15.29,3.13L3399,1423.5Z"/><path class="cls-4" d="M3391.31,1409.64l4.12-11.74,11.79-2.61-4,11.89-11.92,2.46m-1.84,1.66,14.69-3,4.9-14.66-14.5,3.23-5.09,14.44Z"/><path class="cls-4" d="M3382.43,1398.43l4.09-11.13,11.2-2.68-4,11.27-11.31,2.54m-1.77,1.59,13.94-3.1,4.89-13.9-13.77,3.31-5.06,13.69Z"/><path class="cls-4" d="M3374.19,1388l4.07-10.58,10.67-2.72-4,10.69-10.77,2.61m-1.7,1.53,13.27-3.18,4.87-13.19-13.12,3.37-5,13Z"/><path class="cls-4" d="M3421.53,1403.19l3.78-12.12,12.78-2.83-3.63,12.27-12.93,2.68m-1.92,1.72,15.95-3.26,4.44-15.13-15.71,3.5-4.68,14.89Z"/><path class="cls-4" d="M3411.1,1391.79l3.8-11.46,12.1-2.9-3.66,11.6-12.24,2.76m-1.84,1.66,15.09-3.37,4.49-14.31-14.88,3.58-4.7,14.1Z"/><path class="cls-4" d="M3401.46,1381.25l3.8-10.87,11.5-2.93-3.69,11-11.61,2.81m-1.77,1.6,14.32-3.44,4.51-13.56-14.13,3.63-4.7,13.37Z"/><path class="cls-4" d="M3392.53,1371.49l3.8-10.33,10.93-3-3.69,10.45-11,2.85m-1.71,1.54,13.62-3.5,4.53-12.87-13.46,3.66-4.69,12.71Z"/><path class="cls-4" d="M3442.13,1384.6l3.44-11.81,13.12-3.14-3.28,12-13.28,3m-1.92,1.73,16.38-3.66,4-14.74-16.13,3.88-4.26,14.52Z"/><path class="cls-4" d="M3430.88,1373.93l3.49-11.17,12.41-3.18-3.34,11.31-12.56,3m-1.84,1.66,15.49-3.73,4.09-13.94-15.27,3.93-4.31,13.74Z"/><path class="cls-4" d="M3420.49,1364.08l3.51-10.61,11.79-3.19L3432.4,1361l-11.91,3.08m-1.77,1.6,14.69-3.78,4.15-13.22-14.5,4-4.34,13Z"/><path class="cls-4" d="M3410.86,1355l3.53-10.09,11.21-3.21-3.42,10.19-11.32,3.11m-1.71,1.54,14-3.81,4.18-12.57-13.78,4-4.37,12.41Z"/><path class="cls-4" d="M3462.73,1366l3.1-11.5,13.46-3.44-2.93,11.63-13.63,3.31m-1.92,1.73,16.82-4.06,3.57-14.34-16.54,4.26-3.85,14.14Z"/><path class="cls-4" d="M3450.66,1356.08l3.18-10.89,12.73-3.46-3,11-12.89,3.34m-1.83,1.66,15.89-4.09,3.69-13.58-15.66,4.27-3.92,13.4Z"/><path class="cls-4" d="M3439.52,1346.91l3.22-10.35,12.08-3.46-3.09,10.45-12.21,3.36m-1.77,1.59,15.06-4.11,3.78-12.89-14.85,4.28-4,12.72Z"/><path class="cls-4" d="M3429.19,1338.41l3.26-9.85,11.48-3.45-3.14,9.94-11.6,3.36m-1.7,1.53,14.3-4.12,3.84-12.25-14.11,4.27-4,12.1Z"/></g><path class="cls-22" d="M57.13,344.17l-179.64-157.6c-19.14-16.79-19.62-44.07-.48-60.53L209.48-159.9c20.64-17.76,49-13.22,62.8,9.56L401.2,62c9.82,16.17,3.71,40.31-13.37,54.24l-277,225.89C94.79,355.24,70.9,356.25,57.13,344.17Z"/><path class="cls-33" d="M395.2,127.66,120.58,351.13c-15.92,13-39.5,14-53,2.19l-176-154.4c-18.72-16.42-19-43.21,0-59.46l329.08-282.1c20.43-17.51,48.31-13.21,61.82,9L408.64,74.27C418.26,90.12,412.12,113.89,395.2,127.66Z"/><path class="cls-33" d="M402.47,64l-120-197.64C269-155.89,241-160.13,220.64-142.65L-108.48,139.48c-18.93,16.23-18.65,43,.09,59.44L58.89,345.68c13.75,12.06,37.56,11,53.58-2L389.08,118.16C406.11,104.27,412.27,80.19,402.47,64ZM95.85,339-102.88,157.31l341-291.44L387.67,100.5Z"/><polygon class="cls-4" points="387.67 100.5 95.86 338.97 -102.88 157.31 238.08 -134.13 387.67 100.5"/><path class="cls-33" d="M234.65-111.73-81.56,157.9,97.52,324.33,372,99.61ZM100.07,301.9-50.15,158.78,229.64-79,348.18,98.25Z"/><polyline class="cls-33" points="78 263.62 -29.6 159.38 226.36 -57.61 332.01 97.34 101.78 286.65 78 263.62"/><path class="cls-4" d="M232.88-29.13,228,1.73,199.41-.88l4.51-31.24,29,3m3.88-3.28-35.71-3.74-5.5,38.53,35.16,3.16,6-37.95Z"/><path class="cls-4" d="M261,11.58,255.9,41l-27.43-2.11,4.79-29.72L261,11.58m3.78-3.17L230.56,5.33,224.72,42l33.73,2.55L264.8,8.41Z"/><path class="cls-4" d="M287.51,49.89l-5.33,28-26.35-1.67,5-28.32,26.66,2m3.68-3.06-32.88-2.49-6.13,34.91,32.41,2,6.6-34.44Z"/><path class="cls-4" d="M312.48,86,307,112.74l-25.36-1.27,5.23-27L312.48,86m3.59-3-31.61-2-6.39,33.32,31.18,1.53,6.82-32.88Z"/><path class="cls-4" d="M191.28,6,187,36.21,158.1,34,162,3.4,191.28,6m3.85-3.26L159-.51l-4.73,37.73,35.55,2.68,5.3-37.17Z"/><path class="cls-4" d="M220.56,45.46,216,74.24l-27.73-1.75,4.19-29.11,28.08,2.08m3.75-3.14L189.68,39.7l-5.11,35.9,34.1,2.12,5.64-35.4Z"/><path class="cls-4" d="M248.13,82.62l-4.78,27.45-26.64-1.34L221.17,81l27,1.64m3.65-3-33.25-2.06-5.45,34.21,32.77,1.6,5.93-33.75Z"/><path class="cls-4" d="M274.12,117.66l-5,26.21-25.63-1,4.69-26.5,25.92,1.24m3.56-2.93-32-1.57L240,145.83,271.5,147l6.18-32.24Z"/><path class="cls-4" d="M150,40.8l-3.66,29.6-29.23-1.84,3.27-30L150,40.8m3.82-3.23-36.53-2.75-4,36.94L149.3,74l4.56-36.41Z"/><path class="cls-4" d="M180.44,79.06l-4,28.19-28-1.39,3.61-28.52,28.39,1.72M184.16,76l-35-2.17L144.75,109l34.48,1.67L184.16,76Z"/><path class="cls-4" d="M209.07,115.08,204.83,142l-26.93-1,3.91-27.19,27.26,1.29m3.62-3-33.61-1.63L174.31,144l33.12,1.19,5.26-33.09Z"/><path class="cls-4" d="M236.07,149.06l-4.47,25.7-25.9-.64,4.17-26,26.2.91m3.52-2.91L207.29,145l-5.09,32,31.85.75,5.54-31.61Z"/><path class="cls-4" d="M109.16,75.31l-3.06,29-29.54-1.46L79.22,73.5l29.94,1.81m3.79-3.2L76,69.84,72.8,106l36.32,1.76L113,72.11Z"/><path class="cls-4" d="M140.66,112.37,137.26,140l-28.34-1L112,111l28.69,1.35m3.69-3.08L109,107.57,105.27,142l34.83,1.25,4.25-34Z"/><path class="cls-4" d="M170.33,147.28l-3.7,26.36L139.41,173l3.37-26.65,27.55,1m3.59-3-34-1.22-4.1,32.85,33.46.79,4.61-32.42Z"/><path class="cls-4" d="M198.32,180.21l-4,25.2-26.16-.34,3.65-25.46,26.48.6m3.49-2.89-32.64-.77-4.46,31.39,32.18.38,4.92-31Z"/><path class="cls-4" d="M68.63,109.52,66.16,137.9l-29.85-1.1,2.07-28.7,30.25,1.42m3.76-3.17-37.31-1.8L32.59,140l36.69,1.3,3.11-34.9Z"/><path class="cls-4" d="M101.21,145.41l-2.85,27.05-28.62-.7,2.48-27.35,29,1m3.66-3.06-35.76-1.28-3,33.73,35.2.82,3.56-33.27Z"/><path class="cls-4" d="M131.9,179.21l-3.17,25.84-27.49-.36,2.83-26.1,27.83.62m3.56-3-34.31-.8-3.44,32.18,33.79.4,4-31.78Z"/><path class="cls-4" d="M160.86,211.11l-3.46,24.71-26.43,0,3.15-24.95,26.74.28m3.47-2.86-33-.39-3.83,30.76H160l4.3-30.38Z"/><path class="cls-4" d="M28.46,143.43l-1.91,27.79-30.14-.73,1.49-28.1,30.56,1m3.72-3.14L-5.51,139-7.28,173.6l37.06.87,2.4-34.18Z"/><path class="cls-4" d="M62.09,178.16l-2.3,26.5-28.91-.36,1.93-26.78,29.28.64m3.63-3-36.12-.84-2.31,33,35.54.41,2.89-32.59Z"/><path class="cls-4" d="M93.79,210.89,91.13,236.2l-27.76,0,2.31-25.57,28.11.3M97.32,208l-34.66-.4-2.79,31.53H94L97.32,208Z"/><path class="cls-4" d="M123.7,241.78l-3,24.21-26.68.26,2.64-24.45,27,0m3.45-2.84H93.84l-3.21,30.14,32.81-.35,3.71-29.78Z"/><g class="cls-35"><path class="cls-29" d="M807.49,1189c-20,10.64-34.11,28.52-41.85,50.14l33.22-15.73,41.85-50.14Z"/><path class="cls-13" d="M765.64,1239.1c-7.91,22.11-9.08,48.12-2.8,74.32l33.22-15.73,2.8-74.32Z"/><path class="cls-29" d="M762.84,1313.42a159.29,159.29,0,0,0,37.37,70.13l33.21-15.72-37.36-70.14Z"/><path class="cls-29" d="M863.45,1422.68c22.25,5.64,45,3.87,65-6.76l33.21-15.73-65,6.77Z"/><path class="cls-13" d="M800.21,1383.55c18.24,19.82,40.48,33.36,63.24,39.13L896.66,1407l-63.24-39.13Z"/><path class="cls-21" d="M831.45,1178.17c-20,10.63-34.12,28.52-41.85,50.14l102.3,63.34Z"/><path class="cls-16" d="M789.6,1228.31c-7.91,22.11-9.08,48.12-2.81,74.31l105.11-11Z"/><path class="cls-21" d="M786.79,1302.62a159.25,159.25,0,0,0,37.37,70.14l67.74-81.11Z"/><path class="cls-21" d="M959.65,1210.53c-18.24-19.82-40.48-33.36-63.25-39.13l-4.5,120.25Z"/><path class="cls-16" d="M896.4,1171.4c-22.25-5.64-45-3.87-64.95,6.77l60.45,113.48Z"/><path class="cls-21" d="M887.4,1411.89c22.26,5.64,45,3.87,65-6.76L891.9,1291.65Z"/><path class="cls-21" d="M994.21,1355c7.91-22.11,9.08-48.12,2.8-74.32l-105.11,11Z"/><path class="cls-16" d="M959.65,1210.53l-67.75,81.12,105.11-11a159.37,159.37,0,0,0-37.36-70.14Z"/><path class="cls-16" d="M952.36,1405.13c20-10.64,34.12-28.53,41.85-50.14L891.9,1291.65Z"/><path class="cls-16" d="M824.16,1372.76c18.24,19.82,40.48,33.36,63.24,39.13l4.5-120.24Z"/><ellipse class="cls-21" cx="891.9" cy="1291.65" rx="76.51" ry="95.55" transform="translate(-502.58 571.06) rotate(-28.05)"/><path class="cls-13" d="M953,1259.09c22.45,42.14,13.29,90.89-20.47,108.87-1,.57-2.11,1.08-3.2,1.58l-.1,0c-33.35,15.07-76.73-4.6-98.45-45.38s-13.87-87.77,17.24-107l.1-.05c1-.62,2-1.22,3.1-1.78C885,1197.34,930.56,1216.94,953,1259.09Z"/><path class="cls-4" d="M946.62,1262.5c21.73,40.78,13.84,87.76-17.27,107l-.1,0c-33.35,15.07-76.73-4.6-98.45-45.38s-13.87-87.77,17.24-107l.1-.05C881.5,1202.05,924.89,1221.7,946.62,1262.5Z"/><path class="cls-18" d="M982.77,1243.24c33.38,62.65,19.76,135.15-30.44,161.89-1.49.8-3,1.53-4.6,2.24,46.54-28.54,58.35-98.56,26-159.31s-96.93-90-146.57-67.42c1.44-.85,2.85-1.68,4.29-2.45C881.63,1151.45,949.38,1180.55,982.77,1243.24Z"/><path class="cls-36" d="M889.76,1237.79c1.57-.86,2.88-.73,4.66.35q15.09,9.18,30.29,18.07c1.84,1.07,2.43,2,2.2,4.17q-4.42,44.2-8.64,88.47c-.21,2.22-.68,2.5-2.67,1.43q-39.09-21.19-78.24-42.18c-1.93-1-2.38-2-2.25-4.14q1.11-17.58,1.91-35.23c.1-2.07.71-3.24,2.29-4.06,8.46-4.39,16.84-8.92,25.25-13.4s16.85-8.91,25.21-13.48Zm-41.34,34.49a3.8,3.8,0,0,0-2.29,3.7q-.42,11.2-1.18,22.33c-.14,2,.19,3.1,2.2,4.17q30.18,16.11,60.29,32.5c2,1.07,2.48.79,2.69-1.44q3.2-34.12,6.66-68.17c.23-2.26-.47-3.12-2.24-4.15q-9.66-5.57-19.2-11.47a3.8,3.8,0,0,0-4.35-.16c-7.06,3.85-14.17,7.59-21.27,11.37s-14.18,7.6-21.31,11.32Zm9.26,1.56c2.89-1.3,5.66-2.88,8.42-4.45,1.23-.7,1.86-.65,2.44,1.32,1.13,3.78,2.49,7.52,4.09,12.3l3.48-16.85c.25-1.2.41-2.36,1.56-3,5.19-2.67,10.33-5.46,16.19-8.58l-5.62,27.26,19.16-10.2-1.67,55.24-.52,0q-4.28-11.92-8.55-23.88c-1.73-4.87-1.83-5.2-5-3.53l-.73.39c-3,1.59-5.9,3.28-9,4.72-1.48.69-1.67,1.69-1,3.49.94,2.57,1.74,5.17,2.83,8.47l-16.44-8.86c-1.22-.66-1.45-2-1.84-3.09-3-9-5.92-17.92-9-26.86-.73-2.13-.54-3.22,1.18-4Z"/></g><path class="cls-29" d="M1149.61,267.73c-4.31,24,3,57.11,20,94l40.33-35.44-20-94Z"/><path class="cls-13" d="M1204.33,204.64,1164,240.07c-7.62,6.7-12.32,16.14-14.38,27.66l40.33-35.44Z"/><path class="cls-13" d="M1169.61,361.7c16.63,36,42.51,75.61,76,113.67l40.33-35.44-76-113.67Z"/><path class="cls-29" d="M1508.73,551.09l-29.27,10.7-40.33,35.44c11.69-.56,21.65-4,29.27-10.71Z"/><path class="cls-13" d="M1348.51,565.31c34.36,21.61,66.27,33.1,90.62,31.92l40.33-35.44-90.62-31.92Z"/><path class="cls-29" d="M1245.56,475.37c33.43,38,69.35,68.81,103,89.94l40.33-35.44-102.95-89.94Z"/><path class="cls-16" d="M1427.17,315.79c-33.44-38.05-69.35-68.81-103-89.94l32.31,152Z"/><path class="cls-21" d="M1324.22,225.85c-34.36-21.61-66.28-33.1-90.62-31.92l122.93,183.93Z"/><path class="cls-16" d="M1233.6,193.93c-11.69.56-21.65,4-29.27,10.71s-12.33,16.13-14.39,27.65l166.59,145.57Z"/><path class="cls-16" d="M1523.12,523.43c4.3-24-3-57.11-20-94l-146.59-51.6Z"/><path class="cls-21" d="M1503.12,429.46c-16.63-36-42.51-75.61-75.95-113.67l-70.64,62.07Z"/><path class="cls-16" d="M1209.94,326.26c16.63,36,42.51,75.61,76,113.67l70.64-62.07Z"/><path class="cls-16" d="M1388.84,529.87c34.36,21.61,66.28,33.1,90.62,31.92L1356.53,377.86Z"/><path class="cls-21" d="M1523.12,523.43,1356.53,377.86l122.93,183.93c11.69-.56,21.65-4,29.27-10.7S1521.06,535,1523.12,523.43Z"/><path class="cls-21" d="M1285.89,439.93c33.44,38.06,69.35,68.81,102.95,89.94l-32.31-152Z"/><path class="cls-21" d="M1189.94,232.29c-4.3,24,3,57.12,20,94l146.59,51.6Z"/><ellipse class="cls-21" cx="1356.53" cy="377.86" rx="69.88" ry="171.35" transform="translate(88.07 989.39) rotate(-41.3)"/><path class="cls-4" d="M1458.89,494.36c-26.23,23-93.33-10.42-149.88-74.77-1.77-2-3.48-4-5.21-6.06l-.17-.19c-52.67-62.6-74.85-129.67-49.46-152s89,8.3,144.36,68.6l.16.18c1.8,2,3.57,3.94,5.34,6C1460.57,400.46,1485.13,471.3,1458.89,494.36Z"/><path class="cls-37" d="M1431.6,402.13c2.79,3.17,4.09,5.49,4.71,8.3q5.26,23.83,11,47.94c.69,2.9.22,3.63-2.77,2.37q-60.13-25.11-120.13-49.86c-3-1.25-3.88-2.2-4.74-5.39q-16.83-62.69-34-125.54c-.84-3.1-.13-3.54,2.69-2.47q23.18,8.77,46.13,17.07c2.7,1,4.84,2.54,7.62,5.73q22.28,25.55,44.72,51t44.77,50.91Zm-88.91-88.28c-2.51-2.87-4.55-4.66-7.17-5.58q-14.48-5.1-29.21-10.78c-2.71-1-3.66-.84-2.78,2.37q13.32,48.5,26.2,96.74c.85,3.16,1.76,4.19,4.78,5.43q46.18,19,92.56,38.42c3.08,1.3,3.39.37,2.7-2.45q-3.74-15.35-6.93-30.36c-.58-2.72-2.1-5-4.62-7.83q-19-21.42-37.78-42.95t-37.75-43ZM1351,330c4.83,5.75,9.87,11.37,14.89,17,2.24,2.5,2.87,3.62,1.06,3.92-3.48.58-6.64,1.6-10.84,2.66L1381,366.42a15.09,15.09,0,0,1,5.4,3.95c9.09,10.45,18.27,20.84,28.66,32.67l-40.29-20.72,34,38.68-70.89-24.38-.63-1c6.79-2.09,13.56-4.2,20.37-6.26,4.18-1.26,4.47-1.32-1.16-7.75l-1.3-1.48c-5.28-6-10.63-12-15.81-18.06-2.52-3-4-3.69-5.49-3.18-2.16.71-4.54,1.14-7.45,1.85-2.53-9.33-4.82-17.85-7.14-26.38-.54-2,.82-1.88,1.82-2.14,7.86-2,15.83-3.81,23.61-5.9,1.85-.49,3.43.27,6.28,3.68Z"/><path class="cls-18" d="M1508.7,551.09c-39,34.26-138.73-15.47-222.81-111.16-2.64-3-5.18-6-7.73-9,82.17,89.48,176.67,134.86,214.36,101.74S1497.41,400,1419.25,307c2.64,2.91,5.28,5.82,7.92,8.82C1511.25,411.48,1547.74,516.79,1508.7,551.09Z"/><path class="cls-29" d="M3571.52,207.72c-24.37.66-55.32,14.54-87.95,38.69l42.9,32.28,88-38.69Z"/><path class="cls-13" d="M3644.42,248.46l-42.9-32.28c-8.11-6.1-18.31-8.78-30-8.46l42.9,32.28Z"/><path class="cls-13" d="M3483.57,246.41c-31.9,23.61-65.38,57-95.84,97.48l42.9,32.28,95.84-97.48Z"/><path class="cls-29" d="M3367.12,617l-16.44-26.49-42.9-32.28c2.93,11.33,8.33,20.38,16.44,26.48Z"/><path class="cls-13" d="M3320.61,463c-14.17,38-18.94,71.62-12.83,95.22l42.9,32.28,12.83-95.22Z"/><path class="cls-29" d="M3387.73,343.89c-30.46,40.48-53.27,81.9-67.12,119.09l42.9,32.28,67.12-119.09Z"/><path class="cls-16" d="M3580.91,489.26c30.46-40.48,53.27-81.9,67.12-119.09l-142.26,62.54Z"/><path class="cls-21" d="M3648,370.17c14.17-38.05,18.94-71.63,12.83-95.23L3505.77,432.71Z"/><path class="cls-16" d="M3660.86,274.94c-2.93-11.32-8.33-20.38-16.44-26.48s-18.3-8.78-30-8.46L3505.77,432.71Z"/><path class="cls-16" d="M3397.12,625.43c24.37-.67,55.32-14.54,88-38.7l20.7-154Z"/><path class="cls-21" d="M3485.07,586.73c31.9-23.61,65.38-57,95.84-97.47l-75.14-56.55Z"/><path class="cls-16" d="M3526.47,278.69c-31.9,23.62-65.38,57-95.84,97.48l75.14,56.54Z"/><path class="cls-16" d="M3363.51,495.26c-14.17,38-18.94,71.63-12.83,95.22l155.09-157.77Z"/><path class="cls-21" d="M3397.12,625.43l108.65-192.72L3350.68,590.48c2.93,11.33,8.33,20.39,16.44,26.49S3385.42,625.75,3397.12,625.43Z"/><path class="cls-21" d="M3430.63,376.17c-30.46,40.48-53.27,81.9-67.12,119.09l142.26-62.55Z"/><path class="cls-21" d="M3614.42,240c-24.37.67-55.32,14.54-88,38.69l-20.7,154Z"/><ellipse class="cls-21" cx="3505.77" cy="432.71" rx="171.35" ry="69.88" transform="translate(1052.08 2973.79) rotate(-53.04)"/><path class="cls-4" d="M3412.52,556.63c-27.9-21-8.78-93.5,42.73-162,1.61-2.14,3.22-4.22,4.87-6.33l.15-.2C3510.85,323.83,3572,288.48,3599,308.8s10,88.88-37.81,155.29l-.14.2c-1.57,2.17-3.13,4.3-4.74,6.44C3504.81,539.18,3440.43,577.63,3412.52,556.63Z"/><path class="cls-38" d="M3497.27,511.15c-2.53,3.38-4.54,5.12-7.17,6.3q-22.24,10-44.69,20.51c-2.71,1.27-3.51.95-2.9-2.23q12.38-64,24.4-127.76c.61-3.2,1.36-4.25,4.31-5.74q57.95-29.22,116-58.82c2.85-1.45,3.43-.84,3,2.13q-3.89,24.48-7.33,48.64c-.42,2.85-1.5,5.25-4.06,8.63q-20.49,27-40.8,54.14t-40.73,54.2Zm68.35-105c2.31-3,3.64-5.39,4-8.15q2.05-15.21,4.62-30.8c.46-2.86.08-3.75-2.89-2.23q-44.78,22.91-89.39,45.33c-2.92,1.47-3.74,2.57-4.35,5.78q-9.2,49.08-18.79,98.44c-.64,3.28.33,3.39,3,2.15q14.26-6.78,28.32-13c2.54-1.12,4.44-3.07,6.72-6.11q17.13-22.92,34.38-45.73t34.42-45.71Zm-14.14,11.43c-4.65,5.89-9.13,12-13.6,18-2,2.7-3,3.55-3.63,1.84-1.27-3.29-2.91-6.18-4.8-10.07l-7.5,27a15.06,15.06,0,0,1-2.77,6.09c-8.38,11-16.68,22.13-26.15,34.71l12.08-43.66-31,41.14,9.45-74.36.82-.81c3.43,6.21,6.87,12.42,10.27,18.67,2.08,3.83,2.2,4.11,7.36-2.72l1.18-1.57c4.81-6.39,9.55-12.85,14.47-19.15,2.39-3.07,2.8-4.64,2-6-1.14-2-2.05-4.2-3.33-6.92l24.38-12.35c1.81-.92,2,.42,2.46,1.35,3.54,7.29,7,14.73,10.58,21.92.86,1.71.43,3.4-2.32,6.9Z"/><path class="cls-18" d="M3367.11,616.93c-41.47-31.2-13.06-139,63.53-240.76,2.4-3.19,4.82-6.29,7.23-9.39-70.89,98.64-96.11,200.4-56,230.56s130.93-22.2,206.09-117.64c-2.31,3.18-4.62,6.36-7,9.56C3504.32,591,3408.63,648.18,3367.11,616.93Z"/><path class="cls-39" d="M831.54,176.34c-18.23-.81-42.09,7.88-67.76,24.16l30.3,26.42,67.76-24.16Z"/><path class="cls-13" d="M883.78,210.69l-30.3-26.42c-5.72-5-13.19-7.54-21.94-7.93l30.3,26.42Z"/><path class="cls-13" d="M763.78,200.5c-25.09,15.92-51.9,39.05-76.82,67.64l30.3,26.42,76.82-67.64Z"/><path class="cls-39" d="M656.87,471,646,450.29l-30.3-26.41c1.58,8.61,5.13,15.67,10.85,20.66Z"/><path class="cls-13" d="M630.42,353.46c-12.63,27.64-18,52.47-14.7,70.42L646,450.29l14.7-70.41Z"/><path class="cls-39" d="M687,268.14c-24.93,28.59-44.19,58.29-56.54,85.32l30.3,26.42,56.54-85.32Z"/><path class="cls-16" d="M823.4,387.09c24.92-28.59,44.19-58.29,56.53-85.32l-109.6,39.05Z"/><path class="cls-33" d="M879.93,301.77c12.63-27.65,18-52.47,14.71-70.42L770.33,340.82Z"/><path class="cls-16" d="M894.64,231.35c-1.58-8.62-5.13-15.67-10.86-20.66s-13.19-7.54-21.94-7.93L770.33,340.82Z"/><path class="cls-16" d="M678.82,478.89c18.23.81,42.09-7.88,67.76-24.16l23.75-113.91Z"/><path class="cls-33" d="M746.58,454.73c25.09-15.92,51.89-39.05,76.82-67.64l-53.07-46.27Z"/><path class="cls-16" d="M794.08,226.92C769,242.83,742.18,266,717.26,294.56l53.07,46.26Z"/><path class="cls-16" d="M660.72,379.88c-12.63,27.64-18,52.46-14.7,70.41L770.33,340.82Z"/><path class="cls-33" d="M678.82,478.89l91.51-138.07L646,450.29c1.58,8.62,5.13,15.68,10.85,20.67S670.07,478.5,678.82,478.89Z"/><path class="cls-33" d="M717.26,294.56c-24.93,28.58-44.19,58.29-56.54,85.32l109.61-39.06Z"/><path class="cls-33" d="M861.84,202.76c-18.23-.82-42.09,7.88-67.76,24.16l-23.75,113.9Z"/><ellipse class="cls-33" cx="770.33" cy="340.82" rx="128.29" ry="52.32" transform="translate(7.2 697.49) rotate(-48.92)"/><path class="cls-4" d="M694,428.34c-19.71-17.18-1.52-70.3,40.63-118.64,1.32-1.51,2.63-3,4-4.47l.12-.14c41.23-45.3,88.81-68.41,107.88-51.79S849.3,320.22,810,367.24l-.12.14c-1.29,1.53-2.57,3-3.89,4.55C763.88,420.28,713.74,445.53,694,428.34Z"/><path class="cls-40" d="M759.76,398.94a13.34,13.34,0,0,1-5.69,4.32q-17.16,6.27-34.48,12.91c-2.09.8-2.67.52-2-1.82q12.68-47.13,25.09-94.09c.63-2.37,1.25-3.1,3.53-4.06Q791,297.5,836,278.52c2.22-.94,2.62-.45,2.1,1.75q-4.21,18.08-8.09,35.92a13.21,13.21,0,0,1-3.5,6.23q-16.74,19.06-33.38,38.24t-33.33,38.28Zm56.7-74.74c1.88-2.14,3-3.83,3.43-5.87q2.36-11.25,5.1-22.75c.51-2.12.27-2.8-2-1.82q-34.65,14.69-69.19,29c-2.26.94-2.93,1.71-3.55,4.08q-9.53,36.17-19.34,72.5c-.65,2.41.07,2.55,2.09,1.76q11-4.29,21.84-8.16c2-.69,3.49-2.05,5.35-4.2q14-16.18,28.14-32.3t28.17-32.28ZM805.28,332c-3.79,4.15-7.47,8.45-11.13,12.73-1.63,1.91-2.4,2.49-2.81,1.18-.77-2.52-1.84-4.77-3-7.78l-7,19.76a11.41,11.41,0,0,1-2.4,4.4c-6.85,7.78-13.65,15.62-21.4,24.51l11.38-31.95-25.34,29.06,11.07-55,.66-.56c2.22,4.82,4.46,9.64,6.66,14.49,1.35,3,1.42,3.19,5.64-1.63l1-1.1c3.94-4.52,7.83-9.09,11.84-13.53,1.95-2.17,2.35-3.32,1.82-4.39-.75-1.54-1.3-3.25-2.11-5.35l18.86-7.91c1.41-.59,1.48.42,1.77,1.14,2.25,5.63,4.4,11.37,6.72,16.93.55,1.33.14,2.57-2.1,5Z"/><path class="cls-18" d="M656.86,470.93c-29.28-25.53-2.27-104.49,60.4-176.37,2-2.26,3.94-4.44,5.91-6.63-58.25,69.85-82.55,144.48-54.24,169.17s99-9.54,160.23-76.77c-1.9,2.25-3.79,4.51-5.76,6.76C760.73,459,686.19,496.5,656.86,470.93Z"/><path class="cls-25" d="M118.31,1933.09c6.74,44,34.16,89.37,76.85,129.53l31.47-75-76.85-129.52Z"/><path class="cls-13" d="M154.92,1796.48s-24.57,55.22-31.48,75-8.36,40.54-5.13,61.66l31.47-74.95Z"/><path class="cls-16" d="M518.42,1718.31c-65.8-23-131.14-31.29-188.25-26.61l124.24,209.56Z"/><path class="cls-26" d="M330.17,1691.7c-58.4,4.79-108.13,23.17-140.83,53.37l265.07,156.19Z"/><path class="cls-16" d="M189.34,1745.07c-15.69,14.49-27.52,31.67-34.42,51.41s-8.37,40.54-5.14,61.66l304.63,43.12Z"/><path class="cls-16" d="M759,1944.38c-6.74-44-34.16-89.37-76.84-129.52l-227.79,86.4Z"/><path class="cls-26" d="M682.2,1814.86c-41.73-39.26-98-73.53-163.78-96.55l-64,183Z"/><path class="cls-26" d="M149.78,1858.14c6.75,44,34.16,89.37,76.85,129.52l227.78-86.4Z"/><ellipse class="cls-26" cx="454.41" cy="1901.26" rx="144.03" ry="235.78" transform="translate(-1490.25 1702.33) rotate(-70.72)"/><path class="cls-4" d="M655.83,1971.74c-23.77,67.93-133.22,91.47-244.49,52.54-3.47-1.21-6.88-2.48-10.32-3.79l-.32-.12C295.65,1979.81,230,1896.55,253,1830.8s126.26-89.94,233.68-56.17l.32.11c3.52,1.12,7,2.25,10.44,3.47C608.7,1817.14,679.61,1903.77,655.83,1971.74Z"/><path class="cls-41" d="M569.92,1853.52c5.5,1.89,8.5,4.17,10.83,8q19.74,32.63,40.27,65.16c2.48,3.92,2.21,5.64-2.54,7.08q-95.54,29-190.66,58.47c-4.78,1.48-6.47.94-9.33-3.25q-56-82.32-112.61-164.57c-2.79-4.05-2-5.6,2.38-7.13q36.35-12.64,72.11-25.84c4.22-1.54,8-1.49,13.45.46,29.29,10.43,58.68,20.61,88,30.88s58.67,20.63,88.07,30.74ZM401.77,1813.3c-4.94-1.76-8.67-2.3-12.74-.75q-22.5,8.52-45.66,16.4c-4.26,1.46-5.46,2.88-2.55,7.09q43.74,63.35,86.78,126.81c2.83,4.16,4.61,4.76,9.4,3.28q73.22-22.77,146.9-45.06c4.9-1.47,4.83-3.34,2.41-7.13q-13.2-20.6-25.48-41.29c-2.22-3.75-5.49-5.65-10.44-7.36-24.81-8.55-49.55-17.28-74.32-25.94s-49.57-17.27-74.3-26Zm19.89,16.64c9.63,3.74,19.49,7,29.31,10.31,4.38,1.47,5.83,2.56,3.52,5.14-4.46,5-8.26,10.32-13.44,16.91l40.86-8.08c2.89-.58,5.5-1.27,9.46.15,17.95,6.42,36,12.65,56.43,19.81l-66,13.12,66.87,23.39L438.78,1953.4l-1.38-.84c8.19-11.28,16.35-22.58,24.59-33.84,5.05-6.89,5.43-7.33-5.67-11.25l-2.55-.89c-10.4-3.64-20.86-7.1-31.15-11-5-1.89-7.38-1.39-9.2,1.2-2.57,3.67-5.6,7.13-9.22,11.67-8.36-12.24-16-23.41-23.66-34.59-1.76-2.57.13-4,1.37-5.59,9.72-12.35,19.67-24.58,29.21-37,2.27-3,4.83-3.53,10.54-1.32Z"/><path class="cls-18" d="M753.86,2006.09c-35.32,101-198,136-363.45,78.11-5.19-1.82-10.25-3.74-15.31-5.65,159.55,50,312.78,14,346.92-83.6s-63.17-221.4-219.1-281.77c5.15,1.65,10.31,3.31,15.5,5.13C683.86,1776.19,789.23,1905,753.86,2006.09Z"/><path class="cls-25" d="M2562.86,1237.77c24.36-7.91,47.59-27.68,66.44-55.64l-45.48-10.93-66.44,55.64Z"/><path class="cls-13" d="M2481.89,1229.63s33.63,8.84,45.48,10.93a72.89,72.89,0,0,0,35.49-2.79l-45.48-10.93Z"/><path class="cls-13" d="M2629.3,1182.13c18.42-27.34,32.67-62.46,39.65-102l-45.48-10.93-39.65,102Z"/><path class="cls-25" d="M2545.41,870.06l32.38,14.79,45.48,10.93A73.07,73.07,0,0,0,2590.89,881C2579,878.9,2545.41,870.06,2545.41,870.06Z"/><path class="cls-13" d="M2666.63,970.81c-8.13-32.72-23.18-59.26-43.36-75l-45.48-10.93,43.35,75Z"/><path class="cls-25" d="M2669,1080.18c7-39.5,5.62-77.37-2.32-109.37l-45.49-10.93,2.33,109.37Z"/><path class="cls-16" d="M2403.83,1030.45c-7,39.5-5.63,77.37,2.32,109.36l107.5-90Z"/><path class="cls-26" d="M2406.15,1139.81c8.13,32.73,23.18,59.27,43.35,75l64.15-165Z"/><path class="cls-16" d="M2449.5,1214.85a71,71,0,0,0,67.88,12l-3.73-177Z"/><path class="cls-16" d="M2509.91,872.86c-24.35,7.91-47.58,27.68-66.43,55.64l70.17,121.35Z"/><path class="cls-26" d="M2443.48,928.5c-18.43,27.33-32.68,62.45-39.65,102l109.82,19.4Z"/><path class="cls-16" d="M2583.82,1171.2c18.42-27.34,32.67-62.45,39.65-102l-109.82-19.4Z"/><path class="cls-16" d="M2621.14,959.88c-8.13-32.72-23.17-59.26-43.35-75l-64.14,165Z"/><path class="cls-26" d="M2509.91,872.86l3.74,177,64.14-165a71,71,0,0,0-67.88-12Z"/><path class="cls-26" d="M2623.47,1069.25c7-39.5,5.62-77.37-2.33-109.37l-107.49,90Z"/><path class="cls-26" d="M2517.38,1226.84c24.36-7.91,47.59-27.68,66.44-55.64l-70.17-121.35Z"/><ellipse class="cls-26" cx="2513.65" cy="1049.85" rx="135.67" ry="82.87" transform="matrix(0.17, -0.98, 0.98, 0.17, 1042.54, 3342.55)"/><path class="cls-4" d="M2535,928.94c40.78,7.2,64.29,67.18,52.49,134-.37,2.09-.77,4.14-1.2,6.22l0,.19c-13.31,63.41-54.51,108.41-94,101.44s-62.78-63.37-53.55-127.5l0-.19c.31-2.1.63-4.17,1-6.25C2451.58,970,2494.21,921.73,2535,928.94Z"/><path class="cls-42" d="M2475.84,988.67c.56-3.29,1.57-5.2,3.54-6.89q16.7-14.24,33.27-28.9c2-1.77,3-1.78,4.26.79q25.34,51.55,50.87,102.85c1.28,2.58,1.13,3.59-1,5.6q-41.55,39.44-83,79.2c-2,2-3,1.68-4.27-.69q-10.55-19.47-21.35-38.56c-1.27-2.26-1.59-4.38-1-7.68,3.21-17.6,6.27-35.23,9.38-52.85s6.28-35.23,9.3-52.87Zm-7.27,99.22c-.54,3-.5,5.14.76,7.31q6.91,12,13.54,24.41c1.23,2.28,2.14,2.83,4.26.79q31.92-30.72,64-61c2.09-2,2.27-3.06,1-5.64q-19.71-39.46-39.2-79.25c-1.29-2.65-2.34-2.43-4.27-.71q-10.47,9.4-21.09,18.29c-1.92,1.61-2.7,3.64-3.21,6.62-2.56,14.88-5.22,29.74-7.85,44.6s-5.21,29.76-7.91,44.61Zm7.61-12.83c1.23-5.82,2.18-11.72,3.14-17.6.43-2.63.91-3.55,2.59-2.48,3.25,2.07,6.63,3.73,10.85,6.06l-8.37-22.45a8.79,8.79,0,0,1-.79-5.39c2-10.78,3.85-21.6,6-33.87l13.57,36.28,7.09-40.14,34.43,58.42-.36.86q-10.74-5.4-21.49-10.82c-4.38-2.23-4.67-2.41-5.86,4.26l-.27,1.53c-1.11,6.24-2.1,12.51-3.36,18.71-.61,3-.1,4.32,1.54,5.11,2.32,1.12,4.56,2.52,7.47,4.16l-17.45,16.63c-1.29,1.24-2.28.3-3.3-.26-7.91-4.37-15.78-8.88-23.72-13.15-1.89-1-2.46-2.42-1.73-5.86Z"/><path class="cls-18" d="M2545.44,870.08c60.61,10.71,95.57,99.86,78,199.17-.55,3.12-1.17,6.17-1.79,9.22,13.62-95.24-21-178.92-79.61-189.27s-119.88,56.38-139.72,150.52c.47-3.08.93-6.15,1.48-9.27C2421.37,931.14,2484.75,859.36,2545.44,870.08Z"/><rect class="cls-13" x="1086.35" y="1101.97" width="408.85" height="565.98" rx="50.36" transform="translate(-600.78 1306.14) rotate(-44.63)"/><rect class="cls-4" x="1101.3" y="1087.22" width="408.85" height="565.96" rx="50.36" transform="translate(-586.11 1312.39) rotate(-44.63)"/><rect class="cls-19" x="1103.83" y="1093.38" width="391.34" height="565.96" rx="50.36" transform="translate(-592.23 1309.78) rotate(-44.63)"/><path class="cls-21" d="M1308.43,1274a50,50,0,0,0-37.85,14.61,46.78,46.78,0,0,0-13.71,27.71,59.46,59.46,0,0,0,.26,17.08,59.68,59.68,0,0,0-17.08-.47,46.69,46.69,0,0,0-27.88,13.35,50,50,0,0,0-15.11,37.66c.49,14,6.66,27.74,17.4,38.62,11,11.19,25.34,17.32,45,19.29,17.56,1.76,38.76.2,63.31-1.6,8.39-.61,17.89-1.31,27.88-1.91a10.92,10.92,0,0,0,10.23-10.1c.73-10,1.55-19.48,2.28-27.86,2.11-24.52,3.94-45.7,2.41-63.28-1.71-19.65-7.66-34-18.71-45.21C1336.09,1281.05,1322.45,1274.69,1308.43,1274Z"/><path class="cls-21" d="M1294.06,1108a15.07,15.07,0,0,0-11.45,4.42,14.15,14.15,0,0,0-4.15,8.38,18,18,0,0,0,.08,5.17,18.05,18.05,0,0,0-5.17-.15,14.17,14.17,0,0,0-8.43,4,15.09,15.09,0,0,0-4.57,11.39,17.55,17.55,0,0,0,5.26,11.69c3.34,3.38,7.67,5.24,13.6,5.83,5.31.53,11.73.06,19.16-.48,2.53-.19,5.41-.4,8.43-.58a3.3,3.3,0,0,0,3.09-3.06c.23-3,.47-5.89.69-8.42.64-7.42,1.2-13.83.73-19.15-.51-5.94-2.31-10.29-5.66-13.67A17.56,17.56,0,0,0,1294.06,1108Z"/><path class="cls-21" d="M1319.34,1646.44a15.07,15.07,0,0,0,11.45-4.42,14.15,14.15,0,0,0,4.15-8.38,18.35,18.35,0,0,0-.08-5.17,18.05,18.05,0,0,0,5.17.15,14.17,14.17,0,0,0,8.43-4,15.12,15.12,0,0,0,4.57-11.39,17.6,17.6,0,0,0-5.26-11.69c-3.35-3.38-7.67-5.24-13.6-5.83-5.32-.53-11.73-.06-19.16.48-2.53.19-5.41.4-8.43.58a3.27,3.27,0,0,0-2.12,1,3.31,3.31,0,0,0-1,2.11c-.22,3-.47,5.89-.68,8.42-.64,7.42-1.2,13.83-.73,19.15.51,5.94,2.31,10.29,5.66,13.67A17.56,17.56,0,0,0,1319.34,1646.44Z"/><path class="cls-21" d="M1257.65,1103.46l2.78-2.79-5.27-2.76-8.59,8.59,2.77,5.27,3-3,5,5-10.6,10.61-5-5,2.08-2.09-15.29-30.51,7.39-7.39,30.35,15.44,2-2,5,5.05-10.6,10.61Zm-14.34-3.13,5.64-5.65-11.93-6.24Z"/><path class="cls-21" d="M1352.06,1652l-2.8,2.76,5.26,2.8,8.64-8.53-2.73-5.29-3,2.93-5-5.09,10.66-10.53,5,5.08-2.09,2.07,15.08,30.61-7.44,7.35-30.24-15.65-2,2-5-5.08,10.66-10.54Zm14.33,3.22-5.68,5.61,11.89,6.33Z"/><path class="cls-30" d="M1504.44,1534.08l-45.36,157a31.71,31.71,0,0,0,6.37,29.42l32.78,38.35,74.8,77.06a36.16,36.16,0,0,0,34.8,9.88l142.36-35.88a65,65,0,0,0,46.5-44.79l36.27-128.4,2.23-13.42a23.56,23.56,0,0,0-6.8-20.74l-12.73-12.38-94.08-97.53a57.19,57.19,0,0,0-55-15.62l-139.41,35.14A31.72,31.72,0,0,0,1504.44,1534.08Z"/><path class="cls-21" d="M1639.12,1688.1l-40.4,142.27c-3.86,13.6-16.21,15.13-27.59,3.41l-96.62-99.54c-11.38-11.72-17.47-32.24-13.6-45.85l40.39-142.26c3.87-13.61,16.22-15.14,27.59-3.42l96.63,99.54C1636.89,1654,1643,1674.5,1639.12,1688.1Z"/><path class="cls-28" d="M1672.31,1652.67l143.4-36.15c13.71-3.46,21.22,6.48,16.75,22.19l-37.89,133.44c-4.46,15.71-19.19,31.25-32.91,34.71L1618.26,1843c-13.71,3.45-21.21-6.48-16.75-22.19l37.89-133.45C1643.86,1671.66,1658.59,1656.13,1672.31,1652.67Z"/><path class="cls-29" d="M1668,1653.75l143.4-36.15c13.72-3.46,15.61-15.76,4.24-27.47L1719,1490.59c-11.38-11.72-31.72-18.42-45.43-15l-143.4,36.15c-13.72,3.45-15.61,15.75-4.24,27.47l96.62,99.54C1634,1650.51,1654.31,1657.21,1668,1653.75Z"/><ellipse class="cls-4" cx="1544.75" cy="1689.57" rx="18.99" ry="32.89" transform="translate(-359.26 418.48) rotate(-13.84)"/><ellipse class="cls-4" cx="1785.68" cy="1662.93" rx="25.88" ry="14.94" transform="translate(-653.57 1726.63) rotate(-44.46)"/><ellipse class="cls-4" cx="1716.99" cy="1729.76" rx="25.88" ry="14.94" transform="translate(-720.04 1697.65) rotate(-44.46)"/><ellipse class="cls-4" cx="1648.3" cy="1796.59" rx="25.88" ry="14.94" transform="translate(-786.51 1668.67) rotate(-44.46)"/><ellipse class="cls-4" cx="1755.23" cy="1769.75" rx="25.88" ry="14.94" transform="translate(-737.1 1735.98) rotate(-44.46)"/><ellipse class="cls-4" cx="1678.74" cy="1689.78" rx="25.88" ry="14.94" transform="translate(-702.98 1659.52) rotate(-44.46)"/><ellipse class="cls-4" cx="1675.1" cy="1563.61" rx="14.94" ry="25.88" transform="translate(-292.97 2737.29) rotate(-73.84)"/><ellipse class="cls-4" cx="1689.82" cy="1510.27" rx="14.94" ry="25.88" transform="translate(-231.17 2712.85) rotate(-73.84)"/><ellipse class="cls-4" cx="1660.38" cy="1616.95" rx="14.94" ry="25.88" transform="translate(-354.87 2761.56) rotate(-73.84)"/><ellipse class="cls-6" cx="2375.67" cy="1640.44" rx="340.44" ry="260.73" transform="translate(-507.17 1485.15) rotate(-31.54)"/><ellipse class="cls-7" cx="2364.92" cy="1622.93" rx="340.44" ry="260.73" transform="matrix(0.85, -0.52, 0.52, 0.85, -499.6, 1476.95)"/><ellipse class="cls-8" cx="2356.19" cy="1608.7" rx="340.44" ry="260.73" transform="translate(-493.44 1470.27) rotate(-31.54)"/><ellipse class="cls-6" cx="2347.15" cy="1593.98" rx="340.44" ry="260.73" transform="translate(-487.08 1463.37) rotate(-31.54)"/><path class="cls-9" d="M2197.13,1355.53c160.25-98.36,351.12-78.75,426.34,43.8.5.82,1,1.63,1.48,2.45l.05.08c.19.34.38.65.57,1a.26.26,0,0,1,0,.09c.71,1.2,1.39,2.41,2.07,3.62,68.3,122.27-1,296.33-158.16,392.78s-343.71,79.47-421.82-36.78c-.77-1.15-1.54-2.31-2.29-3.49a.09.09,0,0,1-.05-.08c-.21-.31-.4-.62-.61-.94l0-.08c-.52-.8-1-1.61-1.52-2.43C1968,1633,2036.88,1453.89,2197.13,1355.53Z"/><path class="cls-10" d="M2200.44,1360.92c159-97.57,348-79.06,424.51,40.86l.05.08c.19.34.38.65.57,1a.26.26,0,0,1,0,.09c.71,1.2,1.39,2.41,2.07,3.62,68.3,122.27-1,296.33-158.16,392.78s-343.71,79.47-421.82-36.78c-.77-1.15-1.54-2.31-2.29-3.49a.09.09,0,0,1-.05-.08c-.21-.31-.4-.62-.61-.94l0-.08C1972.39,1635.49,2041.48,1458.5,2200.44,1360.92Z"/><path class="cls-6" d="M2205.5,1369.17c150.4-92.32,329.54-73.91,400.14,41.11.67,1.09,1.33,2.18,2,3.29a.08.08,0,0,1,.05.07c.67,1.13,1.31,2.27,1.95,3.4,64.1,114.75-1,278.12-148.44,368.64s-322.59,74.58-395.9-34.52c-.72-1.08-1.44-2.16-2.14-3.27a.1.1,0,0,1,0-.08c-.7-1.06-1.38-2.14-2.05-3.24C1990.42,1629.55,2055.1,1461.49,2205.5,1369.17Z"/><path class="cls-10" d="M2248.55,1439.23c101.71-62.44,222.86-50,270.61,27.8.45.74.89,1.47,1.32,2.22l0,.06c.44.76.87,1.52,1.3,2.29.54,1,1.07,1.93,1.57,2.92,40.68,77.43-3.45,185.93-101.94,246.39s-215.22,50.69-265.85-20.63c-.65-.9-1.27-1.8-1.89-2.72-.49-.74-1-1.47-1.46-2.21l0,0c-.47-.73-.93-1.45-1.38-2.19C2103.09,1615.32,2146.84,1501.66,2248.55,1439.23Z"/><path class="cls-11" d="M2249,1440c99.18-60.88,217.32-48.74,263.88,27.11.44.72.87,1.44,1.29,2.17l0,0,1.27,2.24c.53.94,1,1.89,1.53,2.84,39.67,75.51-3.37,181.32-99.41,240.27s-209.86,49.43-259.23-20.12c-.64-.87-1.25-1.76-1.85-2.65l-1.42-2.15,0-.06c-.46-.7-.9-1.41-1.35-2.13C2107.17,1611.7,2149.83,1500.86,2249,1440Z"/><path class="cls-12" d="M2257.93,1454.51c96-58.89,209.63-49.46,259.09,19.88,39.67,75.51-3.37,181.32-99.41,240.27s-209.86,49.43-259.23-20.12C2118.93,1619,2162,1513.41,2257.93,1454.51Z"/><g id="Layer_2-5" data-name="Layer 2"><g id="Layer_1-2-5" data-name="Layer 1-2"><g id="Layer_2-2-6" data-name="Layer 2-2"><g id="Layer_1-2-2-6" data-name="Layer 1-2-2"><polygon class="cls-11" points="2314.68 1685.63 2441.51 1607.78 2432.4 1526.69 2424.63 1514.04 2304.54 1605.17 2229.91 1557.21 2231.17 1624.12 2238.93 1636.77 2314.68 1685.63"/><polygon class="cls-11" points="2305.03 1597.78 2374.39 1555.2 2365.27 1474.12 2357.51 1461.46 2228.16 1540.86 2235.93 1553.51 2305.03 1597.78"/></g></g></g></g><g id="Layer_2-6" data-name="Layer 2"><g id="Layer_1-2-6" data-name="Layer 1-2"><g id="Layer_2-2-7" data-name="Layer 2-2"><g id="Layer_1-2-2-7" data-name="Layer 1-2-2"><polygon class="cls-10" points="2222.14 1544.56 2296.78 1592.52 2424.63 1514.05 2433.74 1595.13 2306.91 1672.97 2231.17 1624.12 2222.14 1544.56"/><polygon class="cls-6" points="2228.16 1540.86 2357.5 1461.47 2364.26 1521.47 2364.25 1521.49 2366.62 1542.55 2297.27 1585.12 2258.81 1560.49 2228.16 1540.86"/></g></g></g><polygon class="cls-6" points="2306.91 1672.97 2296.78 1592.52 2424.63 1514.05 2433.74 1595.13 2306.91 1672.97"/></g><polygon class="cls-9" points="2222.14 1544.56 2296.78 1592.52 2424.63 1514.05 2298.89 1601.54 2227.36 1557.28 2226.93 1586.75 2222.14 1544.56"/><polygon class="cls-10" points="2228.16 1540.86 2357.5 1461.47 2364.26 1521.47 2364.25 1521.49 2358.33 1499.4 2258.81 1560.49 2228.16 1540.86"/><polygon class="cls-9" points="2246.33 1552.5 2238.15 1539.17 2353.42 1468.41 2360.19 1485.32 2357.5 1461.47 2228.16 1540.86 2246.33 1552.5"/><polygon class="cls-11" points="2088.01 1748.64 2066.1 1712.94 2091.79 1705.47 2091.8 1705.47 2100.82 1702.85 2112.57 1722 2098.9 1736.83 2088.01 1748.64"/><polygon class="cls-11" points="2184.19 1817.17 2141.87 1800.58 2138.06 1794.38 2162.9 1783.28 2189.17 1779.91 2192.98 1786.11 2188.09 1803.4 2184.19 1817.17"/><polygon class="cls-11" points="2318.83 1824.31 2267.44 1831.28 2263.63 1825.07 2290.15 1807.17 2281.95 1800.89 2305.7 1790.95 2309.5 1797.15 2314.69 1812.27 2318.83 1824.31"/><polygon class="cls-11" points="2455.85 1768.14 2409.17 1796.8 2405.36 1790.6 2406.74 1775.13 2405.88 1767.53 2430.91 1752.17 2450.34 1760.85 2455.85 1768.14"/><polygon class="cls-11" points="2558.55 1663.72 2529.08 1706.39 2514.13 1691.37 2514.12 1691.36 2508.88 1686.09 2505.07 1679.89 2524.68 1663.21 2554.75 1657.52 2558.55 1663.72"/><polygon class="cls-11" points="2599.41 1539.03 2595.05 1584.27 2571.58 1579.91 2571.57 1579.91 2563.34 1578.38 2559.53 1572.17 2565.68 1554.12 2595.6 1532.83 2599.41 1539.03"/><polygon class="cls-11" points="2567.47 1427.47 2589.39 1463.17 2563.69 1470.64 2563.69 1470.64 2554.67 1473.26 2542.92 1454.12 2556.58 1439.29 2567.47 1427.47"/><polygon class="cls-11" points="2471.3 1358.94 2509.81 1369.33 2513.62 1375.53 2492.59 1392.83 2492.58 1392.83 2485.2 1398.9 2462.51 1390 2458.7 1383.8 2471.3 1358.94"/><polygon class="cls-11" points="2336.66 1351.8 2384.24 1338.64 2388.05 1344.84 2377.31 1367.33 2377.31 1367.33 2373.54 1375.23 2345.98 1378.96 2342.18 1372.76 2336.66 1351.8"/><polygon class="cls-11" points="2199.63 1407.97 2195.82 1401.77 2242.51 1373.11 2246.32 1379.32 2248.75 1400.97 2248.75 1400.98 2249.61 1408.58 2224.57 1423.95 2210.69 1415.05 2199.63 1407.97"/><polygon class="cls-11" points="2096.93 1512.39 2093.12 1506.19 2126.4 1469.72 2128.54 1491.35 2142.8 1483.82 2146.61 1490.02 2130.81 1512.9 2111.95 1512.62 2096.93 1512.39"/><polygon class="cls-11" points="2056.08 1637.09 2052.27 1630.88 2060.44 1591.84 2083.91 1596.2 2088.34 1591.53 2092.15 1597.74 2089.81 1622 2071.03 1630.39 2056.08 1637.09"/><polygon class="cls-10" points="2084.21 1742.44 2062.29 1706.74 2087.99 1699.27 2087.99 1699.27 2097.01 1696.65 2108.76 1715.8 2095.09 1730.63 2084.21 1742.44"/><polygon class="cls-10" points="2180.38 1810.97 2138.06 1794.38 2159.09 1777.08 2159.1 1777.08 2166.48 1771.01 2189.17 1779.91 2184.28 1797.19 2180.38 1810.97"/><polygon class="cls-10" points="2315.02 1818.11 2263.63 1825.07 2274.37 1802.58 2274.37 1802.58 2278.14 1794.68 2305.7 1790.95 2310.88 1806.06 2315.02 1818.11"/><polygon class="cls-10" points="2452.05 1761.94 2405.36 1790.6 2402.93 1768.94 2402.93 1768.93 2402.07 1761.33 2427.11 1745.96 2440.99 1754.86 2452.05 1761.94"/><polygon class="cls-10" points="2554.75 1657.52 2525.28 1700.19 2510.32 1685.16 2510.32 1685.16 2505.07 1679.89 2520.87 1657.01 2539.72 1657.29 2554.75 1657.52"/><polygon class="cls-10" points="2595.6 1532.83 2591.24 1578.07 2567.77 1573.71 2567.77 1573.71 2559.53 1572.17 2561.87 1547.91 2580.64 1539.52 2595.6 1532.83"/><polygon class="cls-10" points="2563.66 1421.27 2585.58 1456.97 2559.89 1464.44 2559.88 1464.44 2550.86 1467.06 2539.11 1447.91 2552.78 1433.08 2563.66 1421.27"/><polygon class="cls-10" points="2467.49 1352.74 2509.81 1369.33 2488.78 1386.63 2488.77 1386.63 2481.39 1392.7 2458.7 1383.8 2463.59 1366.51 2467.49 1352.74"/><polygon class="cls-10" points="2332.85 1345.6 2384.24 1338.64 2373.5 1361.13 2373.5 1361.13 2369.73 1369.02 2342.18 1372.76 2336.99 1357.64 2332.85 1345.6"/><polygon class="cls-10" points="2195.82 1401.77 2242.51 1373.11 2244.95 1394.77 2244.94 1394.78 2245.8 1402.38 2220.77 1417.74 2206.89 1408.85 2195.82 1401.77"/><polygon class="cls-10" points="2093.12 1506.19 2122.59 1463.52 2137.55 1478.54 2137.55 1478.55 2142.8 1483.82 2127 1506.7 2108.15 1506.41 2093.12 1506.19"/><polygon class="cls-10" points="2052.27 1630.88 2056.63 1585.64 2080.1 1590 2080.11 1590 2088.34 1591.53 2086 1615.8 2067.23 1624.19 2052.27 1630.88"/><ellipse class="cls-6" cx="3343.99" cy="1412.76" rx="439.87" ry="336.87" transform="translate(432.89 3581.56) rotate(-59.59)"/><ellipse class="cls-7" cx="3321.1" cy="1399.33" rx="439.87" ry="336.87" transform="translate(433.18 3555.19) rotate(-59.59)"/><ellipse class="cls-8" cx="3302.49" cy="1388.4" rx="439.87" ry="336.87" transform="translate(433.41 3533.74) rotate(-59.59)"/><ellipse class="cls-6" cx="3283.25" cy="1377.11" rx="439.87" ry="336.87" transform="translate(433.65 3511.57) rotate(-59.59)"/><path class="cls-9" d="M2967.32,1196.34c123-209.51,352.54-303.11,512.77-209.06,1.07.63,2.13,1.25,3.17,1.9l.11.06c.41.27.83.51,1.23.77a.15.15,0,0,1,.11.06c1.54.94,3.05,1.9,4.56,2.87,152.16,97.93,178.86,338.52,58.28,544s-343.66,299.42-503.35,214.32c-1.58-.85-3.16-1.7-4.73-2.58a.16.16,0,0,1-.11-.07c-.42-.23-.83-.47-1.27-.7l-.11-.07c-1.07-.59-2.13-1.21-3.2-1.84C2874.55,1651.92,2844.35,1405.86,2967.32,1196.34Z"/><path class="cls-10" d="M2974.37,1200.48c122-207.83,348.86-301.6,508.89-211.3l.11.06c.41.27.83.51,1.23.77a.15.15,0,0,1,.11.06c1.54.94,3.05,1.9,4.56,2.87,152.16,97.93,178.86,338.52,58.28,544s-343.66,299.42-503.35,214.32c-1.58-.85-3.16-1.7-4.73-2.58a.16.16,0,0,1-.11-.07c-.42-.23-.83-.47-1.27-.7l-.11-.07C2881.12,1652.11,2852.38,1408.32,2974.37,1200.48Z"/><path class="cls-6" d="M2985.15,1206.81C3100.57,1010.17,3316,922.33,3466.4,1010.6c1.43.83,2.85,1.68,4.24,2.55a.17.17,0,0,1,.1.06c1.45.89,2.87,1.79,4.28,2.7,142.81,91.91,167.87,317.71,54.7,510.53s-322.54,281-472.42,201.15c-1.48-.8-3-1.59-4.43-2.42a.24.24,0,0,1-.11-.06q-2.16-1.2-4.29-2.45C2898.08,1634.39,2869.74,1403.45,2985.15,1206.81Z"/><path class="cls-10" d="M3076.8,1260.54c78-133,223.76-192.39,325.46-132.69,1,.57,1.92,1.14,2.86,1.73l.08,0c1,.6,1.92,1.21,2.88,1.82,1.21.78,2.4,1.56,3.56,2.38,93.43,63.58,109,214.12,33.44,342.89s-214.62,188.55-315.68,138c-1.28-.62-2.54-1.27-3.81-2-1-.54-2-1.07-3-1.62l-.08,0c-1-.54-1.93-1.08-2.91-1.65C3017.91,1549.71,2998.74,1393.53,3076.8,1260.54Z"/><path class="cls-11" d="M3077.78,1261.12c76.12-129.67,218.2-187.6,317.37-129.39.95.55,1.87,1.11,2.79,1.68l.08,0c.94.58,1.87,1.18,2.81,1.78,1.17.75,2.33,1.51,3.47,2.31,91.1,62,106.31,208.8,32.61,334.36s-209.28,183.86-307.83,134.55c-1.25-.61-2.48-1.25-3.71-1.91-1-.52-2-1-2.93-1.59l-.07,0c-.95-.52-1.89-1.06-2.83-1.61C3020.37,1543.1,3001.67,1390.8,3077.78,1261.12Z"/><path class="cls-12" d="M3096.78,1272.28c73.63-125.45,209-183.76,307.52-134.73,91.1,62,106.31,208.8,32.61,334.36s-209.28,183.86-307.83,134.55C3038.23,1544.33,3023.16,1397.72,3096.78,1272.28Z"/><g id="Layer_2-7" data-name="Layer 2"><g id="Layer_1-2-7" data-name="Layer 1-2"><g id="Layer_2-2-8" data-name="Layer 2-2"><g id="Layer_1-2-2-8" data-name="Layer 1-2-2"><polygon class="cls-11" points="3301.9 1501.34 3399.23 1335.52 3339.57 1248.59 3323.03 1238.88 3241.46 1415.76 3127.22 1406.4 3169.31 1481.94 3185.85 1491.65 3301.9 1501.34"/><polygon class="cls-11" points="3237.52 1407.02 3290.75 1316.34 3231.1 1229.42 3214.55 1219.71 3115.29 1388.83 3131.83 1398.53 3237.52 1407.02"/></g></g></g></g><g id="Layer_2-8" data-name="Layer 2"><g id="Layer_1-2-8" data-name="Layer 1-2"><g id="Layer_2-2-9" data-name="Layer 2-2"><g id="Layer_1-2-2-9" data-name="Layer 1-2-2"><polygon class="cls-10" points="3110.67 1396.7 3224.92 1406.05 3323.04 1238.89 3382.68 1325.81 3285.35 1491.63 3169.31 1481.94 3110.67 1396.7"/><polygon class="cls-6" points="3115.29 1388.82 3214.55 1219.71 3258.71 1284.04 3258.71 1284.06 3274.21 1306.63 3220.98 1397.31 3162.16 1392.58 3115.29 1388.82"/></g></g></g><polygon class="cls-6" points="3285.35 1491.63 3224.92 1406.05 3323.04 1238.89 3382.68 1325.81 3285.35 1491.63"/></g><polygon class="cls-9" points="3110.67 1396.7 3224.92 1406.05 3323.04 1238.89 3232.81 1415.05 3124.35 1408.03 3141.76 1441.9 3110.67 1396.7"/><polygon class="cls-10" points="3115.29 1388.82 3214.55 1219.71 3258.71 1284.04 3258.71 1284.06 3238.53 1262.47 3162.16 1392.58 3115.29 1388.82"/><polygon class="cls-9" points="3143.08 1391.05 3125.66 1380.82 3214.11 1230.11 3232.1 1245.28 3214.55 1219.71 3115.29 1388.82 3143.08 1391.05"/><polygon class="cls-11" points="3081.72 1710.9 3035.04 1683.5 3059.8 1659.38 3059.8 1659.37 3068.49 1650.91 3093.53 1665.6 3086.95 1690.81 3081.72 1710.9"/><polygon class="cls-11" points="3233.01 1730.62 3174.68 1737.41 3166.57 1732.65 3188.16 1704.9 3216.06 1685.09 3224.17 1689.85 3229.09 1712.54 3233.01 1730.62"/><polygon class="cls-11" points="3390.88 1656.96 3336.51 1696.12 3328.41 1691.36 3347.76 1654.84 3334.59 1652.65 3355.64 1626.9 3363.75 1631.66 3378.85 1645.74 3390.88 1656.96"/><polygon class="cls-11" points="3513.01 1509.67 3477.18 1570.7 3469.07 1565.94 3461.25 1547.48 3455.65 1539.33 3474.86 1506.6 3502.29 1504.7 3513.01 1509.67"/><polygon class="cls-11" points="3566.68 1328.2 3559 1394.76 3532.81 1386.72 3532.81 1386.71 3523.62 1383.89 3515.51 1379.13 3527.74 1348.2 3558.57 1323.44 3566.68 1328.2"/><polygon class="cls-11" points="3537.51 1161.19 3560.03 1215.44 3530.62 1224.72 3530.61 1224.72 3520.29 1227.98 3512.18 1223.22 3508.22 1198.89 3529.41 1156.43 3537.51 1161.19"/><polygon class="cls-11" points="3433.32 1053.39 3480 1080.79 3455.24 1104.91 3455.24 1104.91 3446.55 1113.38 3421.51 1098.69 3428.09 1073.48 3433.32 1053.39"/><polygon class="cls-11" points="3282.03 1033.67 3332.25 1022.12 3340.36 1026.88 3326.89 1059.38 3326.88 1059.39 3322.15 1070.79 3290.87 1074.43 3282.76 1069.67 3282.03 1033.67"/><polygon class="cls-11" points="3124.16 1107.33 3170.42 1063.41 3178.53 1068.17 3179.95 1100.34 3179.95 1100.34 3180.45 1111.63 3151.29 1132.63 3143.18 1127.87 3124.16 1107.33"/><polygon class="cls-11" points="3002.03 1254.62 2993.92 1249.86 3029.75 1188.82 3037.86 1193.58 3053.79 1216.8 3053.79 1216.81 3059.39 1224.95 3040.18 1257.68 3018.95 1255.98 3002.03 1254.62"/><polygon class="cls-11" points="2948.36 1436.08 2940.25 1431.32 2956.04 1369.53 2971.62 1392.89 2983.31 1375.64 2991.42 1380.4 2987.3 1416.09 2965.63 1427.21 2948.36 1436.08"/><polygon class="cls-11" points="2977.53 1603.09 2969.41 1598.33 2955.01 1548.85 2984.42 1539.56 2986.64 1531.55 2994.75 1536.31 3006.82 1565.39 2990.52 1586.37 2977.53 1603.09"/><polygon class="cls-10" points="3073.61 1706.14 3026.93 1678.74 3051.69 1654.62 3051.7 1654.61 3060.39 1646.15 3085.42 1660.84 3078.84 1686.05 3073.61 1706.14"/><polygon class="cls-10" points="3224.91 1725.86 3166.57 1732.65 3180.04 1700.15 3180.05 1700.14 3184.78 1688.73 3216.06 1685.09 3220.98 1707.78 3224.91 1725.86"/><polygon class="cls-10" points="3382.77 1652.2 3328.41 1691.36 3326.98 1659.19 3326.99 1659.18 3326.49 1647.89 3355.64 1626.9 3370.74 1640.98 3382.77 1652.2"/><polygon class="cls-10" points="3504.9 1504.91 3469.07 1565.94 3453.14 1542.73 3453.14 1542.72 3447.54 1534.57 3466.75 1501.84 3487.98 1503.55 3504.9 1504.91"/><polygon class="cls-10" points="3558.57 1323.44 3550.89 1390 3524.7 1381.96 3524.7 1381.95 3515.51 1379.13 3519.63 1343.44 3541.3 1332.31 3558.57 1323.44"/><polygon class="cls-10" points="3529.41 1156.43 3551.92 1210.68 3522.51 1219.96 3522.5 1219.96 3512.18 1223.22 3500.11 1194.13 3516.41 1173.15 3529.41 1156.43"/><polygon class="cls-10" points="3425.21 1048.63 3471.89 1076.03 3447.13 1100.15 3447.13 1100.15 3438.44 1108.62 3413.41 1093.93 3419.98 1068.72 3425.21 1048.63"/><polygon class="cls-10" points="3273.92 1028.91 3332.25 1022.12 3318.78 1054.62 3318.78 1054.63 3314.05 1066.03 3282.76 1069.67 3277.84 1046.99 3273.92 1028.91"/><polygon class="cls-10" points="3116.05 1102.57 3170.42 1063.41 3171.84 1095.58 3171.84 1095.58 3172.34 1106.87 3143.18 1127.87 3128.09 1113.79 3116.05 1102.57"/><polygon class="cls-10" points="2993.92 1249.86 3029.75 1188.82 3045.68 1212.04 3045.68 1212.05 3051.28 1220.19 3032.07 1252.92 3010.84 1251.22 2993.92 1249.86"/><polygon class="cls-10" points="2940.25 1431.32 2947.93 1364.77 2974.12 1372.81 2974.12 1372.81 2983.31 1375.64 2979.19 1411.33 2957.52 1422.45 2940.25 1431.32"/><polygon class="cls-10" points="2969.41 1598.33 2946.9 1544.09 2976.32 1534.8 2976.32 1534.8 2986.64 1531.55 2998.72 1560.63 2982.41 1581.61 2969.41 1598.33"/></g></g></g></svg>