<?xml version="1.0" encoding="UTF-8" standalone="no" ?>
<!DOCTYPE svg PUBLIC "-//W3C//DTD SVG 1.1//EN" "http://www.w3.org/Graphics/SVG/1.1/DTD/svg11.dtd">
<svg xmlns="http://www.w3.org/2000/svg" xmlns:xlink="http://www.w3.org/1999/xlink" version="1.1" width="200" height="50" viewBox="-9.04 -2.4 200 50" xml:space="preserve">
<desc>Created with Fabric.js 5.2.4</desc>
<defs>
</defs>
<rect x="0" y="0" width="100%" height="100%" fill="transparent"></rect>
<g transform="matrix(1 0 0 1 100 25)" id="e0aa5110-a04d-4393-a4f3-d3cbc27400bc"  >
<rect style="stroke: none; stroke-width: 1; stroke-dasharray: none; stroke-linecap: butt; stroke-dashoffset: 0; stroke-linejoin: miter; stroke-miterlimit: 4; fill: rgb(255,255,255); fill-rule: nonzero; opacity: 1; visibility: hidden;" vector-effect="non-scaling-stroke"  x="-100" y="-25" rx="0" ry="0" width="200" height="50" />
</g>
<g transform="matrix(Infinity NaN NaN Infinity 0 0)" id="6a5aa971-1c71-462d-9128-f7d0725443f2"  >
</g>
<g transform="matrix(0.04 0 0 0.04 325.42 86.9)" id="logoTextAr"  >
<rect style="stroke: rgb(0,0,0); stroke-width: 0; stroke-dasharray: none; stroke-linecap: butt; stroke-dashoffset: 0; stroke-linejoin: miter; stroke-miterlimit: 10; fill: none; fill-rule: nonzero; opacity: 1;" vector-effect="non-scaling-stroke"  x="-309.5" y="-91" rx="0" ry="0" width="619" height="182" />
</g>
<g transform="matrix(0.25 0 0 0.25 91 23)" clip-path="url(#CLIPPATH_9)"  >
<clipPath id="CLIPPATH_9" >
	<rect transform="matrix(1.97 0 0 1.97 5.27 -20.71)" id="clip-2" clip-path="url(#undefined)" x="-375" y="-375" rx="0" ry="0" width="750" height="750" />
</clipPath>
<path style="stroke: none; stroke-width: 0; stroke-dasharray: none; stroke-linecap: butt; stroke-dashoffset: 0; stroke-linejoin: miter; stroke-miterlimit: 10; fill: rgb(179,25,32); fill-rule: nonzero; opacity: 1;" vector-effect="non-scaling-stroke"  transform=" translate(-316.58, -320.45)" d="M 63.9256 260.33371 C 57.13989 260.33371 51.6131 265.82984 51.6131 272.49264 C 51.6131 279.27835 57.13989 284.80514 63.9256 284.80514 C 70.71131 284.80514 76.2381 279.27835 76.2381 272.49264 C 76.2381 265.82984 70.71131 260.33371 63.9256 260.33371 z M 94.47649 260.33371 C 87.69078 260.33371 82.16399 265.82984 82.16399 272.49264 C 82.16399 279.27835 87.69078 284.80514 94.47649 284.80514 C 101.29286 284.80514 106.78899 279.27835 106.78899 272.49264 C 106.78899 265.82984 101.29286 260.33371 94.47649 260.33371 z M 148.54687 335.16034 L 144.43244 335.16034 C 139.76533 335.16034 135.65104000000002 331.62939 134.82202 327.08504 L 134.82202 286.49381999999997 L 112.59211 286.49381999999997 L 112.59211 326.96211999999997 C 112.59211 331.47565999999995 108.90759 335.16018999999994 104.39404 335.16018999999994 L 54.161750000000005 335.16018999999994 C 48.51220000000001 335.16018999999994 43.967850000000006 330.76941999999997 43.967850000000006 324.96628999999996 L 43.967850000000006 300.64842999999996 L 21.615020000000005 300.64842999999996 L 21.615020000000005 324.96628999999996 C 21.615020000000005 342.80557999999996 36.199540000000006 357.23652999999996 54.16160000000001 357.23652999999996 L 106.9424 357.23652999999996 C 113.88154 357.23652999999996 120.08392 354.68801999999994 125.05802 350.57372999999995 C 130.43123 354.68816 137.06338 357.23652999999996 144.43243 357.23652999999996 L 148.39329 357.23652999999996 C 154.47275000000002 357.23652999999996 159.56963000000002 352.41598999999997 159.56963000000002 346.06019 C 159.56963000000002 339.98073 154.62618 335.16019 148.54671000000002 335.16019 z M 163.11607 357.23668 C 177.54717 357.23668 189.15342 345.50766 189.15342 331.3529 L 189.15342 286.49381999999997 L 167.07693 286.49381999999997 L 167.07693 331.3529 C 167.07693 333.4715 165.66458 335.16019 163.23884 335.16019 L 148.10164 335.16019 C 142.02218 335.16019 136.9253 339.70439 136.9253 346.06019 C 136.9253 352.13964999999996 142.02218 357.23652999999996 148.10164 357.23652999999996 z M 153.90476 378.88326 C 153.90476 385.66897 159.43155000000002 391.19576 166.21726 391.19576 C 173.00297 391.19576 178.52976 385.66897 178.52976 378.88326 C 178.52976 372.22046 173.00297 366.72433 166.21726 366.72433 C 159.43155000000002 366.72433 153.90476 372.22046 153.90476 378.88326 z M 342.22991 258.18445 L 320.30699000000004 258.18445 L 320.30699000000004 329.94055000000003 C 320.30699000000004 332.88817 317.75848 335.31376 314.78020000000004 335.31376 L 262.27574000000004 335.31376 C 256.77961000000005 335.31376 252.23541000000003 330.76956 252.23541000000003 325.27343 L 252.23541000000003 300.64858000000004 L 230.15892000000002 300.64858000000004 L 230.15892000000002 325.27343 C 230.15892000000002 342.80557 244.59002000000004 357.23667 262.27573 357.23667 L 323.40817000000004 357.23667 C 333.87841000000003 357.23667 342.22990000000004 348.88503000000003 342.22990000000004 338.56837 z M 303.32753 283.79189 L 289.17277 283.79189 C 285.76459 283.79189 285.48825 280.69070000000005 285.48825 279.70826 C 285.48825 278.01957 287.17694 276.57641 289.17277 276.57641 C 292.27396 276.57641 293.13363000000004 277.71242 294.9759 280.84427 L 303.4503 274.3349 C 300.77902 268.3782 295.52857 265.39993 289.17277 265.39993 C 281.25104 265.39993 275.44792 271.35663 274.31191 278.41853 C 274.03557 280.13802 274.31191 281.98028999999997 274.74182 283.79174 L 270.07471000000004 283.79174 L 270.07471000000004 294.84531 L 303.32754000000006 294.84531 z M 406.3253 335.16034 L 402.64078 335.16034 C 397.5439 335.16034 393.15313000000003 330.76957000000004 393.15313000000003 325.67269000000005 L 393.15313000000003 286.49397000000005 L 371.23021000000006 286.49397000000005 L 371.23021000000006 352.01704000000007 C 371.23021000000006 364.02240000000006 363.0321400000001 367.8604900000001 350.01354000000003 370.40900000000005 L 358.08884000000006 391.19590000000005 C 379.4284200000001 387.23504 391.03467000000006 375.07611 392.8769300000001 357.2368200000001 L 393.0305000000001 355.6709000000001 C 396.13169000000005 356.68414000000007 399.23273000000006 357.2368200000001 402.64092000000005 357.2368200000001 L 406.32544000000007 357.2368200000001 C 412.40490000000005 357.2368200000001 417.34836000000007 352.4162800000001 417.34836000000007 346.2139000000001 C 417.34836000000007 339.98086000000006 412.4049100000001 335.1603300000001 406.32544000000007 335.1603300000001 z M 422.58333 249.71004 C 415.79762 249.71004 410.27083 255.23683 410.27083 261.86897 C 410.27083 268.65468 415.79762 274.18147 422.58333 274.18147 C 429.36904 274.18147 434.89583 268.65468 434.89583 261.86897 C 434.89583 255.23683 429.36904 249.71004 422.58333 249.71004 z M 453.13408 249.71004 C 446.34837 249.71004 440.85238 255.23683 440.85238 261.86897 C 440.85238 268.65468 446.34851 274.18147 453.13408 274.18147 C 459.95045 274.18147 465.44658 268.65468 465.44658 261.86897 C 465.44658 255.23683 459.95045 249.71004 453.13408 249.71004 z M 426.97396 357.23668 C 441.40506 357.23668 453.01131 345.50766 453.01131 331.3529 L 453.01131 286.49381999999997 L 430.93482 286.49381999999997 L 430.93482 331.3529 C 430.93482 333.4715 429.52247 335.16019 427.12753 335.16019 L 405.88005999999996 335.16019 C 399.8006 335.16019 394.70372 339.70439 394.70372 346.06019 C 394.70372 352.13964999999996 399.8006 357.23652999999996 405.88005999999996 357.23652999999996 z M 509.32307 357.23668 L 531.36875 357.23668 L 531.36875 258.18444999999997 L 509.32307 258.18444999999997 z M 575.25305 261.86897 C 575.25305 268.65468 580.77984 274.18147 587.56555 274.18147 C 594.35126 274.18147 599.87805 268.65468 599.87805 261.86897 C 599.87805 255.23683 594.35126 249.71004 587.56555 249.71004 C 580.77984 249.71004 575.25305 255.23683 575.25305 261.86897 z M 587.84189 357.23668 C 596.46987 357.23668 604.3915900000001 353.27581999999995 609.6420400000001 346.76644 C 615.1381700000001 339.8273 616.9804300000001 331.3529 615.01525 322.29501 L 602.8256700000001 280.41420999999997 L 581.7624300000001 286.49366999999995 L 593.6450200000002 328.09812999999997 C 594.1977000000002 330.21673 593.0616900000001 332.05899 592.5090100000001 332.88800999999995 C 591.8027600000001 333.90124999999995 590.3904100000001 335.16017999999997 587.8419000000001 335.16017999999997 L 546.2374400000001 335.16017999999997 L 546.2374400000001 357.23666999999995 z M 17.37783 249.71004" stroke-linecap="round" />
</g>
</svg>