<svg xmlns="http://www.w3.org/2000/svg" viewBox="0 0 142.8714 21.971">
   <a transform="translate(-36.2735 -35.2986)">
     <g style="line-height:0;-inkscape-font-specification:&quot;Snell Roundhand&quot;;white-space:pre;shape-inside:url(#a)" text-anchor="middle" transform="translate(11.1591 1.56) scale(.2646)">
       <path fill="currentColor" d="m269.4354 202.9115-4.992-12.096h-33.12l-4.992 12.096h-16.8l30.144-67.2h16.8l29.952 67.2zm-21.408-52.128-11.04 26.496h21.888zm50.9759 0q-3.936 0-6.432-2.304-2.4-2.304-2.4-5.856 0-3.648 2.496-5.952t6.336-2.304q3.84 0 6.336 2.304 2.496 2.304 2.496 5.952 0 3.552-2.496 5.856-2.4 2.304-6.336 2.304zm-7.584 4.704h15.072v47.424h-15.072zm74.784-19.776h17.376l-27.648 67.2h-16.608l-27.648-67.2h17.376l9.024 22.848 9.504 26.112 9.696-26.112zm29.7597 15.072q-3.936 0-6.432-2.304-2.4-2.304-2.4-5.856 0-3.648 2.496-5.952t6.336-2.304q3.84 0 6.336 2.304 2.496 2.304 2.496 5.952 0 3.552-2.496 5.856-2.4 2.304-6.336 2.304zm-7.584 4.704h15.072v47.424h-15.072zm76.128-19.776v67.2h-13.056l-.96-5.664q-6.048 6.624-15.744 6.624-6.624 0-11.808-3.072-5.088-3.168-7.968-8.736-2.88-5.664-2.88-12.864 0-7.2 2.88-12.768 2.88-5.664 7.968-8.736 5.184-3.168 11.808-3.168 8.736 0 14.688 5.472v-24.288zm-26.208 55.488q4.992 0 8.16-3.264 3.168-3.36 3.168-8.736 0-5.376-3.168-8.64-3.168-3.36-8.16-3.36t-8.16 3.36q-3.072 3.36-3.072 8.64 0 5.28 3.072 8.64 3.168 3.36 8.16 3.36zm71.4238-55.488q7.776 0 13.536 2.976 5.856 2.88 9.024 8.352 3.168 5.472 3.168 12.768t-3.168 12.768q-3.168 5.472-9.024 8.448-5.76 2.88-13.536 2.88h-16.416v19.008h-15.744v-67.2zm-.768 34.464q4.992 0 7.872-2.784 2.976-2.784 2.976-7.488 0-4.704-2.976-7.488-2.88-2.784-7.872-2.784h-15.744v20.544zm60.4799-15.744q3.264 0 6.528 1.248 3.264 1.152 5.664 3.456l-6.336 11.04q-2.016-1.248-3.744-1.824-1.728-.576-3.648-.576-4.8 0-7.584 3.072t-2.784 9.024v23.04h-15.072v-47.424h13.152l1.152 5.952q4.608-7.008 12.672-7.008zm39.3598 49.536q-7.872 0-13.824-3.072-5.856-3.168-9.024-8.736-3.168-5.568-3.168-12.96 0-7.392 3.168-12.96 3.168-5.568 9.024-8.64 5.952-3.168 13.824-3.168t13.824 3.168q5.952 3.072 9.12 8.64 3.168 5.568 3.168 12.96 0 7.392-3.168 12.96-3.168 5.568-9.12 8.736-5.952 3.072-13.824 3.072zm0-12.768q4.992 0 8.064-3.36t3.072-8.64q0-5.28-3.072-8.64-3.072-3.36-8.064-3.36-4.896 0-7.968 3.36t-3.072 8.64q0 5.28 3.072 8.64 3.072 3.36 7.968 3.36z" aria-label="AiVidPro" font-family="Nexa" font-size="96" font-weight="900" style="line-height:1.6;-inkscape-font-specification:&quot;Nexa Heavy&quot;;text-align:center"/>
     </g>
     <path fill="currentColor" d="M36.2735 35.2986h6.5278v3.2766h-2.8194v15.4432h2.8194v3.2512h-6.5278zm23.7489 21.971h-6.5278v-3.2512h2.8194V38.5752h-2.8194v-3.2766h6.5278z" aria-label="[ ]" font-family="Nexa" font-size="25.4" font-weight="900" style="line-height:1.6;-inkscape-font-specification:&quot;Nexa Heavy&quot;;text-align:center" text-anchor="middle"/>
     <path fill="#ff2a2a" d="M53.592 46.3028a5.4452 5.4452 0 0 1-5.4451 5.4452 5.4452 5.4452 0 0 1-5.4452-5.4452 5.4452 5.4452 0 0 1 5.4452-5.4452 5.4452 5.4452 0 0 1 5.4452 5.4452z"/>
   </a>
 </svg>