<?xml version="1.0" encoding="UTF-8" standalone="no"?>
<svg
   viewBox="0 0 1920 1080"
   version="1.1"
   id="svg4"
   sodipodi:docname="best-ai-script-generators-featured-image.svg"
   inkscape:export-filename="wickedbackground.svg"
   inkscape:export-xdpi="96"
   inkscape:export-ydpi="96"
   inkscape:version="1.3.2 (091e20ef0f, 2023-11-25)"
   xmlns:inkscape="http://www.inkscape.org/namespaces/inkscape"
   xmlns:sodipodi="http://sodipodi.sourceforge.net/DTD/sodipodi-0.dtd"
   xmlns="http://www.w3.org/2000/svg"
   xmlns:svg="http://www.w3.org/2000/svg">
  <defs
     id="defs4" />
  <sodipodi:namedview
     id="namedview4"
     pagecolor="#ffffff"
     bordercolor="#000000"
     borderopacity="0.25"
     inkscape:showpageshadow="2"
     inkscape:pageopacity="0.0"
     inkscape:pagecheckerboard="0"
     inkscape:deskcolor="#d1d1d1"
     inkscape:zoom="0.29791667"
     inkscape:cx="1349.3706"
     inkscape:cy="199.72028"
     inkscape:window-width="1578"
     inkscape:window-height="996"
     inkscape:window-x="0"
     inkscape:window-y="0"
     inkscape:window-maximized="1"
     inkscape:current-layer="g4" />
  <g
     transform="          rotate(0 960 540)           translate(-0 -0)          scale(1)        "
     id="g4">
    <rect
       width="1920"
       height="1080"
       fill="rgb(184, 171, 255)"
       id="rect1"
       style="fill:#db383e;fill-opacity:1" />
    <g
       id="g5"
       transform="matrix(1.7936503,0,0,1.7936503,-343.22888,-1124.2418)">
      <rect
         class="cls-2"
         x="-302.60889"
         y="745.10596"
         width="1058.17"
         height="1211.27"
         rx="32.66"
         ry="32.66"
         transform="rotate(-37.27)"
         id="rect141"
         style="fill:none;stroke:#ffffff;stroke-width:5px;stroke-miterlimit:10" />
      <circle
         class="cls-2"
         cx="347.42743"
         cy="729.51483"
         r="10.22"
         id="circle143"
         style="fill:none;stroke:#ffffff;stroke-width:5px;stroke-miterlimit:10" />
      <circle
         class="cls-2"
         cx="311.26743"
         cy="757.03479"
         r="10.22"
         id="circle145"
         style="fill:none;stroke:#ffffff;stroke-width:5px;stroke-miterlimit:10" />
      <circle
         class="cls-2"
         cx="275.09741"
         cy="784.5448"
         r="10.22"
         id="circle147"
         style="fill:none;stroke:#ffffff;stroke-width:5px;stroke-miterlimit:10" />
      <rect
         class="cls-1"
         x="-237.0551"
         y="876.31537"
         width="158.64999"
         height="158.64999"
         rx="32.66"
         ry="32.66"
         transform="rotate(-37.27)"
         id="rect149"
         style="fill:#ffffff;stroke:#ffffff;stroke-width:5px;stroke-miterlimit:10" />
      <rect
         class="cls-2"
         x="-237.08473"
         y="1102.9626"
         width="927.12"
         height="334.23999"
         rx="32.66"
         ry="32.66"
         transform="rotate(-37.27)"
         id="rect151"
         style="fill:none;stroke:#ffffff;stroke-width:5px;stroke-miterlimit:10" />
      <path
         class="cls-8"
         d="m 408.60743,865.14481 c -0.89,-1.78 -1.49,-3.65 -1.81,-5.55 -0.14,-0.84 -0.23,-1.69 -0.27,-2.54 -0.1,-2.37 0.22,-4.73 0.95,-6.98 0.26,-0.81 0.57,-1.6 0.94,-2.38 0.82,-1.74 1.9,-3.38 3.22,-4.86 0.05,-0.06 0.11,-0.12 0.17,-0.18 0.5,-0.55 -0.13,-1.39 -0.8,-1.05 -0.07,0.04 -0.15,0.07 -0.22,0.11 -1.78,0.89 -3.65,1.49 -5.55,1.81 -0.84,0.14 -1.69,0.23 -2.54,0.27 -2.37,0.1 -4.73,-0.22 -6.98,-0.95 -0.81,-0.26 -1.6,-0.57 -2.38,-0.94 -1.74,-0.82 -3.38,-1.9 -4.86,-3.22 -0.06,-0.05 -0.12,-0.11 -0.18,-0.17 -0.55,-0.51 -1.39,0.13 -1.05,0.8 0.04,0.07 0.07,0.15 0.11,0.22 0.89,1.78 1.49,3.65 1.81,5.55 0.14,0.84 0.23,1.69 0.27,2.54 0.1,2.37 -0.22,4.73 -0.95,6.98 -0.26,0.81 -0.57,1.6 -0.94,2.38 -0.82,1.74 -1.9,3.38 -3.22,4.86 -0.05,0.06 -0.11,0.12 -0.17,0.18 -0.5,0.55 0.13,1.39 0.8,1.05 0.07,-0.04 0.15,-0.07 0.22,-0.11 1.78,-0.89 3.65,-1.49 5.55,-1.81 0.84,-0.14 1.69,-0.23 2.54,-0.27 2.37,-0.1 4.73,0.22 6.98,0.95 0.81,0.26 1.6,0.57 2.38,0.94 1.74,0.82 3.38,1.9 4.86,3.22 0.06,0.05 0.12,0.11 0.18,0.17 0.55,0.5 1.39,-0.13 1.05,-0.8 -0.04,-0.07 -0.07,-0.15 -0.11,-0.22 z m -8.35,-14.53 c -0.28,1.32 -0.46,2.65 -0.54,3.99 -1.32,-0.28 -2.65,-0.46 -3.99,-0.54 0.28,-1.32 0.46,-2.65 0.54,-3.99 1.32,0.28 2.65,0.46 3.99,0.54 z m 64.34,68.15 c 0.51,1.66 1.15,3.29 1.94,4.87 0.06,0.12 0.12,0.23 0.18,0.35 0.54,1.05 -0.79,2.06 -1.66,1.26 -0.1,-0.09 -0.19,-0.18 -0.29,-0.26 -1.32,-1.18 -2.72,-2.24 -4.18,-3.17 -0.87,-0.56 -1.77,-1.07 -2.69,-1.53 -6.35,-3.21 -13.61,-4.2 -20.59,-2.8 -1.01,0.2 -2.01,0.45 -3,0.76 -1.66,0.51 -3.29,1.15 -4.87,1.94 -0.12,0.06 -0.23,0.12 -0.35,0.18 -1.05,0.54 -2.06,-0.79 -1.26,-1.66 0.09,-0.1 0.18,-0.19 0.26,-0.29 1.18,-1.32 2.24,-2.72 3.17,-4.18 0.56,-0.87 1.07,-1.77 1.53,-2.69 3.21,-6.35 4.2,-13.61 2.8,-20.59 -0.2,-1.01 -0.45,-2.01 -0.76,-3 -0.51,-1.66 -1.15,-3.29 -1.94,-4.87 -0.06,-0.12 -0.12,-0.23 -0.18,-0.35 -0.54,-1.05 0.79,-2.06 1.66,-1.26 0.1,0.09 0.19,0.18 0.29,0.26 1.32,1.18 2.72,2.24 4.18,3.17 0.87,0.56 1.77,1.07 2.69,1.53 6.35,3.21 13.61,4.2 20.59,2.8 1.01,-0.2 2.01,-0.45 3,-0.76 1.66,-0.51 3.29,-1.15 4.87,-1.94 0.12,-0.06 0.23,-0.12 0.35,-0.18 1.05,-0.54 2.06,0.79 1.26,1.66 -0.09,0.1 -0.18,0.19 -0.26,0.29 -1.18,1.32 -2.24,2.72 -3.17,4.18 -0.56,0.87 -1.07,1.77 -1.53,2.69 -3.21,6.35 -4.2,13.61 -2.8,20.59 0.2,1.01 0.45,2.01 0.76,3 z m -8.13,-6.53 c -0.37,-5.29 0.35,-10.61 2.12,-15.61 -5.29,0.37 -10.61,-0.35 -15.61,-2.12 0.37,5.29 -0.35,10.61 -2.12,15.61 5.29,-0.37 10.61,0.35 15.61,2.12 z m 33.64,-42.31 c 0.44,1.09 0.93,2.17 1.45,3.24 0.08,0.17 0.16,0.33 0.25,0.5 l 0.03,0.05 0.03,0.07 c 0.05,0.1 0.11,0.22 0.23,0.45 l 0.04,0.08 c 0.85,1.69 -1.27,3.3 -2.68,2.04 l -0.07,-0.06 c -0.19,-0.17 -0.28,-0.26 -0.37,-0.34 l -0.06,-0.05 -0.04,-0.04 c -0.14,-0.12 -0.28,-0.25 -0.42,-0.37 -0.89,-0.79 -1.8,-1.54 -2.73,-2.26 -0.8,-0.61 -1.61,-1.2 -2.43,-1.76 -13.34,-9.1 -30.23,-11.39 -45.51,-6.18 -0.94,0.32 -1.88,0.67 -2.81,1.05 -1.09,0.44 -2.17,0.93 -3.24,1.45 -0.17,0.08 -0.33,0.16 -0.5,0.25 l -0.05,0.03 -0.07,0.03 c -0.1,0.05 -0.22,0.11 -0.44,0.22 v 0 c 0,0 -0.08,0.05 -0.08,0.05 -1.69,0.85 -3.3,-1.27 -2.04,-2.68 l 0.06,-0.07 c 0.17,-0.19 0.26,-0.28 0.34,-0.37 l 0.05,-0.06 0.04,-0.04 c 0.12,-0.14 0.25,-0.28 0.37,-0.42 0.79,-0.89 1.54,-1.8 2.26,-2.73 0.61,-0.8 1.2,-1.61 1.76,-2.43 9.1,-13.34 11.39,-30.23 6.18,-45.51 -0.32,-0.94 -0.67,-1.88 -1.05,-2.81 -0.44,-1.09 -0.93,-2.17 -1.45,-3.24 -0.08,-0.17 -0.16,-0.33 -0.25,-0.5 l -0.03,-0.05 -0.03,-0.07 -0.05,-0.11 -0.17,-0.34 -0.04,-0.08 c -0.85,-1.69 1.27,-3.3 2.68,-2.04 l 0.07,0.06 0.22,0.2 0.15,0.14 0.06,0.05 0.04,0.04 c 0.14,0.12 0.28,0.25 0.42,0.37 0.89,0.79 1.8,1.54 2.73,2.26 0.8,0.61 1.61,1.2 2.43,1.76 13.34,9.1 30.23,11.39 45.51,6.18 0.94,-0.32 1.88,-0.67 2.81,-1.05 1.09,-0.44 2.17,-0.93 3.24,-1.45 0.17,-0.08 0.33,-0.16 0.5,-0.25 l 0.05,-0.03 0.07,-0.03 c 0.1,-0.05 0.22,-0.11 0.44,-0.22 l 0.09,-0.05 c 1.69,-0.85 3.3,1.27 2.04,2.68 l -0.06,0.07 c -0.17,0.19 -0.26,0.28 -0.34,0.37 l -0.05,0.06 -0.04,0.04 c -0.12,0.14 -0.25,0.28 -0.37,0.42 -0.79,0.89 -1.54,1.8 -2.26,2.73 -0.61,0.8 -1.2,1.61 -1.76,2.43 -9.1,13.34 -11.39,30.23 -6.18,45.51 0.32,0.94 0.67,1.88 1.05,2.81 z m -9.54,-8.03 c -2.53,-12.71 -0.73,-25.94 5.1,-37.52 -12.71,2.53 -25.94,0.73 -37.52,-5.1 2.53,12.71 0.73,25.94 -5.1,37.52 12.71,-2.53 25.94,-0.73 37.52,5.1 z"
         id="path153"
         style="fill-rule:evenodd;stroke-width:0px" />
      <rect
         class="cls-1"
         x="-30.694695"
         y="876.31665"
         width="158.64999"
         height="158.64999"
         rx="32.66"
         ry="32.66"
         transform="rotate(-37.27)"
         id="rect155"
         style="fill:#ffffff;stroke:#ffffff;stroke-width:5px;stroke-miterlimit:10" />
      <text
         class="cls-3"
         transform="rotate(-37.27)"
         id="text159"
         style="font-size:161.62px;font-family:Anton-Regular, Anton;fill:#ffffff"
         x="-187.94479"
         y="1289.8754"><tspan
           x="-187.94479"
           y="1289.8754"
           id="tspan157">[ Aa________</tspan></text>
      <path
         class="cls-6"
         d="m 620.34743,671.35481 c 6.78,-5.14 16.44,-3.83 21.6,2.93 l 37.33,49.06 c 5.14,6.78 3.83,16.44 -2.93,21.6 l -61.33,46.66 c -6.78,5.14 -16.44,3.83 -21.6,-2.93 l -37.33,-49.06 c -5.14,-6.78 -3.83,-16.44 2.93,-21.6 l 61.33,-46.66 m -4.67,-6.13 -61.33,46.66 c -10.16,7.73 -12.13,22.23 -4.4,32.4 l 37.33,49.06 c 7.73,10.16 22.23,12.13 32.4,4.4 l 61.33,-46.66 c 10.16,-7.73 12.13,-22.23 4.4,-32.4 l -37.33,-49.06 c -7.73,-10.16 -22.23,-12.13 -32.4,-4.4 z m -17.5,56.44 31.51,-3.48 c 2.12,-0.23 4.02,1.29 4.25,3.41 0.07,0.63 -0.02,1.26 -0.25,1.85 l -11.76,29.44 c -0.79,1.98 -3.03,2.94 -5.01,2.15 -0.65,-0.26 -1.21,-0.69 -1.64,-1.25 l -19.75,-25.96 c -1.29,-1.69 -0.96,-4.11 0.73,-5.4 0.56,-0.42 1.22,-0.69 1.91,-0.76 z"
         id="path161"
         style="stroke-width:0px" />
    </g>
    <g
       transform="translate(0, 0)"
       id="g1" />
    <g
       transform="translate(0, 360)"
       id="g2" />
    <g
       transform="translate(0, 720)"
       id="g3" />
  </g>
</svg>
