<?xml version="1.0" encoding="UTF-8" standalone="no"?>
<svg
   viewBox="0 0 1920 1080"
   version="1.1"
   id="svg4"
   sodipodi:docname="best-ai-voice-generators-featured-image-2.svg"
   inkscape:export-filename="wickedbackground.svg"
   inkscape:export-xdpi="96"
   inkscape:export-ydpi="96"
   inkscape:version="1.3.2 (091e20ef0f, 2023-11-25)"
   xmlns:inkscape="http://www.inkscape.org/namespaces/inkscape"
   xmlns:sodipodi="http://sodipodi.sourceforge.net/DTD/sodipodi-0.dtd"
   xmlns="http://www.w3.org/2000/svg"
   xmlns:svg="http://www.w3.org/2000/svg">
  <defs
     id="defs4" />
  <sodipodi:namedview
     id="namedview4"
     pagecolor="#ffffff"
     bordercolor="#000000"
     borderopacity="0.25"
     inkscape:showpageshadow="2"
     inkscape:pageopacity="0.0"
     inkscape:pagecheckerboard="0"
     inkscape:deskcolor="#d1d1d1"
     inkscape:zoom="0.59583333"
     inkscape:cx="956.64336"
     inkscape:cy="532.86714"
     inkscape:window-width="1578"
     inkscape:window-height="996"
     inkscape:window-x="0"
     inkscape:window-y="0"
     inkscape:window-maximized="1"
     inkscape:current-layer="g4" />
  <g
     transform="          rotate(0 960 540)           translate(-0 -0)          scale(1)        "
     id="g4">
    <rect
       width="1920"
       height="1080"
       fill="rgb(184, 171, 255)"
       id="rect1"
       style="fill:#1460f7;fill-opacity:1" />
    <g
       id="g2"
       transform="matrix(1.7550426,0,0,1.7550426,-6.209433,-152.68148)">
      <polygon
         class="cls-5"
         points="199.72,482.71 427.78,446.43 199.72,410.15 "
         id="polygon9576"
         style="fill:#ffffff;stroke-width:0px" />
      <polygon
         class="cls-5"
         points="211.13,353.29 426.78,435.9 247.42,290.45 "
         id="polygon9578"
         style="fill:#ffffff;stroke-width:0px" />
      <polygon
         class="cls-5"
         points="248.35,602.08 427.71,456.63 212.07,539.24 "
         id="polygon9580"
         style="fill:#ffffff;stroke-width:0px" />
      <path
         class="cls-5"
         d="m 452.25,363.26 c 16.72,-26.58 51.69,-34.54 55.99,-68.99 4.3,-34.46 10.98,-86.12 37.53,-112.83 26.56,-26.7 68.59,-58.15 168.1,-45.74 99.51,12.42 217.13,111.15 142.4,271.38 -23.81,51.06 -74.36,77.78 -78.83,113.58 -4.47,35.8 28.36,141.28 28.36,141.28 L 599.23,636.17 c -15.48,-29.48 2.05,-70.27 -9.26,-79.39 -11.32,-9.13 -88.41,9.9 -113.59,-10.87 -25.19,-20.77 5.55,-48.38 6.9,-59.18 1.35,-10.8 -18.08,-12.74 -16.59,-24.67 1.49,-11.93 19,-4.24 20.18,-11.81 1.19,-7.57 -24.82,-4.79 -23.33,-16.72 1.49,-11.93 12.2,-13.16 13.86,-26.48 1.66,-13.32 -41.88,-17.21 -25.14,-43.78 z"
         id="path9582"
         style="fill:#ffffff;stroke-width:0px" />
      <path
         class="cls-3"
         d="m 715.25,290.28 h 9.41 c 0.66,2.41 2.86,4.18 5.48,4.18 3.13,0 5.68,-2.55 5.68,-5.68 0,-3.13 -2.55,-5.68 -5.68,-5.68 -2.61,0 -4.82,1.77 -5.48,4.18 h -9.41 v -15.86 h 9.41 c 0.66,2.41 2.86,4.18 5.48,4.18 3.13,0 5.68,-2.55 5.68,-5.68 0,-3.13 -2.55,-5.68 -5.68,-5.68 -2.61,0 -4.82,1.77 -5.47,4.18 h -9.41 v -3.74 c 0,-3.51 -2.86,-6.37 -6.37,-6.37 h -3.74 v -9.41 c 2.41,-0.66 4.18,-2.86 4.18,-5.47 0,-3.13 -2.55,-5.68 -5.68,-5.68 -3.13,0 -5.68,2.55 -5.68,5.68 0,2.61 1.78,4.82 4.18,5.48 v 9.41 h -15.86 v -9.41 c 2.41,-0.66 4.18,-2.86 4.18,-5.48 0,-3.13 -2.55,-5.68 -5.68,-5.68 -3.13,0 -5.68,2.55 -5.68,5.68 0,2.61 1.77,4.82 4.18,5.48 v 9.41 h -15.86 v -9.41 c 2.41,-0.66 4.18,-2.86 4.18,-5.48 0,-3.13 -2.55,-5.68 -5.68,-5.68 -3.13,0 -5.68,2.55 -5.68,5.68 0,2.61 1.77,4.82 4.18,5.47 v 9.41 h -3.74 c -3.51,0 -6.37,2.86 -6.37,6.37 v 3.74 h -9.41 c -0.66,-2.41 -2.86,-4.18 -5.47,-4.18 -3.13,0 -5.68,2.55 -5.68,5.68 0,3.13 2.55,5.68 5.68,5.68 2.61,0 4.82,-1.78 5.48,-4.18 h 9.41 v 10.34 c 0,0.83 0.67,1.49 1.49,1.49 0.82,0 1.49,-0.67 1.49,-1.49 v -17.07 c 0,-1.86 1.52,-3.38 3.38,-3.38 h 3.74 v 6.43 c 0,1.81 0.7,3.51 1.98,4.79 l 11.97,11.97 c 0.29,0.29 0.67,0.44 1.06,0.44 0.39,0 0.77,-0.15 1.06,-0.44 0.58,-0.58 0.58,-1.53 0,-2.11 l -11.97,-11.97 c -0.71,-0.71 -1.11,-1.66 -1.11,-2.67 v -6.43 h 34.72 v 5.77 c 0,0.74 -0.61,1.35 -1.35,1.35 H 695 c -2.39,0 -4.34,1.95 -4.34,4.34 v 16.01 c 0,0.83 0.67,1.49 1.49,1.49 0.82,0 1.49,-0.67 1.49,-1.49 v -16.01 c 0,-0.74 0.61,-1.35 1.35,-1.35 h 5.79 c 2.39,0 4.34,-1.95 4.34,-4.34 v -5.77 h 3.74 c 1.86,0 3.38,1.52 3.38,3.38 v 48.18 c 0,1.86 -1.52,3.38 -3.38,3.38 h -3.74 v -8.61 c 0,-0.83 -0.67,-1.49 -1.49,-1.49 -0.82,0 -1.49,0.67 -1.49,1.49 v 8.61 h -41.45 c -1.86,0 -3.38,-1.52 -3.38,-3.38 v -22.59 h 6.72 c 0.89,0 1.72,0.35 2.35,0.97 l 10.59,10.59 c 0.63,0.63 0.97,1.46 0.97,2.35 v 5.58 c 0,0.83 0.67,1.49 1.49,1.49 0.82,0 1.49,-0.67 1.49,-1.49 v -5.58 c 0,-1.69 -0.66,-3.27 -1.85,-4.46 l -10.59,-10.59 c -1.19,-1.19 -2.78,-1.85 -4.46,-1.85 H 644.9 c -0.66,-2.41 -2.86,-4.18 -5.48,-4.18 -3.13,0 -5.68,2.55 -5.68,5.68 0,3.13 2.55,5.68 5.68,5.68 2.61,0 4.82,-1.77 5.48,-4.18 h 9.41 v 15.86 h -9.41 c -0.66,-2.41 -2.86,-4.18 -5.48,-4.18 -3.13,0 -5.68,2.55 -5.68,5.68 0,3.13 2.55,5.68 5.68,5.68 2.61,0 4.82,-1.77 5.47,-4.18 h 9.41 v 3.74 c 0,3.51 2.86,6.37 6.37,6.37 h 3.74 v 9.41 c -2.41,0.66 -4.18,2.86 -4.18,5.47 0,3.13 2.55,5.68 5.68,5.68 3.13,0 5.68,-2.55 5.68,-5.68 0,-2.61 -1.77,-4.82 -4.18,-5.48 v -9.41 h 15.86 v 9.41 c -2.41,0.66 -4.18,2.86 -4.18,5.48 0,3.13 2.55,5.68 5.68,5.68 3.13,0 5.68,-2.55 5.68,-5.68 0,-2.61 -1.77,-4.82 -4.18,-5.48 v -9.41 h 22.59 c 3.51,0 6.37,-2.86 6.37,-6.37 v -3.74 h 9.41 c 0.66,2.41 2.86,4.18 5.47,4.18 3.13,0 5.68,-2.55 5.68,-5.68 0,-3.13 -2.55,-5.68 -5.68,-5.68 -2.61,0 -4.82,1.78 -5.48,4.18 h -9.41 v -15.86 0 z m 14.88,-4.18 c 1.48,0 2.69,1.21 2.69,2.69 0,1.48 -1.21,2.69 -2.69,2.69 -1.48,0 -2.69,-1.21 -2.69,-2.69 0,-1.48 1.21,-2.69 2.69,-2.69 z m 0,-18.85 c 1.48,0 2.69,1.21 2.69,2.69 0,1.48 -1.21,2.69 -2.69,2.69 -1.48,0 -2.69,-1.21 -2.69,-2.69 0,-1.48 1.21,-2.69 2.69,-2.69 z m -29.17,-23.8 c 0,-1.48 1.21,-2.69 2.69,-2.69 1.48,0 2.69,1.21 2.69,2.69 0,1.48 -1.21,2.69 -2.69,2.69 -1.48,0 -2.69,-1.21 -2.69,-2.69 z m -18.85,0 c 0,-1.48 1.21,-2.69 2.69,-2.69 1.48,0 2.69,1.21 2.69,2.69 0,1.48 -1.21,2.69 -2.69,2.69 -1.48,0 -2.69,-1.21 -2.69,-2.69 z m -18.85,0 c 0,-1.48 1.21,-2.69 2.69,-2.69 1.48,0 2.69,1.21 2.69,2.69 0,1.48 -1.21,2.69 -2.69,2.69 -1.48,0 -2.69,-1.21 -2.69,-2.69 z m -23.8,29.17 c -1.48,0 -2.69,-1.21 -2.69,-2.69 0,-1.48 1.21,-2.69 2.69,-2.69 1.48,0 2.69,1.21 2.69,2.69 0,1.48 -1.21,2.69 -2.69,2.69 z m 0,18.85 c -1.48,0 -2.69,-1.21 -2.69,-2.69 0,-1.48 1.21,-2.69 2.69,-2.69 1.48,0 2.69,1.21 2.69,2.69 0,1.48 -1.21,2.69 -2.69,2.69 z m 0,18.86 c -1.48,0 -2.69,-1.21 -2.69,-2.69 0,-1.48 1.21,-2.69 2.69,-2.69 1.48,0 2.69,1.21 2.69,2.69 0,1.48 -1.21,2.69 -2.69,2.69 z m 29.17,23.79 c 0,1.48 -1.21,2.69 -2.69,2.69 -1.48,0 -2.69,-1.21 -2.69,-2.69 0,-1.48 1.21,-2.69 2.69,-2.69 1.48,0 2.69,1.21 2.69,2.69 z m 18.85,0 c 0,1.48 -1.21,2.69 -2.69,2.69 -1.48,0 -2.69,-1.21 -2.69,-2.69 0,-1.48 1.21,-2.69 2.69,-2.69 1.48,0 2.69,1.21 2.69,2.69 z m 42.65,-29.17 c 1.48,0 2.69,1.21 2.69,2.69 0,1.48 -1.21,2.69 -2.69,2.69 -1.48,0 -2.69,-1.21 -2.69,-2.69 0,-1.48 1.21,-2.69 2.69,-2.69 z"
         id="path9592"
         style="stroke-width:0px" />
    </g>
  </g>
</svg>
