<?xml version="1.0" encoding="UTF-8" standalone="no"?>
<svg
   viewBox="0 0 1920 1080"
   version="1.1"
   id="svg4"
   sodipodi:docname="best-ai-avatar-video-generators-featured-image.svg"
   inkscape:export-filename="wickedbackground.svg"
   inkscape:export-xdpi="96"
   inkscape:export-ydpi="96"
   inkscape:version="1.3.2 (091e20ef0f, 2023-11-25)"
   xmlns:inkscape="http://www.inkscape.org/namespaces/inkscape"
   xmlns:sodipodi="http://sodipodi.sourceforge.net/DTD/sodipodi-0.dtd"
   xmlns="http://www.w3.org/2000/svg"
   xmlns:svg="http://www.w3.org/2000/svg">
  <defs
     id="defs4">
    <clipPath
       id="clippath-14">
      <rect
         class="cls-2"
         x="5.52"
         y="15.35"
         width="1000.11"
         height="629.96002"
         rx="0.68000001"
         ry="0.68000001"
         id="rect15" />
    </clipPath>
    <clipPath
       id="clippath-13">
      <rect
         class="cls-2"
         x="5.52"
         y="15.35"
         width="1000.11"
         height="629.96002"
         rx="0.68000001"
         ry="0.68000001"
         id="rect14" />
    </clipPath>
    <clipPath
       id="clippath-12">
      <rect
         class="cls-2"
         x="5.52"
         y="15.35"
         width="1000.11"
         height="629.96002"
         rx="0.68000001"
         ry="0.68000001"
         id="rect13" />
    </clipPath>
    <clipPath
       id="clippath-11">
      <rect
         class="cls-2"
         x="5.52"
         y="15.35"
         width="1000.11"
         height="629.96002"
         rx="0.68000001"
         ry="0.68000001"
         id="rect12" />
    </clipPath>
    <clipPath
       id="clippath-10">
      <rect
         class="cls-2"
         x="5.52"
         y="15.35"
         width="1000.11"
         height="629.96002"
         rx="0.68000001"
         ry="0.68000001"
         id="rect11" />
    </clipPath>
    <clipPath
       id="clippath-9">
      <rect
         class="cls-2"
         x="5.52"
         y="15.35"
         width="1000.11"
         height="629.96002"
         rx="0.68000001"
         ry="0.68000001"
         id="rect10" />
    </clipPath>
    <clipPath
       id="clippath-8">
      <rect
         class="cls-2"
         x="5.52"
         y="15.35"
         width="1000.11"
         height="629.96002"
         rx="0.68000001"
         ry="0.68000001"
         id="rect9" />
    </clipPath>
    <clipPath
       id="clippath-7">
      <rect
         class="cls-2"
         x="5.52"
         y="15.35"
         width="1000.11"
         height="629.96002"
         rx="0.68000001"
         ry="0.68000001"
         id="rect8" />
    </clipPath>
    <clipPath
       id="clippath-6">
      <rect
         class="cls-2"
         x="5.52"
         y="15.35"
         width="1000.11"
         height="629.96002"
         rx="0.68000001"
         ry="0.68000001"
         id="rect7" />
    </clipPath>
    <clipPath
       id="clippath-5">
      <rect
         class="cls-2"
         x="5.52"
         y="15.35"
         width="1000.11"
         height="629.96002"
         rx="0.68000001"
         ry="0.68000001"
         id="rect6" />
    </clipPath>
    <clipPath
       id="clippath-4">
      <rect
         class="cls-2"
         x="5.52"
         y="15.35"
         width="1000.11"
         height="629.96002"
         rx="0.68000001"
         ry="0.68000001"
         id="rect5" />
    </clipPath>
    <clipPath
       id="clippath-3">
      <rect
         class="cls-2"
         x="5.52"
         y="15.35"
         width="1000.11"
         height="629.96002"
         rx="0.68000001"
         ry="0.68000001"
         id="rect4" />
    </clipPath>
    <clipPath
       id="clippath-2">
      <rect
         class="cls-2"
         x="5.52"
         y="15.35"
         width="1000.11"
         height="629.96002"
         rx="0.68000001"
         ry="0.68000001"
         id="rect3" />
    </clipPath>
    <clipPath
       id="clippath-1">
      <rect
         class="cls-2"
         x="5.52"
         y="15.35"
         width="1000.11"
         height="629.96002"
         rx="0.68000001"
         ry="0.68000001"
         id="rect2" />
    </clipPath>
  </defs>
  <sodipodi:namedview
     id="namedview4"
     pagecolor="#ffffff"
     bordercolor="#000000"
     borderopacity="0.25"
     inkscape:showpageshadow="2"
     inkscape:pageopacity="0.0"
     inkscape:pagecheckerboard="0"
     inkscape:deskcolor="#d1d1d1"
     inkscape:zoom="0.29791667"
     inkscape:cx="960"
     inkscape:cy="542.0979"
     inkscape:window-width="1578"
     inkscape:window-height="996"
     inkscape:window-x="0"
     inkscape:window-y="0"
     inkscape:window-maximized="1"
     inkscape:current-layer="g1" />
  <g
     transform="          rotate(0 960 540)           translate(-0 -0)          scale(1)        "
     id="g4">
    <rect
       width="1920"
       height="1080"
       fill="rgb(184, 171, 255)"
       id="rect1"
       style="fill:#61d447;fill-opacity:1" />
    <g
       id="g1"
       transform="matrix(1.9571109,0,0,1.9571109,-847.34536,-469.00453)">
      <g
         class="cls-6"
         clip-path="url(#clippath-1)"
         id="g15"
         transform="translate(414.54,146.31807)" />
      <g
         class="cls-9"
         clip-path="url(#clippath-2)"
         id="g16"
         transform="translate(414.54,146.31807)"
         style="stroke:#000000;stroke-opacity:1">
        <path
           id="path2753"
           class="cls-4"
           d="m 206.22,214.59 c 16.29,-15.8 38.92,-24.83 62.44,-24.83 6.44,0 13.04,0.73 19.65,2.17 11.57,-8.79 26.97,-13.24 44.16,-12.68 -0.13,-0.4 -0.27,-0.77 -0.41,-1.15 -3.27,-8.47 0.7,-12.01 2.56,-13.14 9.8,-5.93 33.32,11.6 47.93,27.55 2.46,-6.02 3.76,-11.9 3.87,-17.55 0.1,-5.42 1.87,-8.97 5.23,-10.54 3.42,-1.59 7.32,-0.61 11.59,2.93 14.67,12.17 36.51,55.82 30.03,87.07 4.55,16.44 2.88,32.45 -4.72,45.22 -0.92,1.55 -1.97,3.08 -3.21,4.65 8.74,18.79 15.27,39.46 19.41,61.45 0.16,0.82 1.42,8.36 -4.58,19.86 -0.02,0.04 -2.01,4.32 4.87,12.73 11.41,14.06 30,38.76 29.07,49.24 -0.01,3.22 -1.95,10.72 -18.37,15.57 -0.35,0.1 -0.73,0.17 -1.09,0.2 -0.02,0 -1.69,0.25 -2.64,1.66 -1.26,1.86 -1.2,5.4 0.17,10 0.75,1.76 2.93,7.83 0.51,13.88 -0.57,1.46 -1.55,3.19 -3.16,4.83 2.09,2.57 3.98,5.95 4.09,9.89 0.09,3.25 -1.02,8.04 -7,12.52 -0.04,0.03 -3.46,2.96 -0.62,12.81 0.32,1.02 7.65,24.91 -9.66,37.95 -2.42,2.14 -17.39,13.88 -46.97,6.43 l -23.94,-5.11 c -0.23,0.18 -1.37,1.31 -1.56,5.55 -0.02,0.33 -0.07,0.67 -0.14,1 -0.06,0.24 -5.52,24.08 0.11,70.59 0.35,2.9 -1.69,5.54 -4.57,5.91 -0.22,0.02 -0.43,0.03 -0.65,0.03 -2.61,0 -4.87,-1.97 -5.2,-4.66 -5.51,-45.46 -0.85,-69.97 -0.01,-73.87 0.35,-5.9 2.2,-10.23 5.49,-12.87 3.82,-3.05 7.88,-2.49 8.84,-2.3 l 24.03,5.4 c 25.86,6.51 37.18,-3.65 37.59,-4.04 0.17,-0.16 0.35,-0.33 0.55,-0.47 11.45,-8.46 6.13,-26.16 6.04,-26.45 -5.2,-17.97 3.91,-24.16 4.56,-24.53 1.21,-0.9 2.64,-2.26 2.61,-3.59 -0.05,-2.16 -3.04,-5.17 -5.02,-6.52 -1.65,-1.1 -2.55,-3.04 -2.33,-5.03 0.23,-1.98 1.53,-3.67 3.38,-4.37 3,-1.12 3.58,-2.57 3.78,-3.05 0.86,-2.08 -0.03,-4.92 -0.42,-5.79 -0.11,-0.23 -0.2,-0.48 -0.28,-0.73 -2.48,-8.12 -2.11,-14.64 1.1,-19.4 3.19,-4.7 7.98,-5.88 9.84,-6.17 8.18,-2.48 10.09,-5.14 10.42,-5.75 0.01,-0.22 0.04,-0.44 0.1,-0.73 0.08,-4.87 -13.78,-25.31 -26.75,-41.31 -11.1,-13.56 -7.08,-22.65 -5.86,-24.77 3.99,-7.74 3.35,-12.53 3.35,-12.53 -4.2,-22.33 -10.94,-43.17 -20.01,-61.95 -0.93,-1.93 -0.63,-4.24 0.78,-5.85 1.84,-2.1 3.23,-3.95 4.34,-5.81 6.36,-10.68 7.49,-23.84 3.27,-38.07 -0.27,-0.9 -0.29,-1.85 -0.08,-2.76 6.89,-28.95 -16.3,-69.44 -25.85,-77.67 -0.27,9.05 -2.93,18.43 -7.92,27.86 -0.68,1.29 -1.87,2.24 -3.25,2.62 -1.4,0.38 -2.9,0.16 -4.13,-0.61 l -2.62,-1.57 c -0.5,-0.3 -0.96,-0.68 -1.34,-1.13 -13.49,-15.93 -28.89,-25.76 -35.58,-28.05 0.99,2.69 1.76,5.64 2.43,9.25 0.31,1.65 -0.17,3.34 -1.3,4.57 -1.13,1.24 -2.75,1.86 -4.41,1.67 -18.42,-1.97 -34.69,2.08 -45.81,11.44 -1.28,1.08 -2.98,1.48 -4.59,1.08 -6.64,-1.63 -13.27,-2.45 -19.69,-2.45 -21.45,0 -42.02,8.43 -56.44,23.13 -0.92,0.94 -2.15,1.49 -3.46,1.56 -46.45,2.4 -82.84,41.87 -82.84,89.85 0,7.38 0.98,14.99 2.9,22.63 0.21,0.82 0.21,1.68 0.02,2.51 -1.93,8.37 -2.91,16.92 -2.91,25.41 0,35.81 17.26,69.69 46.17,90.64 0.4,0.29 0.77,0.64 1.08,1.03 55.01,71.17 42.42,184.67 41.86,189.47 -0.34,2.91 -2.98,4.96 -5.83,4.64 -2.87,-0.34 -4.93,-2.99 -4.59,-5.89 0.13,-1.13 12.6,-113.29 -39.25,-181.11 -31.27,-22.96 -49.92,-59.83 -49.92,-98.79 0,-8.88 0.98,-17.81 2.91,-26.57 -1.93,-8.07 -2.91,-16.13 -2.91,-23.98 -0.01,-52.93 39.71,-96.6 90.78,-100.3 z"
           style="stroke-width:0px;stroke:#000000;stroke-opacity:1" />
      </g>
      <g
         class="cls-8"
         clip-path="url(#clippath-3)"
         id="g17"
         transform="translate(414.54,146.31807)">
        <path
           id="path2755"
           class="cls-5"
           d="m 898.65,438.8 c -0.07,0.31 -0.1,0.57 -0.11,0.84 -0.28,0.59 -2.13,3.57 -11.25,6.3 -1.84,0.27 -6.76,1.43 -10.01,6.19 -3.27,4.81 -3.64,11.42 -1.08,19.67 0.07,0.24 0.16,0.47 0.26,0.69 0.44,0.95 1.42,4.06 0.45,6.38 -0.61,1.46 -1.99,2.59 -4.22,3.42 -1.77,0.66 -3.02,2.26 -3.24,4.14 -0.21,1.87 0.65,3.72 2.23,4.76 2.15,1.45 5.39,4.72 5.46,7.12 0.03,1.26 -0.95,2.64 -2.92,4.11 -0.68,0.39 -9.92,6.61 -4.6,24.87 0.09,0.3 5.77,18.93 -6.48,27.88 -0.19,0.13 -0.36,0.28 -0.52,0.44 -0.46,0.42 -12.43,11.11 -39.75,4.3 l -25.12,-5.59 c -0.96,-0.18 -5.02,-0.74 -8.84,2.29 -3.34,2.65 -5.22,7.03 -5.58,13.02 -0.85,3.88 -5.77,29.19 0.01,76.33 0.24,1.98 6.58,30.16 0.18,41.36 -1.34,2.35 -2.16,4.02 -2.61,5.19 -18.24,-17.06 -143.24,-46.01 -143.17,-46.57 0.6,-5.06 14.06,-124.91 -45.54,-198.17 -0.67,-0.74 -43.4,-46.97 -38.78,-113.22 0.03,-0.91 3.32,-73.91 65.27,-110.25 1.13,-0.78 79.4,-54.65 167.11,-3.75 0.72,0.4 63.1,36.17 82.25,136.8 -0.01,0 0.71,5.08 -3.54,13.27 -1.23,2.07 -5.4,11.26 6.05,25.11 13.75,16.78 28.32,38.1 28.09,43.07 z"
           style="fill:#ffffff;stroke-width:0px" />
      </g>
      <g
         class="cls-7"
         clip-path="url(#clippath-4)"
         id="g18"
         transform="translate(414.54,146.31807)">
        <path
           id="path2757"
           class="cls-4"
           d="m 878.32,389.37 c -7.44,-9 -5.17,-13.62 -5.15,-13.66 6.2,-11.78 4.91,-19.42 4.74,-20.26 -20.08,-105.51 -84.43,-142.13 -87.16,-143.64 -93.32,-54.14 -176.68,3.48 -177.5,4.07 -66.46,38.95 -69.76,114.94 -69.86,118.16 -4.92,70.58 39.37,118.34 41.26,120.35 56.7,69.71 43.26,189.16 43.12,190.36 -0.33,2.75 4.54,55.18 7.29,55.5 0.18,0.02 -0.51,0.56 6.89,1.03 104.71,6.59 140.46,3.05 141.16,-4.74 -0.1,6.97 6.31,1.99 6.47,1.97 2.77,-0.35 4.05,-51.02 3.71,-53.77 -5.91,-48.24 -0.17,-72.97 -0.1,-73.22 0.07,-0.31 0.11,-0.63 0.13,-0.95 0.2,-4.33 1.38,-5.71 1.73,-6.03 0.4,-0.35 0.78,-0.35 0.92,-0.35 l 24.58,5.5 c 30.84,7.68 46.32,-4.46 48.73,-6.58 17.83,-13.28 10.26,-37.71 9.93,-38.76 -3.09,-10.57 0.77,-13.73 0.81,-13.76 6.1,-4.53 7.24,-9.33 7.13,-12.59 -0.11,-4.12 -2.2,-7.64 -4.44,-10.26 1.82,-1.74 2.89,-3.58 3.52,-5.13 2.48,-6.15 0.21,-12.33 -0.54,-14.05 -1.45,-4.83 -1.52,-8.62 -0.18,-10.68 1.14,-1.75 3.19,-2 3.28,-2.01 0.28,-0.03 0.68,-0.09 0.95,-0.18 16.79,-4.92 18.76,-12.59 18.84,-15.55 1.19,-10.54 -18.32,-36.19 -30.26,-50.77 z m -95.2,306.9 c 0,-0.57 -0.2,-1.17 -0.57,-1.78 0.45,-0.24 0.8,-0.45 0.78,-0.32 -0.12,0.8 -0.19,1.49 -0.21,2.1 z M 898.54,439.64 c -0.28,0.59 -2.13,3.57 -11.25,6.3 -1.84,0.27 -6.76,1.43 -10.01,6.19 -3.27,4.81 -3.64,11.42 -1.08,19.67 0.07,0.24 0.16,0.47 0.26,0.69 0.44,0.95 1.42,4.06 0.45,6.38 -0.61,1.46 -1.99,2.59 -4.22,3.42 -1.77,0.66 -3.02,2.26 -3.24,4.14 -0.21,1.87 0.65,3.72 2.23,4.76 2.15,1.45 5.39,4.72 5.46,7.12 0.03,1.26 -0.95,2.64 -2.92,4.11 -0.68,0.39 -9.92,6.61 -4.6,24.87 0.09,0.3 5.77,18.93 -6.48,27.88 -0.19,0.13 -0.36,0.28 -0.52,0.44 -0.46,0.42 -12.43,11.11 -39.75,4.3 l -25.12,-5.59 c -0.96,-0.18 -5.02,-0.74 -8.84,2.29 -3.34,2.65 -5.22,7.03 -5.58,13.02 -0.85,3.88 -5.77,29.19 0.01,76.33 0.24,1.98 6.58,30.16 0.18,41.36 -1.34,2.35 -2.16,4.02 -2.61,5.19 -18.24,-17.06 -143.24,-46.01 -143.17,-46.57 0.6,-5.06 14.06,-124.91 -45.54,-198.17 -0.67,-0.74 -43.4,-46.97 -38.78,-113.22 0.03,-0.91 3.32,-73.91 65.27,-110.25 1.13,-0.78 79.4,-54.65 167.11,-3.75 0.72,0.4 63.1,36.17 82.25,136.8 -0.01,0 0.71,5.08 -3.54,13.27 -1.23,2.07 -5.4,11.26 6.05,25.11 13.75,16.78 28.32,38.1 28.09,43.07 -0.07,0.31 -0.1,0.57 -0.11,0.84 z"
           style="stroke-width:0px" />
      </g>
      <g
         class="cls-13"
         clip-path="url(#clippath-5)"
         id="g19"
         transform="translate(414.54,146.31807)">
        <rect
           id="rect2759"
           class="cls-4"
           x="176.72"
           y="280.01999"
           width="16.17"
           height="16.17"
           style="stroke-width:0px" />
      </g>
      <g
         class="cls-12"
         clip-path="url(#clippath-6)"
         id="g20"
         transform="translate(414.54,146.31807)">
        <rect
           id="rect2761"
           class="cls-4"
           x="726.67999"
           y="237.45"
           width="16.17"
           height="16.17"
           style="stroke-width:0px" />
      </g>
      <g
         class="cls-10"
         clip-path="url(#clippath-7)"
         id="g21"
         transform="translate(414.54,146.31807)">
        <rect
           id="rect2763"
           class="cls-4"
           x="286.70001"
           y="322.85001"
           width="16.17"
           height="16.17"
           style="stroke-width:0px" />
      </g>
      <g
         class="cls-11"
         clip-path="url(#clippath-8)"
         id="g22"
         transform="translate(414.54,146.31807)">
        <rect
           id="rect2765"
           class="cls-4"
           x="726.57001"
           y="321.85001"
           width="16.17"
           height="16.17"
           style="stroke-width:0px" />
      </g>
      <g
         class="cls-14"
         clip-path="url(#clippath-9)"
         id="g23"
         transform="translate(414.54,146.31807)">
        <rect
           id="rect2767"
           class="cls-4"
           x="702.26001"
           y="280.01999"
           width="16.17"
           height="16.17"
           style="stroke-width:0px" />
      </g>
      <g
         class="cls-18"
         clip-path="url(#clippath-10)"
         id="g24"
         transform="translate(414.54,146.31807)">
        <rect
           id="rect2769"
           class="cls-4"
           x="257.76999"
           y="237.53999"
           width="16.17"
           height="16.17"
           style="stroke-width:0px" />
      </g>
      <g
         class="cls-19"
         clip-path="url(#clippath-11)"
         id="g25"
         transform="translate(414.54,146.31807)">
        <line
           id="line2771"
           class="cls-3"
           x1="265.85001"
           y1="245.62"
           x2="735.65002"
           y2="245.62"
           style="fill:none;stroke:#000000;stroke-width:2px;stroke-miterlimit:10" />
      </g>
      <g
         class="cls-17"
         clip-path="url(#clippath-12)"
         id="g26"
         transform="translate(414.54,146.31807)">
        <line
           id="line2773"
           class="cls-3"
           x1="187.11"
           y1="288.10999"
           x2="708.15997"
           y2="287.92001"
           style="fill:none;stroke:#000000;stroke-width:2px;stroke-miterlimit:10" />
      </g>
      <g
         class="cls-16"
         clip-path="url(#clippath-13)"
         id="g27"
         transform="translate(414.54,146.31807)">
        <line
           id="line2775"
           class="cls-3"
           x1="294.79001"
           y1="330.92999"
           x2="732.87"
           y2="330.92999"
           style="fill:none;stroke:#000000;stroke-width:2px;stroke-miterlimit:10" />
      </g>
      <g
         class="cls-15"
         clip-path="url(#clippath-14)"
         id="g28"
         transform="translate(414.54,146.31807)">
        <g
           id="g2787">
          <path
             id="path2777"
             class="cls-4"
             d="m 777.8,289.2 h 8.04 c 0.56,2.06 2.45,3.57 4.68,3.57 2.68,0 4.85,-2.18 4.85,-4.85 0,-2.67 -2.18,-4.85 -4.85,-4.85 -2.23,0 -4.12,1.52 -4.68,3.57 h -8.04 v -13.56 h 8.04 c 0.56,2.06 2.45,3.57 4.68,3.57 2.68,0 4.85,-2.18 4.85,-4.85 0,-2.67 -2.18,-4.85 -4.85,-4.85 -2.23,0 -4.12,1.52 -4.68,3.57 h -8.04 v -3.2 c 0,-3 -2.44,-5.44 -5.44,-5.44 h -3.2 v -8.04 c 2.06,-0.56 3.57,-2.45 3.57,-4.68 0,-2.68 -2.18,-4.85 -4.85,-4.85 -2.67,0 -4.85,2.18 -4.85,4.85 0,2.23 1.52,4.12 3.57,4.68 v 8.04 h -13.56 v -8.04 c 2.06,-0.56 3.57,-2.45 3.57,-4.68 0,-2.68 -2.18,-4.85 -4.85,-4.85 -2.67,0 -4.85,2.18 -4.85,4.85 0,2.23 1.52,4.12 3.57,4.68 v 8.04 h -13.56 v -8.04 c 2.06,-0.56 3.57,-2.45 3.57,-4.68 0,-2.68 -2.18,-4.85 -4.85,-4.85 -2.67,0 -4.85,2.18 -4.85,4.85 0,2.23 1.52,4.12 3.57,4.68 v 8.04 h -3.2 c -3,0 -5.44,2.44 -5.44,5.44 v 3.2 h -8.04 c -0.56,-2.06 -2.45,-3.57 -4.68,-3.57 -2.68,0 -4.85,2.18 -4.85,4.85 0,2.67 2.18,4.85 4.85,4.85 2.23,0 4.12,-1.52 4.68,-3.57 h 8.04 v 8.84 c 0,0.71 0.57,1.28 1.28,1.28 0.71,0 1.28,-0.57 1.28,-1.28 v -14.59 c 0,-1.59 1.3,-2.89 2.89,-2.89 h 3.2 v 5.49 c 0,1.55 0.6,3 1.7,4.09 l 10.23,10.23 c 0.25,0.25 0.58,0.37 0.9,0.37 0.32,0 0.65,-0.12 0.9,-0.37 0.5,-0.5 0.5,-1.31 0,-1.81 l -10.23,-10.23 c -0.61,-0.61 -0.95,-1.42 -0.95,-2.29 v -5.49 h 29.68 v 4.93 c 0,0.64 -0.52,1.15 -1.15,1.15 h -4.95 c -2.04,0 -3.71,1.66 -3.71,3.71 v 13.68 c 0,0.71 0.57,1.28 1.28,1.28 0.71,0 1.28,-0.57 1.28,-1.28 v -13.69 c 0,-0.64 0.52,-1.15 1.15,-1.15 h 4.95 c 2.04,0 3.71,-1.66 3.71,-3.71 v -4.93 h 3.2 c 1.59,0 2.89,1.3 2.89,2.89 v 41.18 c 0,1.59 -1.3,2.89 -2.89,2.89 h -3.2 v -7.36 c 0,-0.71 -0.57,-1.28 -1.28,-1.28 -0.71,0 -1.28,0.57 -1.28,1.28 v 7.36 h -35.43 c -1.59,0 -2.89,-1.3 -2.89,-2.89 v -19.31 h 5.74 c 0.76,0 1.47,0.3 2.01,0.83 l 9.06,9.05 c 0.54,0.54 0.83,1.25 0.83,2.01 v 4.77 c 0,0.71 0.57,1.28 1.28,1.28 0.71,0 1.28,-0.57 1.28,-1.28 v -4.77 c 0,-1.44 -0.56,-2.8 -1.58,-3.82 l -9.05,-9.05 c -1.02,-1.02 -2.37,-1.58 -3.82,-1.58 h -16.34 c -0.56,-2.06 -2.45,-3.57 -4.68,-3.57 -2.68,0 -4.85,2.18 -4.85,4.85 0,2.67 2.18,4.85 4.85,4.85 2.23,0 4.12,-1.52 4.68,-3.57 h 8.04 v 13.56 h -8.04 c -0.56,-2.06 -2.45,-3.57 -4.68,-3.57 -2.68,0 -4.85,2.18 -4.85,4.85 0,2.67 2.18,4.85 4.85,4.85 2.23,0 4.12,-1.52 4.68,-3.57 h 8.04 v 3.2 c 0,3 2.44,5.44 5.44,5.44 h 3.2 v 8.04 c -2.06,0.56 -3.57,2.45 -3.57,4.68 0,2.68 2.18,4.85 4.85,4.85 2.67,0 4.85,-2.18 4.85,-4.85 0,-2.23 -1.52,-4.12 -3.57,-4.68 v -8.04 h 13.56 v 8.04 c -2.06,0.56 -3.57,2.45 -3.57,4.68 0,2.68 2.18,4.85 4.85,4.85 2.67,0 4.85,-2.18 4.85,-4.85 0,-2.23 -1.52,-4.12 -3.57,-4.68 v -8.04 h 19.31 c 3,0 5.44,-2.44 5.44,-5.44 v -3.2 h 8.04 c 0.56,2.06 2.45,3.57 4.68,3.57 2.68,0 4.85,-2.18 4.85,-4.85 0,-2.67 -2.18,-4.85 -4.85,-4.85 -2.23,0 -4.12,1.52 -4.68,3.57 h -8.04 v -13.56 0 z m 12.72,-3.58 c 1.27,0 2.3,1.03 2.3,2.3 0,1.27 -1.03,2.3 -2.3,2.3 -1.27,0 -2.3,-1.03 -2.3,-2.3 0,-1.27 1.03,-2.3 2.3,-2.3 z m 0,-16.11 c 1.27,0 2.3,1.03 2.3,2.3 0,1.27 -1.03,2.3 -2.3,2.3 -1.27,0 -2.3,-1.03 -2.3,-2.3 0,-1.27 1.03,-2.3 2.3,-2.3 z m -24.94,-20.35 c 0,-1.27 1.03,-2.3 2.3,-2.3 1.27,0 2.3,1.03 2.3,2.3 0,1.27 -1.03,2.3 -2.3,2.3 -1.27,0 -2.3,-1.03 -2.3,-2.3 z m -16.11,0 c 0,-1.27 1.03,-2.3 2.3,-2.3 1.27,0 2.3,1.03 2.3,2.3 0,1.27 -1.03,2.3 -2.3,2.3 -1.27,0 -2.3,-1.03 -2.3,-2.3 z m -16.12,0 c 0,-1.27 1.03,-2.3 2.3,-2.3 1.27,0 2.3,1.03 2.3,2.3 0,1.27 -1.03,2.3 -2.3,2.3 -1.27,0 -2.3,-1.03 -2.3,-2.3 z m -20.34,24.94 c -1.27,0 -2.3,-1.03 -2.3,-2.3 0,-1.27 1.03,-2.3 2.3,-2.3 1.27,0 2.3,1.03 2.3,2.3 0,1.27 -1.03,2.3 -2.3,2.3 z m 0,16.12 c -1.27,0 -2.3,-1.03 -2.3,-2.3 0,-1.27 1.03,-2.3 2.3,-2.3 1.27,0 2.3,1.03 2.3,2.3 0,1.27 -1.03,2.3 -2.3,2.3 z m 0,16.11 c -1.27,0 -2.3,-1.03 -2.3,-2.3 0,-1.27 1.03,-2.3 2.3,-2.3 1.27,0 2.3,1.03 2.3,2.3 0,1.27 -1.03,2.3 -2.3,2.3 z m 24.93,20.34 c 0,1.27 -1.03,2.3 -2.3,2.3 -1.27,0 -2.3,-1.03 -2.3,-2.3 0,-1.27 1.03,-2.3 2.3,-2.3 1.27,0 2.3,1.03 2.3,2.3 z m 16.12,0 c 0,1.27 -1.03,2.3 -2.3,2.3 -1.27,0 -2.3,-1.03 -2.3,-2.3 0,-1.27 1.03,-2.3 2.3,-2.3 1.27,0 2.3,1.03 2.3,2.3 z m 36.46,-24.93 c 1.27,0 2.3,1.03 2.3,2.3 0,1.27 -1.03,2.3 -2.3,2.3 -1.27,0 -2.3,-1.03 -2.3,-2.3 0,-1.27 1.03,-2.3 2.3,-2.3 z"
             style="stroke-width:0px" />
          <path
             id="path2779"
             class="cls-4"
             d="m 769.16,321.99 v -3.34 c 0,-0.71 -0.57,-1.28 -1.28,-1.28 -0.71,0 -1.28,0.57 -1.28,1.28 v 3.34 c -2.06,0.56 -3.57,2.45 -3.57,4.68 0,2.68 2.18,4.85 4.85,4.85 2.67,0 4.85,-2.18 4.85,-4.85 0,-2.23 -1.52,-4.12 -3.57,-4.68 z m -1.28,6.98 c -1.27,0 -2.3,-1.03 -2.3,-2.3 0,-1.27 1.03,-2.3 2.3,-2.3 1.27,0 2.3,1.03 2.3,2.3 0,1.27 -1.03,2.3 -2.3,2.3 z"
             style="stroke-width:0px" />
          <g
             id="g2785">
            <circle
               id="circle2781"
               class="cls-4"
               cx="764.44"
               cy="287.92001"
               r="1.28"
               style="stroke-width:0px" />
            <circle
               id="circle2783"
               class="cls-4"
               cx="769.12"
               cy="287.92001"
               r="1.28"
               style="stroke-width:0px" />
          </g>
        </g>
      </g>
    </g>
  </g>
</svg>
