<?xml version="1.0" encoding="UTF-8"?>
<svg id="Layer_1" data-name="Layer 1" xmlns="http://www.w3.org/2000/svg" xmlns:xlink="http://www.w3.org/1999/xlink" viewBox="0 0 1010.93 704.73">
  <defs>
    <style>
      .cls-1 {
        clip-path: url(#clippath);
      }

      .cls-2, .cls-3 {
        fill: none;
      }

      .cls-2, .cls-4, .cls-5 {
        stroke-width: 0px;
      }

      .cls-6 {
        clip-path: url(#clippath-1);
      }

      .cls-7 {
        clip-path: url(#clippath-4);
      }

      .cls-8 {
        clip-path: url(#clippath-3);
      }

      .cls-9 {
        clip-path: url(#clippath-2);
      }

      .cls-10 {
        clip-path: url(#clippath-7);
      }

      .cls-11 {
        clip-path: url(#clippath-8);
      }

      .cls-12 {
        clip-path: url(#clippath-6);
      }

      .cls-13 {
        clip-path: url(#clippath-5);
      }

      .cls-14 {
        clip-path: url(#clippath-9);
      }

      .cls-15 {
        clip-path: url(#clippath-14);
      }

      .cls-16 {
        clip-path: url(#clippath-13);
      }

      .cls-17 {
        clip-path: url(#clippath-12);
      }

      .cls-18 {
        clip-path: url(#clippath-10);
      }

      .cls-19 {
        clip-path: url(#clippath-11);
      }

      .cls-20 {
        fill: #61d447;
        stroke: #231f20;
      }

      .cls-20, .cls-3 {
        stroke-miterlimit: 10;
      }

      .cls-3 {
        stroke: #000;
        stroke-width: 2px;
      }

      .cls-5 {
        fill: #fff;
      }
    </style>
    <clipPath id="clippath">
      <rect class="cls-2" x="5.46" y="15.29" width="1000" height="630"/>
    </clipPath>
    <clipPath id="clippath-1">
      <rect class="cls-2" x="5.52" y="15.35" width="1000.11" height="629.96" rx=".68" ry=".68"/>
    </clipPath>
    <clipPath id="clippath-2">
      <rect class="cls-2" x="5.52" y="15.35" width="1000.11" height="629.96" rx=".68" ry=".68"/>
    </clipPath>
    <clipPath id="clippath-3">
      <rect class="cls-2" x="5.52" y="15.35" width="1000.11" height="629.96" rx=".68" ry=".68"/>
    </clipPath>
    <clipPath id="clippath-4">
      <rect class="cls-2" x="5.52" y="15.35" width="1000.11" height="629.96" rx=".68" ry=".68"/>
    </clipPath>
    <clipPath id="clippath-5">
      <rect class="cls-2" x="5.52" y="15.35" width="1000.11" height="629.96" rx=".68" ry=".68"/>
    </clipPath>
    <clipPath id="clippath-6">
      <rect class="cls-2" x="5.52" y="15.35" width="1000.11" height="629.96" rx=".68" ry=".68"/>
    </clipPath>
    <clipPath id="clippath-7">
      <rect class="cls-2" x="5.52" y="15.35" width="1000.11" height="629.96" rx=".68" ry=".68"/>
    </clipPath>
    <clipPath id="clippath-8">
      <rect class="cls-2" x="5.52" y="15.35" width="1000.11" height="629.96" rx=".68" ry=".68"/>
    </clipPath>
    <clipPath id="clippath-9">
      <rect class="cls-2" x="5.52" y="15.35" width="1000.11" height="629.96" rx=".68" ry=".68"/>
    </clipPath>
    <clipPath id="clippath-10">
      <rect class="cls-2" x="5.52" y="15.35" width="1000.11" height="629.96" rx=".68" ry=".68"/>
    </clipPath>
    <clipPath id="clippath-11">
      <rect class="cls-2" x="5.52" y="15.35" width="1000.11" height="629.96" rx=".68" ry=".68"/>
    </clipPath>
    <clipPath id="clippath-12">
      <rect class="cls-2" x="5.52" y="15.35" width="1000.11" height="629.96" rx=".68" ry=".68"/>
    </clipPath>
    <clipPath id="clippath-13">
      <rect class="cls-2" x="5.52" y="15.35" width="1000.11" height="629.96" rx=".68" ry=".68"/>
    </clipPath>
    <clipPath id="clippath-14">
      <rect class="cls-2" x="5.52" y="15.35" width="1000.11" height="629.96" rx=".68" ry=".68"/>
    </clipPath>
  </defs>
  <g class="cls-1">
    <g id="g2789">
      <g class="cls-6">
        <rect id="rect2751" class="cls-20" x=".5" y=".5" width="1009.93" height="657.03"/>
      </g>
      <g class="cls-9">
        <path id="path2753" class="cls-4" d="M206.22,214.59c16.29-15.8,38.92-24.83,62.44-24.83,6.44,0,13.04.73,19.65,2.17,11.57-8.79,26.97-13.24,44.16-12.68-.13-.4-.27-.77-.41-1.15-3.27-8.47.7-12.01,2.56-13.14,9.8-5.93,33.32,11.6,47.93,27.55,2.46-6.02,3.76-11.9,3.87-17.55.1-5.42,1.87-8.97,5.23-10.54,3.42-1.59,7.32-.61,11.59,2.93,14.67,12.17,36.51,55.82,30.03,87.07,4.55,16.44,2.88,32.45-4.72,45.22-.92,1.55-1.97,3.08-3.21,4.65,8.74,18.79,15.27,39.46,19.41,61.45.16.82,1.42,8.36-4.58,19.86-.02.04-2.01,4.32,4.87,12.73,11.41,14.06,30,38.76,29.07,49.24-.01,3.22-1.95,10.72-18.37,15.57-.35.1-.73.17-1.09.2-.02,0-1.69.25-2.64,1.66-1.26,1.86-1.2,5.4.17,10,.75,1.76,2.93,7.83.51,13.88-.57,1.46-1.55,3.19-3.16,4.83,2.09,2.57,3.98,5.95,4.09,9.89.09,3.25-1.02,8.04-7,12.52-.04.03-3.46,2.96-.62,12.81.32,1.02,7.65,24.91-9.66,37.95-2.42,2.14-17.39,13.88-46.97,6.43l-23.94-5.11c-.23.18-1.37,1.31-1.56,5.55-.02.33-.07.67-.14,1-.06.24-5.52,24.08.11,70.59.35,2.9-1.69,5.54-4.57,5.91-.22.02-.43.03-.65.03-2.61,0-4.87-1.97-5.2-4.66-5.51-45.46-.85-69.97-.01-73.87.35-5.9,2.2-10.23,5.49-12.87,3.82-3.05,7.88-2.49,8.84-2.3l24.03,5.4c25.86,6.51,37.18-3.65,37.59-4.04.17-.16.35-.33.55-.47,11.45-8.46,6.13-26.16,6.04-26.45-5.2-17.97,3.91-24.16,4.56-24.53,1.21-.9,2.64-2.26,2.61-3.59-.05-2.16-3.04-5.17-5.02-6.52-1.65-1.1-2.55-3.04-2.33-5.03.23-1.98,1.53-3.67,3.38-4.37,3-1.12,3.58-2.57,3.78-3.05.86-2.08-.03-4.92-.42-5.79-.11-.23-.2-.48-.28-.73-2.48-8.12-2.11-14.64,1.1-19.4,3.19-4.7,7.98-5.88,9.84-6.17,8.18-2.48,10.09-5.14,10.42-5.75.01-.22.04-.44.1-.73.08-4.87-13.78-25.31-26.75-41.31-11.1-13.56-7.08-22.65-5.86-24.77,3.99-7.74,3.35-12.53,3.35-12.53-4.2-22.33-10.94-43.17-20.01-61.95-.93-1.93-.63-4.24.78-5.85,1.84-2.1,3.23-3.95,4.34-5.81,6.36-10.68,7.49-23.84,3.27-38.07-.27-.9-.29-1.85-.08-2.76,6.89-28.95-16.3-69.44-25.85-77.67-.27,9.05-2.93,18.43-7.92,27.86-.68,1.29-1.87,2.24-3.25,2.62-1.4.38-2.9.16-4.13-.61l-2.62-1.57c-.5-.3-.96-.68-1.34-1.13-13.49-15.93-28.89-25.76-35.58-28.05.99,2.69,1.76,5.64,2.43,9.25.31,1.65-.17,3.34-1.3,4.57-1.13,1.24-2.75,1.86-4.41,1.67-18.42-1.97-34.69,2.08-45.81,11.44-1.28,1.08-2.98,1.48-4.59,1.08-6.64-1.63-13.27-2.45-19.69-2.45-21.45,0-42.02,8.43-56.44,23.13-.92.94-2.15,1.49-3.46,1.56-46.45,2.4-82.84,41.87-82.84,89.85,0,7.38.98,14.99,2.9,22.63.21.82.21,1.68.02,2.51-1.93,8.37-2.91,16.92-2.91,25.41,0,35.81,17.26,69.69,46.17,90.64.4.29.77.64,1.08,1.03,55.01,71.17,42.42,184.67,41.86,189.47-.34,2.91-2.98,4.96-5.83,4.64-2.87-.34-4.93-2.99-4.59-5.89.13-1.13,12.6-113.29-39.25-181.11-31.27-22.96-49.92-59.83-49.92-98.79,0-8.88.98-17.81,2.91-26.57-1.93-8.07-2.91-16.13-2.91-23.98-.01-52.93,39.71-96.6,90.78-100.3l-.02.04Z"/>
      </g>
      <g class="cls-8">
        <path id="path2755" class="cls-5" d="M898.65,438.8c-.07.31-.1.57-.11.84-.28.59-2.13,3.57-11.25,6.3-1.84.27-6.76,1.43-10.01,6.19-3.27,4.81-3.64,11.42-1.08,19.67.07.24.16.47.26.69.44.95,1.42,4.06.45,6.38-.61,1.46-1.99,2.59-4.22,3.42-1.77.66-3.02,2.26-3.24,4.14-.21,1.87.65,3.72,2.23,4.76,2.15,1.45,5.39,4.72,5.46,7.12.03,1.26-.95,2.64-2.92,4.11-.68.39-9.92,6.61-4.6,24.87.09.3,5.77,18.93-6.48,27.88-.19.13-.36.28-.52.44-.46.42-12.43,11.11-39.75,4.3l-25.12-5.59c-.96-.18-5.02-.74-8.84,2.29-3.34,2.65-5.22,7.03-5.58,13.02-.85,3.88-5.77,29.19.01,76.33.24,1.98,6.58,30.16.18,41.36-1.34,2.35-2.16,4.02-2.61,5.19-18.24-17.06-143.24-46.01-143.17-46.57.6-5.06,14.06-124.91-45.54-198.17-.67-.74-43.4-46.97-38.78-113.22.03-.91,3.32-73.91,65.27-110.25,1.13-.78,79.4-54.65,167.11-3.75.72.4,63.1,36.17,82.25,136.8-.01,0,.71,5.08-3.54,13.27-1.23,2.07-5.4,11.26,6.05,25.11,13.75,16.78,28.32,38.1,28.09,43.07h0Z"/>
      </g>
      <g class="cls-7">
        <path id="path2757" class="cls-4" d="M878.32,389.37c-7.44-9-5.17-13.62-5.15-13.66,6.2-11.78,4.91-19.42,4.74-20.26-20.08-105.51-84.43-142.13-87.16-143.64-93.32-54.14-176.68,3.48-177.5,4.07-66.46,38.95-69.76,114.94-69.86,118.16-4.92,70.58,39.37,118.34,41.26,120.35,56.7,69.71,43.26,189.16,43.12,190.36-.33,2.75,4.54,55.18,7.29,55.5.18.02-.51.56,6.89,1.03,104.71,6.59,140.46,3.05,141.16-4.74-.1,6.97,6.31,1.99,6.47,1.97,2.77-.35,4.05-51.02,3.71-53.77-5.91-48.24-.17-72.97-.1-73.22.07-.31.11-.63.13-.95.2-4.33,1.38-5.71,1.73-6.03.4-.35.78-.35.92-.35l24.58,5.5c30.84,7.68,46.32-4.46,48.73-6.58,17.83-13.28,10.26-37.71,9.93-38.76-3.09-10.57.77-13.73.81-13.76,6.1-4.53,7.24-9.33,7.13-12.59-.11-4.12-2.2-7.64-4.44-10.26,1.82-1.74,2.89-3.58,3.52-5.13,2.48-6.15.21-12.33-.54-14.05-1.45-4.83-1.52-8.62-.18-10.68,1.14-1.75,3.19-2,3.28-2.01.28-.03.68-.09.95-.18,16.79-4.92,18.76-12.59,18.84-15.55,1.19-10.54-18.32-36.19-30.26-50.77h0ZM783.12,696.27c0-.57-.2-1.17-.57-1.78.45-.24.8-.45.78-.32-.12.8-.19,1.49-.21,2.1h0ZM898.54,439.64c-.28.59-2.13,3.57-11.25,6.3-1.84.27-6.76,1.43-10.01,6.19-3.27,4.81-3.64,11.42-1.08,19.67.07.24.16.47.26.69.44.95,1.42,4.06.45,6.38-.61,1.46-1.99,2.59-4.22,3.42-1.77.66-3.02,2.26-3.24,4.14-.21,1.87.65,3.72,2.23,4.76,2.15,1.45,5.39,4.72,5.46,7.12.03,1.26-.95,2.64-2.92,4.11-.68.39-9.92,6.61-4.6,24.87.09.3,5.77,18.93-6.48,27.88-.19.13-.36.28-.52.44-.46.42-12.43,11.11-39.75,4.3l-25.12-5.59c-.96-.18-5.02-.74-8.84,2.29-3.34,2.65-5.22,7.03-5.58,13.02-.85,3.88-5.77,29.19.01,76.33.24,1.98,6.58,30.16.18,41.36-1.34,2.35-2.16,4.02-2.61,5.19-18.24-17.06-143.24-46.01-143.17-46.57.6-5.06,14.06-124.91-45.54-198.17-.67-.74-43.4-46.97-38.78-113.22.03-.91,3.32-73.91,65.27-110.25,1.13-.78,79.4-54.65,167.11-3.75.72.4,63.1,36.17,82.25,136.8-.01,0,.71,5.08-3.54,13.27-1.23,2.07-5.4,11.26,6.05,25.11,13.75,16.78,28.32,38.1,28.09,43.07-.07.31-.1.57-.11.84h0Z"/>
      </g>
      <g class="cls-13">
        <rect id="rect2759" class="cls-4" x="176.72" y="280.02" width="16.17" height="16.17"/>
      </g>
      <g class="cls-12">
        <rect id="rect2761" class="cls-4" x="726.68" y="237.45" width="16.17" height="16.17"/>
      </g>
      <g class="cls-10">
        <rect id="rect2763" class="cls-4" x="286.7" y="322.85" width="16.17" height="16.17"/>
      </g>
      <g class="cls-11">
        <rect id="rect2765" class="cls-4" x="726.57" y="321.85" width="16.17" height="16.17"/>
      </g>
      <g class="cls-14">
        <rect id="rect2767" class="cls-4" x="702.26" y="280.02" width="16.17" height="16.17"/>
      </g>
      <g class="cls-18">
        <rect id="rect2769" class="cls-4" x="257.77" y="237.54" width="16.17" height="16.17"/>
      </g>
      <g class="cls-19">
        <line id="line2771" class="cls-3" x1="265.85" y1="245.62" x2="735.65" y2="245.62"/>
      </g>
      <g class="cls-17">
        <line id="line2773" class="cls-3" x1="187.11" y1="288.11" x2="708.16" y2="287.92"/>
      </g>
      <g class="cls-16">
        <line id="line2775" class="cls-3" x1="294.79" y1="330.93" x2="732.87" y2="330.93"/>
      </g>
      <g class="cls-15">
        <g id="g2787">
          <path id="path2777" class="cls-4" d="M777.8,289.2h8.04c.56,2.06,2.45,3.57,4.68,3.57,2.68,0,4.85-2.18,4.85-4.85s-2.18-4.85-4.85-4.85c-2.23,0-4.12,1.52-4.68,3.57h-8.04v-13.56h8.04c.56,2.06,2.45,3.57,4.68,3.57,2.68,0,4.85-2.18,4.85-4.85s-2.18-4.85-4.85-4.85c-2.23,0-4.12,1.52-4.68,3.57h-8.04v-3.2c0-3-2.44-5.44-5.44-5.44h-3.2v-8.04c2.06-.56,3.57-2.45,3.57-4.68,0-2.68-2.18-4.85-4.85-4.85s-4.85,2.18-4.85,4.85c0,2.23,1.52,4.12,3.57,4.68v8.04h-13.56v-8.04c2.06-.56,3.57-2.45,3.57-4.68,0-2.68-2.18-4.85-4.85-4.85s-4.85,2.18-4.85,4.85c0,2.23,1.52,4.12,3.57,4.68v8.04h-13.56v-8.04c2.06-.56,3.57-2.45,3.57-4.68,0-2.68-2.18-4.85-4.85-4.85s-4.85,2.18-4.85,4.85c0,2.23,1.52,4.12,3.57,4.68v8.04h-3.2c-3,0-5.44,2.44-5.44,5.44v3.2h-8.04c-.56-2.06-2.45-3.57-4.68-3.57-2.68,0-4.85,2.18-4.85,4.85s2.18,4.85,4.85,4.85c2.23,0,4.12-1.52,4.68-3.57h8.04v8.84c0,.71.57,1.28,1.28,1.28s1.28-.57,1.28-1.28v-14.59c0-1.59,1.3-2.89,2.89-2.89h3.2v5.49c0,1.55.6,3,1.7,4.09l10.23,10.23c.25.25.58.37.9.37s.65-.12.9-.37c.5-.5.5-1.31,0-1.81l-10.23-10.23c-.61-.61-.95-1.42-.95-2.29v-5.49h29.68v4.93c0,.64-.52,1.15-1.15,1.15h-4.95c-2.04,0-3.71,1.66-3.71,3.71v13.68c0,.71.57,1.28,1.28,1.28s1.28-.57,1.28-1.28v-13.69c0-.64.52-1.15,1.15-1.15h4.95c2.04,0,3.71-1.66,3.71-3.71v-4.93h3.2c1.59,0,2.89,1.3,2.89,2.89v41.18c0,1.59-1.3,2.89-2.89,2.89h-3.2v-7.36c0-.71-.57-1.28-1.28-1.28s-1.28.57-1.28,1.28v7.36h-35.43c-1.59,0-2.89-1.3-2.89-2.89v-19.31h5.74c.76,0,1.47.3,2.01.83l9.06,9.05c.54.54.83,1.25.83,2.01v4.77c0,.71.57,1.28,1.28,1.28s1.28-.57,1.28-1.28v-4.77c0-1.44-.56-2.8-1.58-3.82l-9.05-9.05c-1.02-1.02-2.37-1.58-3.82-1.58h-16.34c-.56-2.06-2.45-3.57-4.68-3.57-2.68,0-4.85,2.18-4.85,4.85s2.18,4.85,4.85,4.85c2.23,0,4.12-1.52,4.68-3.57h8.04v13.56h-8.04c-.56-2.06-2.45-3.57-4.68-3.57-2.68,0-4.85,2.18-4.85,4.85s2.18,4.85,4.85,4.85c2.23,0,4.12-1.52,4.68-3.57h8.04v3.2c0,3,2.44,5.44,5.44,5.44h3.2v8.04c-2.06.56-3.57,2.45-3.57,4.68,0,2.68,2.18,4.85,4.85,4.85s4.85-2.18,4.85-4.85c0-2.23-1.52-4.12-3.57-4.68v-8.04h13.56v8.04c-2.06.56-3.57,2.45-3.57,4.68,0,2.68,2.18,4.85,4.85,4.85s4.85-2.18,4.85-4.85c0-2.23-1.52-4.12-3.57-4.68v-8.04h19.31c3,0,5.44-2.44,5.44-5.44v-3.2h8.04c.56,2.06,2.45,3.57,4.68,3.57,2.68,0,4.85-2.18,4.85-4.85s-2.18-4.85-4.85-4.85c-2.23,0-4.12,1.52-4.68,3.57h-8.04v-13.56h0v.02ZM790.52,285.62c1.27,0,2.3,1.03,2.3,2.3s-1.03,2.3-2.3,2.3-2.3-1.03-2.3-2.3,1.03-2.3,2.3-2.3ZM790.52,269.51c1.27,0,2.3,1.03,2.3,2.3s-1.03,2.3-2.3,2.3-2.3-1.03-2.3-2.3,1.03-2.3,2.3-2.3ZM765.58,249.16c0-1.27,1.03-2.3,2.3-2.3s2.3,1.03,2.3,2.3-1.03,2.3-2.3,2.3-2.3-1.03-2.3-2.3ZM749.47,249.16c0-1.27,1.03-2.3,2.3-2.3s2.3,1.03,2.3,2.3-1.03,2.3-2.3,2.3-2.3-1.03-2.3-2.3ZM733.35,249.16c0-1.27,1.03-2.3,2.3-2.3s2.3,1.03,2.3,2.3-1.03,2.3-2.3,2.3-2.3-1.03-2.3-2.3ZM713.01,274.1c-1.27,0-2.3-1.03-2.3-2.3s1.03-2.3,2.3-2.3,2.3,1.03,2.3,2.3-1.03,2.3-2.3,2.3ZM713.01,290.22c-1.27,0-2.3-1.03-2.3-2.3s1.03-2.3,2.3-2.3,2.3,1.03,2.3,2.3-1.03,2.3-2.3,2.3ZM713.01,306.33c-1.27,0-2.3-1.03-2.3-2.3s1.03-2.3,2.3-2.3,2.3,1.03,2.3,2.3-1.03,2.3-2.3,2.3ZM737.94,326.67c0,1.27-1.03,2.3-2.3,2.3s-2.3-1.03-2.3-2.3,1.03-2.3,2.3-2.3,2.3,1.03,2.3,2.3ZM754.06,326.67c0,1.27-1.03,2.3-2.3,2.3s-2.3-1.03-2.3-2.3,1.03-2.3,2.3-2.3,2.3,1.03,2.3,2.3ZM790.52,301.74c1.27,0,2.3,1.03,2.3,2.3s-1.03,2.3-2.3,2.3-2.3-1.03-2.3-2.3,1.03-2.3,2.3-2.3Z"/>
          <path id="path2779" class="cls-4" d="M769.16,321.99v-3.34c0-.71-.57-1.28-1.28-1.28s-1.28.57-1.28,1.28v3.34c-2.06.56-3.57,2.45-3.57,4.68,0,2.68,2.18,4.85,4.85,4.85s4.85-2.18,4.85-4.85c0-2.23-1.52-4.12-3.57-4.68h0ZM767.88,328.97c-1.27,0-2.3-1.03-2.3-2.3s1.03-2.3,2.3-2.3,2.3,1.03,2.3,2.3-1.03,2.3-2.3,2.3Z"/>
          <g id="g2785">
            <circle id="circle2781" class="cls-4" cx="764.44" cy="287.92" r="1.28"/>
            <circle id="circle2783" class="cls-4" cx="769.12" cy="287.92" r="1.28"/>
          </g>
        </g>
      </g>
    </g>
  </g>
</svg>